<svg xmlns="http://www.w3.org/2000/svg" xmlns:xlink="http://www.w3.org/1999/xlink" version="1.1" data-diagram-type="SEQUENCE" style="width:3963px;height:2245px;background:#FFFFFF;" width="3963px" height="2245px" viewBox="0 0 3963 2245" zoomAndPan="magnify" preserveAspectRatio="none" contentStyleType="text/css"><?plantuml 1.2026.8?><defs/><g font-family="sans-serif" lengthAdjust="spacing"><g class="title" data-source-line="4"><text x="1580.532" y="27.995" fill="#000" font-size="14" textLength="800.898" font-weight="700">Import chain (gontroller): stages discover -> identify -> core -> plugins -> commit, each a sub-chain;</text><text x="1708.901" y="44.292" fill="#000" font-size="14" textLength="544.161" font-weight="700">every participant is a step (own goroutine), every arrow is a channel</text></g><rect x="25" y="64.594" width="1322.831" height="2166.359" fill="#E0FFFF" style="stroke:#181818;stroke-width:0.5;"/><text x="435.4" y="76.661" fill="#000" font-size="13" textLength="502.03" font-weight="700">discover: the groups that need work (walk, group by provider, gate)</text><rect x="1359.831" y="64.594" width="1433.243" height="2166.359" fill="#E6E6FA" style="stroke:#181818;stroke-width:0.5;"/><text x="1911.765" y="76.661" fill="#000" font-size="13" textLength="329.374" font-weight="700">identify: the item known (exiftool lives here)</text><rect x="2805.073" y="64.594" width="438.156" height="2166.359" fill="#F0FFF0" style="stroke:#181818;stroke-width:0.5;"/><text x="2915.336" y="76.661" fill="#000" font-size="13" textLength="217.629" font-weight="700">core / plugins: the perceptors</text><rect x="3402.391" y="64.594" width="498.571" height="2166.359" fill="#FFE4E1" style="stroke:#181818;stroke-width:0.5;"/><text x="3550.482" y="76.661" fill="#000" font-size="13" textLength="202.389" font-weight="700">commit: the item published</text><rect x="13" y="203.453" width="475.563" height="106.531" fill="none" style="stroke:#000;stroke-width:1.5;"/><rect x="456.563" y="327.984" width="853.268" height="292.133" fill="none" style="stroke:#000;stroke-width:1.5;"/><rect x="1277.831" y="732.648" width="313.466" height="117.203" fill="none" style="stroke:#000;stroke-width:1.5;"/><g><title>walk</title><rect x="205.162" y="148.32" width="8" height="2012.039" fill="#000" fill-opacity="0"/><line x1="208.662" y1="148.32" x2="208.662" y2="2160.359" style="stroke:#181818;stroke-width:0.5;stroke-dasharray:5,5;"/></g><g><title>group. switch</title><rect x="469.063" y="148.32" width="8" height="2012.039" fill="#000" fill-opacity="0"/><line x1="472.563" y1="148.32" x2="472.563" y2="2160.359" style="stroke:#181818;stroke-width:0.5;stroke-dasharray:5,5;"/></g><g><title>Apple Photos</title><rect x="591.129" y="148.32" width="8" height="2012.039" fill="#000" fill-opacity="0"/><line x1="594.629" y1="148.32" x2="594.629" y2="2160.359" style="stroke:#181818;stroke-width:0.5;stroke-dasharray:5,5;"/></g><g><title>plain folder</title><rect x="931.71" y="148.32" width="8" height="2012.039" fill="#000" fill-opacity="0"/><line x1="935.21" y1="148.32" x2="935.21" y2="2160.359" style="stroke:#181818;stroke-width:0.5;stroke-dasharray:5,5;"/></g><g><title>gate</title><rect x="1290.331" y="148.32" width="8" height="2012.039" fill="#000" fill-opacity="0"/><line x1="1293.831" y1="148.32" x2="1293.831" y2="2160.359" style="stroke:#181818;stroke-width:0.5;stroke-dasharray:5,5;"/></g><g><title>read</title><rect x="1404.592" y="148.32" width="8" height="2012.039" fill="#000" fill-opacity="0"/><line x1="1408.092" y1="148.32" x2="1408.092" y2="2160.359" style="stroke:#181818;stroke-width:0.5;stroke-dasharray:5,5;"/></g><g><title>classify</title><rect x="1625.726" y="148.32" width="8" height="2012.039" fill="#000" fill-opacity="0"/><line x1="1629.226" y1="148.32" x2="1629.226" y2="2160.359" style="stroke:#181818;stroke-width:0.5;stroke-dasharray:5,5;"/></g><g><title>validate</title><rect x="1942.153" y="148.32" width="8" height="2012.039" fill="#000" fill-opacity="0"/><line x1="1945.653" y1="148.32" x2="1945.653" y2="2160.359" style="stroke:#181818;stroke-width:0.5;stroke-dasharray:5,5;"/></g><g><title>embedded</title><rect x="2100.432" y="148.32" width="8" height="2012.039" fill="#000" fill-opacity="0"/><line x1="2103.932" y1="148.32" x2="2103.932" y2="2160.359" style="stroke:#181818;stroke-width:0.5;stroke-dasharray:5,5;"/></g><g><title>sizes</title><rect x="2336.117" y="148.32" width="8" height="2012.039" fill="#000" fill-opacity="0"/><line x1="2339.617" y1="148.32" x2="2339.617" y2="2160.359" style="stroke:#181818;stroke-width:0.5;stroke-dasharray:5,5;"/></g><g><title>pick</title><rect x="2426.096" y="148.32" width="8" height="2012.039" fill="#000" fill-opacity="0"/><line x1="2429.596" y1="148.32" x2="2429.596" y2="2160.359" style="stroke:#181818;stroke-width:0.5;stroke-dasharray:5,5;"/></g><g><title>core</title><rect x="2872.497" y="148.32" width="8" height="2012.039" fill="#000" fill-opacity="0"/><line x1="2875.997" y1="148.32" x2="2875.997" y2="2160.359" style="stroke:#181818;stroke-width:0.5;stroke-dasharray:5,5;"/></g><g><title>plugins</title><rect x="3172.309" y="148.32" width="8" height="2012.039" fill="#000" fill-opacity="0"/><line x1="3175.809" y1="148.32" x2="3175.809" y2="2160.359" style="stroke:#181818;stroke-width:0.5;stroke-dasharray:5,5;"/></g><g><title>keep</title><rect x="3491.056" y="148.32" width="8" height="2012.039" fill="#000" fill-opacity="0"/><line x1="3494.556" y1="148.32" x2="3494.556" y2="2160.359" style="stroke:#181818;stroke-width:0.5;stroke-dasharray:5,5;"/></g><g><title>close</title><rect x="3608.956" y="148.32" width="8" height="2012.039" fill="#000" fill-opacity="0"/><line x1="3612.456" y1="148.32" x2="3612.456" y2="2160.359" style="stroke:#181818;stroke-width:0.5;stroke-dasharray:5,5;"/></g><g><title>DB</title><rect x="3931.462" y="148.32" width="8" height="2012.039" fill="#000" fill-opacity="0"/><line x1="3934.962" y1="148.32" x2="3934.962" y2="2160.359" style="stroke:#181818;stroke-width:0.5;stroke-dasharray:5,5;"/></g><text x="189.649" y="128.722" fill="#000" font-size="14" textLength="32.026">walk</text><text x="161.615" y="145.019" fill="#000" font-size="14" textLength="88.095">(entry point)</text><ellipse cx="208.662" cy="99.727" rx="12" ry="12" fill="#E2E2F0" style="stroke:#181818;stroke-width:0.5;"/><polygon points="204.662,87.727,210.662,82.727,208.662,87.727,210.662,92.727,204.662,87.727" fill="#181818" style="stroke:#181818;stroke-width:1;stroke-linejoin:miter;stroke-miterlimit:10;"/><text x="422.149" y="128.722" fill="#000" font-size="14" textLength="94.828">group: switch</text><text x="409.263" y="145.019" fill="#000" font-size="14" textLength="120.6">(first that claims)</text><ellipse cx="472.563" cy="99.727" rx="12" ry="12" fill="#E2E2F0" style="stroke:#181818;stroke-width:0.5;"/><polygon points="468.563,87.727,474.563,82.727,472.563,87.727,474.563,92.727,468.563,87.727" fill="#181818" style="stroke:#181818;stroke-width:1;stroke-linejoin:miter;stroke-miterlimit:10;"/><text x="545.863" y="128.722" fill="#000" font-size="14" textLength="91.533">Apple Photos</text><text x="563.961" y="145.019" fill="#000" font-size="14" textLength="55.337">grouper</text><ellipse cx="594.629" cy="99.727" rx="12" ry="12" fill="#E2E2F0" style="stroke:#181818;stroke-width:0.5;"/><polygon points="590.629,87.727,596.629,82.727,594.629,87.727,596.629,92.727,590.629,87.727" fill="#181818" style="stroke:#181818;stroke-width:1;stroke-linejoin:miter;stroke-miterlimit:10;"/><text x="892.606" y="128.722" fill="#000" font-size="14" textLength="79.208">plain folder</text><text x="884.229" y="145.019" fill="#000" font-size="14" textLength="95.963">grouper (last)</text><ellipse cx="935.21" cy="99.727" rx="12" ry="12" fill="#E2E2F0" style="stroke:#181818;stroke-width:0.5;"/><polygon points="931.21,87.727,937.21,82.727,935.21,87.727,937.21,92.727,931.21,87.727" fill="#181818" style="stroke:#181818;stroke-width:1;stroke-linejoin:miter;stroke-miterlimit:10;"/><text x="1275.046" y="145.019" fill="#000" font-size="14" textLength="31.568">gate</text><ellipse cx="1293.831" cy="116.023" rx="12" ry="12" fill="#90EE90" style="stroke:#181818;stroke-width:0.5;"/><polygon points="1289.831,104.023,1295.831,99.023,1293.831,104.023,1295.831,109.023,1289.831,104.023" fill="#181818" style="stroke:#181818;stroke-width:1;stroke-linejoin:miter;stroke-miterlimit:10;"/><text x="1389.175" y="128.722" fill="#000" font-size="14" textLength="31.835">read</text><text x="1363.831" y="145.019" fill="#000" font-size="14" textLength="82.523">(exiftool, N)</text><ellipse cx="1408.092" cy="99.727" rx="12" ry="12" fill="#E2E2F0" style="stroke:#181818;stroke-width:0.5;"/><polygon points="1404.092,87.727,1410.092,82.727,1408.092,87.727,1410.092,92.727,1404.092,87.727" fill="#181818" style="stroke:#181818;stroke-width:1;stroke-linejoin:miter;stroke-miterlimit:10;"/><text x="1600.297" y="145.019" fill="#000" font-size="14" textLength="51.857">classify</text><ellipse cx="1629.226" cy="116.023" rx="12" ry="12" fill="#E2E2F0" style="stroke:#181818;stroke-width:0.5;"/><polygon points="1625.226,104.023,1631.226,99.023,1629.226,104.023,1631.226,109.023,1625.226,104.023" fill="#181818" style="stroke:#181818;stroke-width:1;stroke-linejoin:miter;stroke-miterlimit:10;"/><text x="1914.547" y="145.019" fill="#000" font-size="14" textLength="56.212">validate</text><ellipse cx="1945.653" cy="116.023" rx="12" ry="12" fill="#90EE90" style="stroke:#181818;stroke-width:0.5;"/><polygon points="1941.653,104.023,1947.653,99.023,1945.653,104.023,1947.653,109.023,1941.653,104.023" fill="#181818" style="stroke:#181818;stroke-width:1;stroke-linejoin:miter;stroke-miterlimit:10;"/><text x="2063.419" y="128.722" fill="#000" font-size="14" textLength="75.024">embedded</text><text x="2069.356" y="145.019" fill="#000" font-size="14" textLength="63.15">(exiftool)</text><ellipse cx="2103.932" cy="99.727" rx="12" ry="12" fill="#E2E2F0" style="stroke:#181818;stroke-width:0.5;"/><polygon points="2099.932,87.727,2105.932,82.727,2103.932,87.727,2105.932,92.727,2099.932,87.727" fill="#181818" style="stroke:#181818;stroke-width:1;stroke-linejoin:miter;stroke-miterlimit:10;"/><text x="2319.397" y="145.019" fill="#000" font-size="14" textLength="34.439">sizes</text><ellipse cx="2339.617" cy="116.023" rx="12" ry="12" fill="#E2E2F0" style="stroke:#181818;stroke-width:0.5;"/><polygon points="2335.617,104.023,2341.617,99.023,2339.617,104.023,2341.617,109.023,2335.617,104.023" fill="#181818" style="stroke:#181818;stroke-width:1;stroke-linejoin:miter;stroke-miterlimit:10;"/><text x="2412.305" y="128.722" fill="#000" font-size="14" textLength="28.581">pick</text><text x="2369.837" y="145.019" fill="#000" font-size="14" textLength="113.518">(cheap preview)</text><ellipse cx="2429.596" cy="99.727" rx="12" ry="12" fill="#FFFFE0" style="stroke:#181818;stroke-width:0.5;"/><polygon points="2425.596,87.727,2431.596,82.727,2429.596,87.727,2431.596,92.727,2425.596,87.727" fill="#181818" style="stroke:#181818;stroke-width:1;stroke-linejoin:miter;stroke-miterlimit:10;"/><text x="2857.681" y="128.722" fill="#000" font-size="14" textLength="30.632">core</text><text x="2822.602" y="145.019" fill="#000" font-size="14" textLength="100.789">(date, size, ...)</text><ellipse cx="2875.997" cy="99.727" rx="12" ry="12" fill="#E2E2F0" style="stroke:#181818;stroke-width:0.5;"/><polygon points="2871.997,87.727,2877.997,82.727,2875.997,87.727,2877.997,92.727,2871.997,87.727" fill="#181818" style="stroke:#181818;stroke-width:1;stroke-linejoin:miter;stroke-miterlimit:10;"/><text x="3147.512" y="128.722" fill="#000" font-size="14" textLength="50.593">plugins</text><text x="3125.918" y="145.019" fill="#000" font-size="14" textLength="93.782">(external .so)</text><ellipse cx="3175.809" cy="99.727" rx="12" ry="12" fill="#E2E2F0" style="stroke:#181818;stroke-width:0.5;"/><polygon points="3171.809,87.727,3177.809,82.727,3175.809,87.727,3177.809,92.727,3171.809,87.727" fill="#181818" style="stroke:#181818;stroke-width:1;stroke-linejoin:miter;stroke-miterlimit:10;"/><text x="3474.446" y="128.722" fill="#000" font-size="14" textLength="34.221">keep</text><text x="3407.686" y="145.019" fill="#000" font-size="14" textLength="167.74">(the perceptors' values)</text><ellipse cx="3494.556" cy="99.727" rx="12" ry="12" fill="#E2E2F0" style="stroke:#181818;stroke-width:0.5;"/><polygon points="3490.556,87.727,3496.556,82.727,3494.556,87.727,3496.556,92.727,3490.556,87.727" fill="#181818" style="stroke:#181818;stroke-width:1;stroke-linejoin:miter;stroke-miterlimit:10;"/><text x="3591.426" y="145.019" fill="#000" font-size="14" textLength="36.06">close</text><ellipse cx="3612.456" cy="116.023" rx="12" ry="12" fill="#E2E2F0" style="stroke:#181818;stroke-width:0.5;"/><polygon points="3608.456,104.023,3614.456,99.023,3612.456,104.023,3614.456,109.023,3608.456,104.023" fill="#181818" style="stroke:#181818;stroke-width:1;stroke-linejoin:miter;stroke-miterlimit:10;"/><text x="3921.77" y="145.019" fill="#000" font-size="14" textLength="20.385">DB</text><path d="M3916.962,96.023 C3916.962,86.023 3934.962,86.023 3934.962,86.023 C3934.962,86.023 3952.962,86.023 3952.962,96.023 L3952.962,122.023 C3952.962,132.023 3934.962,132.023 3934.962,132.023 C3934.962,132.023 3916.962,132.023 3916.962,122.023 L3916.962,96.023" style="stroke:#181818;stroke-width:0.5;" fill="#E2E2F0"/><path d="M3916.962,96.023 C3916.962,106.023 3934.962,106.023 3934.962,106.023 C3934.962,106.023 3952.962,106.023 3952.962,96.023" style="stroke:#181818;stroke-width:0.5;" fill="none"/><text x="189.649" y="2173.354" fill="#000" font-size="14" textLength="32.026">walk</text><text x="161.615" y="2189.651" fill="#000" font-size="14" textLength="88.095">(entry point)</text><ellipse cx="208.662" cy="2208.953" rx="12" ry="12" fill="#E2E2F0" style="stroke:#181818;stroke-width:0.5;"/><polygon points="204.662,2196.953,210.662,2191.953,208.662,2196.953,210.662,2201.953,204.662,2196.953" fill="#181818" style="stroke:#181818;stroke-width:1;stroke-linejoin:miter;stroke-miterlimit:10;"/><text x="422.149" y="2173.354" fill="#000" font-size="14" textLength="94.828">group: switch</text><text x="409.263" y="2189.651" fill="#000" font-size="14" textLength="120.6">(first that claims)</text><ellipse cx="472.563" cy="2208.953" rx="12" ry="12" fill="#E2E2F0" style="stroke:#181818;stroke-width:0.5;"/><polygon points="468.563,2196.953,474.563,2191.953,472.563,2196.953,474.563,2201.953,468.563,2196.953" fill="#181818" style="stroke:#181818;stroke-width:1;stroke-linejoin:miter;stroke-miterlimit:10;"/><text x="545.863" y="2173.354" fill="#000" font-size="14" textLength="91.533">Apple Photos</text><text x="563.961" y="2189.651" fill="#000" font-size="14" textLength="55.337">grouper</text><ellipse cx="594.629" cy="2208.953" rx="12" ry="12" fill="#E2E2F0" style="stroke:#181818;stroke-width:0.5;"/><polygon points="590.629,2196.953,596.629,2191.953,594.629,2196.953,596.629,2201.953,590.629,2196.953" fill="#181818" style="stroke:#181818;stroke-width:1;stroke-linejoin:miter;stroke-miterlimit:10;"/><text x="892.606" y="2173.354" fill="#000" font-size="14" textLength="79.208">plain folder</text><text x="884.229" y="2189.651" fill="#000" font-size="14" textLength="95.963">grouper (last)</text><ellipse cx="935.21" cy="2208.953" rx="12" ry="12" fill="#E2E2F0" style="stroke:#181818;stroke-width:0.5;"/><polygon points="931.21,2196.953,937.21,2191.953,935.21,2196.953,937.21,2201.953,931.21,2196.953" fill="#181818" style="stroke:#181818;stroke-width:1;stroke-linejoin:miter;stroke-miterlimit:10;"/><text x="1275.046" y="2173.354" fill="#000" font-size="14" textLength="31.568">gate</text><ellipse cx="1293.831" cy="2192.656" rx="12" ry="12" fill="#90EE90" style="stroke:#181818;stroke-width:0.5;"/><polygon points="1289.831,2180.656,1295.831,2175.656,1293.831,2180.656,1295.831,2185.656,1289.831,2180.656" fill="#181818" style="stroke:#181818;stroke-width:1;stroke-linejoin:miter;stroke-miterlimit:10;"/><text x="1389.175" y="2173.354" fill="#000" font-size="14" textLength="31.835">read</text><text x="1363.831" y="2189.651" fill="#000" font-size="14" textLength="82.523">(exiftool, N)</text><ellipse cx="1408.092" cy="2208.953" rx="12" ry="12" fill="#E2E2F0" style="stroke:#181818;stroke-width:0.5;"/><polygon points="1404.092,2196.953,1410.092,2191.953,1408.092,2196.953,1410.092,2201.953,1404.092,2196.953" fill="#181818" style="stroke:#181818;stroke-width:1;stroke-linejoin:miter;stroke-miterlimit:10;"/><text x="1600.297" y="2173.354" fill="#000" font-size="14" textLength="51.857">classify</text><ellipse cx="1629.226" cy="2192.656" rx="12" ry="12" fill="#E2E2F0" style="stroke:#181818;stroke-width:0.5;"/><polygon points="1625.226,2180.656,1631.226,2175.656,1629.226,2180.656,1631.226,2185.656,1625.226,2180.656" fill="#181818" style="stroke:#181818;stroke-width:1;stroke-linejoin:miter;stroke-miterlimit:10;"/><text x="1914.547" y="2173.354" fill="#000" font-size="14" textLength="56.212">validate</text><ellipse cx="1945.653" cy="2192.656" rx="12" ry="12" fill="#90EE90" style="stroke:#181818;stroke-width:0.5;"/><polygon points="1941.653,2180.656,1947.653,2175.656,1945.653,2180.656,1947.653,2185.656,1941.653,2180.656" fill="#181818" style="stroke:#181818;stroke-width:1;stroke-linejoin:miter;stroke-miterlimit:10;"/><text x="2063.419" y="2173.354" fill="#000" font-size="14" textLength="75.024">embedded</text><text x="2069.356" y="2189.651" fill="#000" font-size="14" textLength="63.15">(exiftool)</text><ellipse cx="2103.932" cy="2208.953" rx="12" ry="12" fill="#E2E2F0" style="stroke:#181818;stroke-width:0.5;"/><polygon points="2099.932,2196.953,2105.932,2191.953,2103.932,2196.953,2105.932,2201.953,2099.932,2196.953" fill="#181818" style="stroke:#181818;stroke-width:1;stroke-linejoin:miter;stroke-miterlimit:10;"/><text x="2319.397" y="2173.354" fill="#000" font-size="14" textLength="34.439">sizes</text><ellipse cx="2339.617" cy="2192.656" rx="12" ry="12" fill="#E2E2F0" style="stroke:#181818;stroke-width:0.5;"/><polygon points="2335.617,2180.656,2341.617,2175.656,2339.617,2180.656,2341.617,2185.656,2335.617,2180.656" fill="#181818" style="stroke:#181818;stroke-width:1;stroke-linejoin:miter;stroke-miterlimit:10;"/><text x="2412.305" y="2173.354" fill="#000" font-size="14" textLength="28.581">pick</text><text x="2369.837" y="2189.651" fill="#000" font-size="14" textLength="113.518">(cheap preview)</text><ellipse cx="2429.596" cy="2208.953" rx="12" ry="12" fill="#FFFFE0" style="stroke:#181818;stroke-width:0.5;"/><polygon points="2425.596,2196.953,2431.596,2191.953,2429.596,2196.953,2431.596,2201.953,2425.596,2196.953" fill="#181818" style="stroke:#181818;stroke-width:1;stroke-linejoin:miter;stroke-miterlimit:10;"/><text x="2857.681" y="2173.354" fill="#000" font-size="14" textLength="30.632">core</text><text x="2822.602" y="2189.651" fill="#000" font-size="14" textLength="100.789">(date, size, ...)</text><ellipse cx="2875.997" cy="2208.953" rx="12" ry="12" fill="#E2E2F0" style="stroke:#181818;stroke-width:0.5;"/><polygon points="2871.997,2196.953,2877.997,2191.953,2875.997,2196.953,2877.997,2201.953,2871.997,2196.953" fill="#181818" style="stroke:#181818;stroke-width:1;stroke-linejoin:miter;stroke-miterlimit:10;"/><text x="3147.512" y="2173.354" fill="#000" font-size="14" textLength="50.593">plugins</text><text x="3125.918" y="2189.651" fill="#000" font-size="14" textLength="93.782">(external .so)</text><ellipse cx="3175.809" cy="2208.953" rx="12" ry="12" fill="#E2E2F0" style="stroke:#181818;stroke-width:0.5;"/><polygon points="3171.809,2196.953,3177.809,2191.953,3175.809,2196.953,3177.809,2201.953,3171.809,2196.953" fill="#181818" style="stroke:#181818;stroke-width:1;stroke-linejoin:miter;stroke-miterlimit:10;"/><text x="3474.446" y="2173.354" fill="#000" font-size="14" textLength="34.221">keep</text><text x="3407.686" y="2189.651" fill="#000" font-size="14" textLength="167.74">(the perceptors' values)</text><ellipse cx="3494.556" cy="2208.953" rx="12" ry="12" fill="#E2E2F0" style="stroke:#181818;stroke-width:0.5;"/><polygon points="3490.556,2196.953,3496.556,2191.953,3494.556,2196.953,3496.556,2201.953,3490.556,2196.953" fill="#181818" style="stroke:#181818;stroke-width:1;stroke-linejoin:miter;stroke-miterlimit:10;"/><text x="3591.426" y="2173.354" fill="#000" font-size="14" textLength="36.06">close</text><ellipse cx="3612.456" cy="2192.656" rx="12" ry="12" fill="#E2E2F0" style="stroke:#181818;stroke-width:0.5;"/><polygon points="3608.456,2180.656,3614.456,2175.656,3612.456,2180.656,3614.456,2185.656,3608.456,2180.656" fill="#181818" style="stroke:#181818;stroke-width:1;stroke-linejoin:miter;stroke-miterlimit:10;"/><text x="3921.77" y="2173.354" fill="#000" font-size="14" textLength="20.385">DB</text><path d="M3916.962,2186.656 C3916.962,2176.656 3934.962,2176.656 3934.962,2176.656 C3934.962,2176.656 3952.962,2176.656 3952.962,2186.656 L3952.962,2212.656 C3952.962,2222.656 3934.962,2222.656 3934.962,2222.656 C3934.962,2222.656 3916.962,2222.656 3916.962,2212.656 L3916.962,2186.656" style="stroke:#181818;stroke-width:0.5;" fill="#E2E2F0"/><path d="M3916.962,2186.656 C3916.962,2196.656 3934.962,2196.656 3934.962,2196.656 C3934.962,2196.656 3952.962,2196.656 3952.962,2186.656" style="stroke:#181818;stroke-width:0.5;" fill="none"/><rect x="10" y="176.887" width="3942.962" height="3" fill="#EEE" style="stroke:#EEE;stroke-width:1;"/><line x1="10" y1="176.887" x2="3952.962" y2="176.887" style="stroke:#000;stroke-width:1;"/><line x1="10" y1="179.887" x2="3952.962" y2="179.887" style="stroke:#000;stroke-width:1;"/><rect x="1736.409" y="166.32" width="490.144" height="23.133" fill="#EEE" style="stroke:#000;stroke-width:2;"/><text x="1742.409" y="182.387" fill="#000" font-size="13" textLength="471.618" font-weight="700">files flow in; groups flow out one by one, steps run concurrently</text><path d="M13,203.453 L89.624,203.453 L89.624,210.586 L79.624,220.586 L13,220.586 L13,203.453" style="stroke:#000;stroke-width:1.5;" fill="#EEE"/><rect x="13" y="203.453" width="475.563" height="106.531" fill="none" style="stroke:#000;stroke-width:1.5;"/><text x="28" y="216.52" fill="#000" font-size="13" textLength="31.624" font-weight="700">loop</text><text x="104.624" y="215.664" fill="#000" font-size="11" textLength="162.615" font-weight="700">[every file under the root]</text><polygon points="460.563,247.719,470.563,251.719,460.563,255.719,464.563,251.719" fill="#181818" style="stroke:#181818;stroke-width:1;stroke-linejoin:miter;stroke-miterlimit:10;"/><line x1="208.662" y1="251.719" x2="466.563" y2="251.719" style="stroke:#181818;stroke-width:1;"/><text x="215.662" y="246.653" fill="#000" font-size="13" textLength="96.827">file (path, stat)</text><path d="M34,264.719 L34,304.719 L203,304.719 L203,274.719 L193,264.719 L34,264.719" style="stroke:#181818;stroke-width:0.5;" fill="#FEFFDD"/><path d="M193,264.719 L193,274.719 L203,274.719 L193,264.719" style="stroke:#181818;stroke-width:0.5;" fill="#FEFFDD"/><text x="40" y="281.786" fill="#000" font-size="13" textLength="142.099">Unreadable directory:</text><text x="40" y="296.918" fill="#000" font-size="13" textLength="148.662">skipped, recorded (V1)</text><path d="M456.563,327.984 L521.006,327.984 L521.006,335.117 L511.006,345.117 L456.563,345.117 L456.563,327.984" style="stroke:#000;stroke-width:1.5;" fill="#EEE"/><rect x="456.563" y="327.984" width="853.268" height="292.133" fill="none" style="stroke:#000;stroke-width:1.5;"/><text x="471.563" y="341.051" fill="#000" font-size="13" textLength="19.443" font-weight="700">alt</text><text x="536.006" y="340.195" fill="#000" font-size="11" textLength="250.11" font-weight="700">[Apple claims it (inside *.photoslibrary)]</text><polygon points="582.629,372.25,592.629,376.25,582.629,380.25,586.629,376.25" fill="#181818" style="stroke:#181818;stroke-width:1;stroke-linejoin:miter;stroke-miterlimit:10;"/><line x1="472.563" y1="376.25" x2="588.629" y2="376.25" style="stroke:#181818;stroke-width:1;"/><text x="479.563" y="371.184" fill="#000" font-size="13" textLength="19.798">file</text><line x1="594.629" y1="435.648" x2="636.629" y2="435.648" style="stroke:#181818;stroke-width:1;"/><line x1="636.629" y1="435.648" x2="636.629" y2="448.648" style="stroke:#181818;stroke-width:1;"/><line x1="595.629" y1="448.648" x2="636.629" y2="448.648" style="stroke:#181818;stroke-width:1;"/><polygon points="605.629,444.648,595.629,448.648,605.629,452.648,601.629,448.648" fill="#181818" style="stroke:#181818;stroke-width:1;stroke-linejoin:miter;stroke-miterlimit:10;"/><text x="601.629" y="400.317" fill="#000" font-size="13" textLength="248.485">first file: asset links from Photos.sqlite</text><text x="601.629" y="415.45" fill="#000" font-size="13" textLength="326.581">(original, render, Live Photo video); buffer of open</text><text x="601.629" y="430.583" fill="#000" font-size="13" textLength="322.975">groups, a group goes out when all its files arrived</text><polygon points="1281.831,473.781,1291.831,477.781,1281.831,481.781,1285.831,477.781" fill="#181818" style="stroke:#181818;stroke-width:1;stroke-linejoin:miter;stroke-miterlimit:10;"/><line x1="594.629" y1="477.781" x2="1287.831" y2="477.781" style="stroke:#181818;stroke-width:1;"/><text x="601.629" y="472.715" fill="#000" font-size="13" textLength="123.932">group (asset UUID)</text><line x1="456.563" y1="486.781" x2="1309.831" y2="486.781" style="stroke:#000;stroke-width:1;stroke-dasharray:2,2;"/><text x="461.563" y="498.992" fill="#000" font-size="11" textLength="358.596" font-weight="700">[nobody else claims it (other providers: Immich, ... later)]</text><polygon points="923.21,521.719,933.21,525.719,923.21,529.719,927.21,525.719" fill="#181818" style="stroke:#181818;stroke-width:1;stroke-linejoin:miter;stroke-miterlimit:10;"/><line x1="472.563" y1="525.719" x2="929.21" y2="525.719" style="stroke:#181818;stroke-width:1;"/><text x="479.563" y="520.653" fill="#000" font-size="13" textLength="19.798">file</text><line x1="935.21" y1="569.984" x2="977.21" y2="569.984" style="stroke:#181818;stroke-width:1;"/><line x1="977.21" y1="569.984" x2="977.21" y2="582.984" style="stroke:#181818;stroke-width:1;"/><line x1="936.21" y1="582.984" x2="977.21" y2="582.984" style="stroke:#181818;stroke-width:1;"/><polygon points="946.21,578.984,936.21,582.984,946.21,586.984,942.21,582.984" fill="#181818" style="stroke:#181818;stroke-width:1;stroke-linejoin:miter;stroke-miterlimit:10;"/><text x="942.21" y="549.786" fill="#000" font-size="13" textLength="243.667">sidecars by name, next to each other</text><text x="942.21" y="564.918" fill="#000" font-size="13" textLength="344.621">(buffer: one open group; a complete group goes out)</text><polygon points="1281.831,608.117,1291.831,612.117,1281.831,616.117,1285.831,612.117" fill="#181818" style="stroke:#181818;stroke-width:1;stroke-linejoin:miter;stroke-miterlimit:10;"/><line x1="935.21" y1="612.117" x2="1287.831" y2="612.117" style="stroke:#181818;stroke-width:1;"/><text x="942.21" y="607.051" fill="#000" font-size="13" textLength="38.042">group</text><path d="M344.368,639.117 L344.368,679.117 L600.368,679.117 L600.368,649.117 L590.368,639.117 L344.368,639.117" style="stroke:#181818;stroke-width:0.5;" fill="#FEFFDD"/><path d="M590.368,639.117 L590.368,649.117 L600.368,649.117 L590.368,639.117" style="stroke:#181818;stroke-width:0.5;" fill="#FEFFDD"/><text x="350.368" y="656.184" fill="#000" font-size="13" textLength="235.39">a provider not enabled is not asked:</text><text x="350.368" y="671.317" fill="#000" font-size="13" textLength="171.755">its files are a plain folder's</text><polygon points="3922.962,716.648,3932.962,720.648,3922.962,724.648,3926.962,720.648" fill="#181818" style="stroke:#181818;stroke-width:1;stroke-linejoin:miter;stroke-miterlimit:10;"/><line x1="1293.831" y1="720.648" x2="3928.962" y2="720.648" style="stroke:#181818;stroke-width:1;"/><text x="1300.831" y="700.45" fill="#000" font-size="13" textLength="115.426">stat vs files table,</text><text x="1300.831" y="715.583" fill="#000" font-size="13" textLength="153.658">CheckTime of every file</text><path d="M1277.831,732.648 L1342.273,732.648 L1342.273,739.781 L1332.273,749.781 L1277.831,749.781 L1277.831,732.648" style="stroke:#000;stroke-width:1.5;" fill="#EEE"/><rect x="1277.831" y="732.648" width="313.466" height="117.203" fill="none" style="stroke:#000;stroke-width:1.5;"/><text x="1292.831" y="745.715" fill="#000" font-size="13" textLength="19.443" font-weight="700">alt</text><text x="1357.273" y="744.859" fill="#000" font-size="11" textLength="218.023" font-weight="700">[unchanged and the item is Ready]</text><line x1="1293.831" y1="780.914" x2="1335.831" y2="780.914" style="stroke:#181818;stroke-width:1;"/><line x1="1335.831" y1="780.914" x2="1335.831" y2="793.914" style="stroke:#181818;stroke-width:1;"/><line x1="1306.831" y1="793.914" x2="1335.831" y2="793.914" style="stroke:#181818;stroke-width:1;"/><line x1="1299.831" y1="788.914" x2="1309.831" y2="798.914" style="stroke:#181818;stroke-width:2;"/><line x1="1299.831" y1="798.914" x2="1309.831" y2="788.914" style="stroke:#181818;stroke-width:2;"/><text x="1300.831" y="775.848" fill="#000" font-size="13" textLength="29.802">drop</text><line x1="1277.831" y1="802.914" x2="1591.297" y2="802.914" style="stroke:#000;stroke-width:1;stroke-dasharray:2,2;"/><text x="1282.831" y="815.125" fill="#000" font-size="11" textLength="174.55" font-weight="700">[new / changed / not Ready]</text><polygon points="1396.092,837.852,1406.092,841.852,1396.092,845.852,1400.092,841.852" fill="#181818" style="stroke:#181818;stroke-width:1;stroke-linejoin:miter;stroke-miterlimit:10;"/><line x1="1293.831" y1="841.852" x2="1402.092" y2="841.852" style="stroke:#181818;stroke-width:1;"/><text x="1300.831" y="836.786" fill="#000" font-size="13" textLength="38.042">group</text><polygon points="1617.226,880.984,1627.226,884.984,1617.226,888.984,1621.226,884.984" fill="#181818" style="stroke:#181818;stroke-width:1;stroke-linejoin:miter;stroke-miterlimit:10;"/><line x1="1408.092" y1="884.984" x2="1623.226" y2="884.984" style="stroke:#181818;stroke-width:1;"/><text x="1415.092" y="879.918" fill="#000" font-size="13" textLength="81.079">group + exif</text><line x1="1629.226" y1="944.383" x2="1671.226" y2="944.383" style="stroke:#181818;stroke-width:1;"/><line x1="1671.226" y1="944.383" x2="1671.226" y2="957.383" style="stroke:#181818;stroke-width:1;"/><line x1="1630.226" y1="957.383" x2="1671.226" y2="957.383" style="stroke:#181818;stroke-width:1;"/><polygon points="1640.226,953.383,1630.226,957.383,1640.226,961.383,1636.226,957.383" fill="#181818" style="stroke:#181818;stroke-width:1;stroke-linejoin:miter;stroke-miterlimit:10;"/><text x="1636.226" y="909.051" fill="#000" font-size="13" textLength="109.084">kind of every file</text><text x="1636.226" y="924.184" fill="#000" font-size="13" textLength="302.428">(exif FileType/MIMEType, own extension table,</text><text x="1636.226" y="939.317" fill="#000" font-size="13" textLength="189.021">content sniff), rank: main file</text><polygon points="1933.653,982.516,1943.653,986.516,1933.653,990.516,1937.653,986.516" fill="#181818" style="stroke:#181818;stroke-width:1;stroke-linejoin:miter;stroke-miterlimit:10;"/><line x1="1629.226" y1="986.516" x2="1939.653" y2="986.516" style="stroke:#181818;stroke-width:1;"/><text x="1636.226" y="981.45" fill="#000" font-size="13" textLength="87.502">ranked group</text><polygon points="3922.962,1026.781,3932.962,1030.781,3922.962,1034.781,3926.962,1030.781" fill="#181818" style="stroke:#181818;stroke-width:1;stroke-linejoin:miter;stroke-miterlimit:10;"/><line x1="1945.653" y1="1030.781" x2="3928.962" y2="1030.781" style="stroke:#181818;stroke-width:1;"/><text x="1952.653" y="1010.583" fill="#000" font-size="13" textLength="138.271">hash of the main file:</text><text x="1952.653" y="1025.715" fill="#000" font-size="13" textLength="234.165">same / changed / moved / duplicate</text><polygon points="2091.932,1055.914,2101.932,1059.914,2091.932,1063.914,2095.932,1059.914" fill="#181818" style="stroke:#181818;stroke-width:1;stroke-linejoin:miter;stroke-miterlimit:10;"/><line x1="1945.653" y1="1059.914" x2="2097.932" y2="1059.914" style="stroke:#181818;stroke-width:1;"/><text x="1952.653" y="1054.848" fill="#000" font-size="13" textLength="134.278">item (GUID) + group</text><line x1="2103.932" y1="1119.313" x2="2145.932" y2="1119.313" style="stroke:#181818;stroke-width:1;"/><line x1="2145.932" y1="1119.313" x2="2145.932" y2="1132.313" style="stroke:#181818;stroke-width:1;"/><line x1="2104.932" y1="1132.313" x2="2145.932" y2="1132.313" style="stroke:#181818;stroke-width:1;"/><polygon points="2114.932,1128.313,2104.932,1132.313,2114.932,1136.313,2110.932,1132.313" fill="#181818" style="stroke:#181818;stroke-width:1;stroke-linejoin:miter;stroke-miterlimit:10;"/><text x="2110.932" y="1083.981" fill="#000" font-size="13" textLength="182.14">nothing in the group shows:</text><text x="2110.932" y="1099.114" fill="#000" font-size="13" textLength="221.686">the main file's embedded preview</text><text x="2110.932" y="1114.247" fill="#000" font-size="13" textLength="172.847">(exiftool -b into the cache)</text><polygon points="2327.617,1157.445,2337.617,1161.445,2327.617,1165.445,2331.617,1161.445" fill="#181818" style="stroke:#181818;stroke-width:1;stroke-linejoin:miter;stroke-miterlimit:10;"/><line x1="2103.932" y1="1161.445" x2="2333.617" y2="1161.445" style="stroke:#181818;stroke-width:1;"/><text x="2110.932" y="1156.379" fill="#000" font-size="13" textLength="162.513">+ embedded ("" = none)</text><polygon points="3922.962,1186.578,3932.962,1190.578,3922.962,1194.578,3926.962,1190.578" fill="#181818" style="stroke:#181818;stroke-width:1;stroke-linejoin:miter;stroke-miterlimit:10;"/><line x1="2339.617" y1="1190.578" x2="3928.962" y2="1190.578" style="stroke:#181818;stroke-width:1;"/><text x="2346.617" y="1185.512" fill="#000" font-size="13" textLength="166.156">pixels, codec of every file</text><polygon points="2417.596,1215.711,2427.596,1219.711,2417.596,1223.711,2421.596,1219.711" fill="#181818" style="stroke:#181818;stroke-width:1;stroke-linejoin:miter;stroke-miterlimit:10;"/><line x1="2339.617" y1="1219.711" x2="2423.596" y2="1219.711" style="stroke:#181818;stroke-width:1;"/><text x="2346.617" y="1214.645" fill="#000" font-size="13" textLength="47.004">+ sizes</text><line x1="2429.596" y1="1294.242" x2="2471.596" y2="1294.242" style="stroke:#181818;stroke-width:1;"/><line x1="2471.596" y1="1294.242" x2="2471.596" y2="1307.242" style="stroke:#181818;stroke-width:1;"/><line x1="2430.596" y1="1307.242" x2="2471.596" y2="1307.242" style="stroke:#181818;stroke-width:1;"/><polygon points="2440.596,1303.242,2430.596,1307.242,2440.596,1311.242,2436.596,1307.242" fill="#181818" style="stroke:#181818;stroke-width:1;stroke-linejoin:miter;stroke-miterlimit:10;"/><text x="2436.596" y="1243.778" fill="#000" font-size="13" textLength="287.035">what the browser shows now, no transcode:</text><text x="2436.596" y="1258.911" fill="#000" font-size="13" textLength="325.787">Show / the main file (JPEG, PNG, ...; H.264 video) /</text><text x="2436.596" y="1274.043" fill="#000" font-size="13" textLength="345.478">the biggest viewable derivative / the embedded one;</text><text x="2436.596" y="1289.176" fill="#000" font-size="13" textLength="100.82">any size counts</text><polygon points="2863.997,1332.375,2873.997,1336.375,2863.997,1340.375,2867.997,1336.375" fill="#181818" style="stroke:#181818;stroke-width:1;stroke-linejoin:miter;stroke-miterlimit:10;"/><line x1="2429.596" y1="1336.375" x2="2869.997" y2="1336.375" style="stroke:#181818;stroke-width:1;"/><text x="2436.596" y="1331.309" fill="#000" font-size="13" textLength="220.003">item + preview ("" = nothing yet)</text><polygon points="3163.809,1361.508,3173.809,1365.508,3163.809,1369.508,3167.809,1365.508" fill="#181818" style="stroke:#181818;stroke-width:1;stroke-linejoin:miter;stroke-miterlimit:10;"/><line x1="2875.997" y1="1365.508" x2="3169.809" y2="1365.508" style="stroke:#181818;stroke-width:1;"/><text x="2882.997" y="1360.442" fill="#000" font-size="13" textLength="275.812">+ date, size, length (written into the item)</text><polygon points="3482.556,1390.641,3492.556,1394.641,3482.556,1398.641,3486.556,1394.641" fill="#181818" style="stroke:#181818;stroke-width:1;stroke-linejoin:miter;stroke-miterlimit:10;"/><line x1="3175.809" y1="1394.641" x2="3488.556" y2="1394.641" style="stroke:#181818;stroke-width:1;"/><text x="3182.809" y="1389.575" fill="#000" font-size="13" textLength="294.747">+ the external perceptors' values (read-only)</text><polygon points="3922.962,1419.773,3932.962,1423.773,3922.962,1427.773,3926.962,1423.773" fill="#181818" style="stroke:#181818;stroke-width:1;stroke-linejoin:miter;stroke-miterlimit:10;"/><line x1="3494.556" y1="1423.773" x2="3928.962" y2="1423.773" style="stroke:#181818;stroke-width:1;"/><text x="3501.556" y="1418.708" fill="#000" font-size="13" textLength="271.312">a row in every import perceptor's storage</text><polygon points="3600.456,1448.906,3610.456,1452.906,3600.456,1456.906,3604.456,1452.906" fill="#181818" style="stroke:#181818;stroke-width:1;stroke-linejoin:miter;stroke-miterlimit:10;"/><line x1="3494.556" y1="1452.906" x2="3606.456" y2="1452.906" style="stroke:#181818;stroke-width:1;"/><text x="3501.556" y="1447.84" fill="#000" font-size="13" textLength="29.371">item</text><polygon points="3922.962,1478.039,3932.962,1482.039,3922.962,1486.039,3926.962,1482.039" fill="#181818" style="stroke:#181818;stroke-width:1;stroke-linejoin:miter;stroke-miterlimit:10;"/><line x1="3612.456" y1="1482.039" x2="3928.962" y2="1482.039" style="stroke:#181818;stroke-width:1;"/><text x="3619.456" y="1476.973" fill="#000" font-size="13" textLength="238.558">Visible (a preview) or Waiting (none)</text><path d="M3617.456,1495.039 L3617.456,1565.039 L3891.456,1565.039 L3891.456,1505.039 L3881.456,1495.039 L3617.456,1495.039" style="stroke:#181818;stroke-width:0.5;" fill="#FEFFDD"/><path d="M3881.456,1495.039 L3881.456,1505.039 L3891.456,1505.039 L3881.456,1495.039" style="stroke:#181818;stroke-width:0.5;" fill="#FEFFDD"/><text x="3623.456" y="1512.106" fill="#000" font-size="13" textLength="226.96">The client gets Visible (and Ready)</text><text x="3623.456" y="1527.239" fill="#000" font-size="13" textLength="253.506">items at once. Ready comes later from</text><text x="3623.456" y="1542.372" fill="#000" font-size="13" textLength="234.127">the expensive chain (transcode, fed</text><text x="3623.456" y="1557.504" fill="#000" font-size="13" textLength="232.254">from the DB; roadmap: thumbnails)</text><rect x="10" y="1591.137" width="3942.962" height="3" fill="#EEE" style="stroke:#EEE;stroke-width:1;"/><line x1="10" y1="1591.137" x2="3952.962" y2="1591.137" style="stroke:#000;stroke-width:1;"/><line x1="10" y1="1594.137" x2="3952.962" y2="1594.137" style="stroke:#000;stroke-width:1;"/><rect x="1929.768" y="1580.57" width="103.426" height="23.133" fill="#EEE" style="stroke:#000;stroke-width:2;"/><text x="1935.768" y="1596.637" fill="#000" font-size="13" textLength="84.9" font-weight="700">end of walk</text><polygon points="460.563,1630.836,470.563,1634.836,460.563,1638.836,464.563,1634.836" fill="#181818" style="stroke:#181818;stroke-width:1;stroke-linejoin:miter;stroke-miterlimit:10;"/><line x1="208.662" y1="1634.836" x2="466.563" y2="1634.836" style="stroke:#181818;stroke-width:1;"/><text x="215.662" y="1629.77" fill="#000" font-size="13" textLength="132.057">marker (walk result)</text><polygon points="582.629,1659.969,592.629,1663.969,582.629,1667.969,586.629,1663.969" fill="#181818" style="stroke:#181818;stroke-width:1;stroke-linejoin:miter;stroke-miterlimit:10;"/><line x1="472.563" y1="1663.969" x2="588.629" y2="1663.969" style="stroke:#181818;stroke-width:1;"/><text x="479.563" y="1658.903" fill="#000" font-size="13" textLength="46.846">marker</text><polygon points="923.21,1659.969,933.21,1663.969,923.21,1667.969,927.21,1663.969" fill="#181818" style="stroke:#181818;stroke-width:1;stroke-linejoin:miter;stroke-miterlimit:10;"/><line x1="472.563" y1="1663.969" x2="929.21" y2="1663.969" style="stroke:#181818;stroke-width:1;"/><text x="479.563" y="1658.903" fill="#000" font-size="13" textLength="46.846">marker</text><path d="M477.563,1676.969 L477.563,1701.969 L607.563,1701.969 L607.563,1686.969 L597.563,1676.969 L477.563,1676.969" style="stroke:#181818;stroke-width:0.5;" fill="#FEFFDD"/><path d="M597.563,1676.969 L597.563,1686.969 L607.563,1686.969 L597.563,1676.969" style="stroke:#181818;stroke-width:0.5;" fill="#FEFFDD"/><text x="483.563" y="1694.036" fill="#000" font-size="13" textLength="109.427">to every grouper</text><polygon points="1281.831,1724.234,1291.831,1728.234,1281.831,1732.234,1285.831,1728.234" fill="#181818" style="stroke:#181818;stroke-width:1;stroke-linejoin:miter;stroke-miterlimit:10;"/><line x1="935.21" y1="1728.234" x2="1287.831" y2="1728.234" style="stroke:#181818;stroke-width:1;"/><text x="942.21" y="1723.168" fill="#000" font-size="13" textLength="127.505">last groups, marker</text><polygon points="1281.831,1753.367,1291.831,1757.367,1281.831,1761.367,1285.831,1757.367" fill="#181818" style="stroke:#181818;stroke-width:1;stroke-linejoin:miter;stroke-miterlimit:10;"/><line x1="594.629" y1="1757.367" x2="1287.831" y2="1757.367" style="stroke:#181818;stroke-width:1;"/><text x="601.629" y="1752.301" fill="#000" font-size="13" textLength="127.505">last groups, marker</text><polygon points="3922.962,1812.766,3932.962,1816.766,3922.962,1820.766,3926.962,1816.766" fill="#181818" style="stroke:#181818;stroke-width:1;stroke-linejoin:miter;stroke-miterlimit:10;"/><line x1="1293.831" y1="1816.766" x2="3928.962" y2="1816.766" style="stroke:#181818;stroke-width:1;"/><text x="1300.831" y="1781.434" fill="#000" font-size="13" textLength="236.66">after the marker from every branch:</text><text x="1300.831" y="1796.567" fill="#000" font-size="13" textLength="276.809">deletions (V2), only after a complete walk,</text><text x="1300.831" y="1811.7" fill="#000" font-size="13" textLength="214.76">not under unreadable directories</text><polygon points="219.662,1841.898,209.662,1845.898,219.662,1849.898,215.662,1845.898" fill="#181818" style="stroke:#181818;stroke-width:1;stroke-linejoin:miter;stroke-miterlimit:10;"/><line x1="213.662" y1="1845.898" x2="3611.456" y2="1845.898" style="stroke:#181818;stroke-width:1;stroke-dasharray:2,2;"/><text x="225.662" y="1840.833" fill="#000" font-size="13" textLength="383.576">the last group of the walk is done (items + errors counted)</text><line x1="208.662" y1="1875.031" x2="250.662" y2="1875.031" style="stroke:#181818;stroke-width:1;"/><line x1="250.662" y1="1875.031" x2="250.662" y2="1888.031" style="stroke:#181818;stroke-width:1;"/><line x1="209.662" y1="1888.031" x2="250.662" y2="1888.031" style="stroke:#181818;stroke-width:1;"/><polygon points="219.662,1884.031,209.662,1888.031,219.662,1892.031,215.662,1888.031" fill="#181818" style="stroke:#181818;stroke-width:1;stroke-linejoin:miter;stroke-miterlimit:10;"/><text x="215.662" y="1869.965" fill="#000" font-size="13" textLength="249.901">rescan pause (1 min), then walk again</text><rect x="10" y="1916.598" width="3942.962" height="3" fill="#EEE" style="stroke:#EEE;stroke-width:1;"/><line x1="10" y1="1916.598" x2="3952.962" y2="1916.598" style="stroke:#000;stroke-width:1;"/><line x1="10" y1="1919.598" x2="3952.962" y2="1919.598" style="stroke:#000;stroke-width:1;"/><rect x="1813.352" y="1906.031" width="336.258" height="23.133" fill="#EEE" style="stroke:#000;stroke-width:2;"/><text x="1819.352" y="1922.098" fill="#000" font-size="13" textLength="317.732" font-weight="700">One asset again (Apple Photos on demand)</text><path d="M468.599,1944.164 L468.599,1984.164 L720.599,1984.164 L720.599,1954.164 L710.599,1944.164 L468.599,1944.164" style="stroke:#181818;stroke-width:0.5;" fill="#FEFFDD"/><path d="M710.599,1944.164 L710.599,1954.164 L720.599,1954.164 L710.599,1944.164" style="stroke:#181818;stroke-width:0.5;" fill="#FEFFDD"/><text x="474.599" y="1961.231" fill="#000" font-size="13" textLength="231.061">Photos made a file of an asset local</text><text x="474.599" y="1976.364" fill="#000" font-size="13" textLength="219.216">(the viewer asked for it: PhotoKit)</text><line x1="594.629" y1="2025.695" x2="636.629" y2="2025.695" style="stroke:#181818;stroke-width:1;"/><line x1="636.629" y1="2025.695" x2="636.629" y2="2038.695" style="stroke:#181818;stroke-width:1;"/><line x1="595.629" y1="2038.695" x2="636.629" y2="2038.695" style="stroke:#181818;stroke-width:1;"/><polygon points="605.629,2034.695,595.629,2038.695,605.629,2042.695,601.629,2038.695" fill="#181818" style="stroke:#181818;stroke-width:1;stroke-linejoin:miter;stroke-miterlimit:10;"/><text x="601.629" y="2005.497" fill="#000" font-size="13" textLength="251.145">Regroup(uuid): the last load's DB rows</text><text x="601.629" y="2020.629" fill="#000" font-size="13" textLength="243.166">+ the disk now (no walk, no DB read)</text><polygon points="1281.831,2094.094,1291.831,2098.094,1281.831,2102.094,1285.831,2098.094" fill="#181818" style="stroke:#181818;stroke-width:1;stroke-linejoin:miter;stroke-miterlimit:10;"/><line x1="594.629" y1="2098.094" x2="1287.831" y2="2098.094" style="stroke:#181818;stroke-width:1;"/><text x="601.629" y="2062.762" fill="#000" font-size="13" textLength="229.531">group (asset UUID): like any group,</text><text x="601.629" y="2077.895" fill="#000" font-size="13" textLength="252.275">only what changed passes; no marker,</text><text x="601.629" y="2093.028" fill="#000" font-size="13" textLength="133.072">deletions untouched</text><polygon points="605.629,2138.359,595.629,2142.359,605.629,2146.359,601.629,2142.359" fill="#181818" style="stroke:#181818;stroke-width:1;stroke-linejoin:miter;stroke-miterlimit:10;"/><line x1="599.629" y1="2142.359" x2="3611.456" y2="2142.359" style="stroke:#181818;stroke-width:1;stroke-dasharray:2,2;"/><text x="611.629" y="2122.161" fill="#000" font-size="13" textLength="241.154">the item is done: the request waiting</text><text x="611.629" y="2137.293" fill="#000" font-size="13" textLength="213.211">for it answers (importer Refresh)</text><?plantuml-src XLTTZzks4dtNhvYx1HgvSNRHug8FNkm5ccpkDctJBj8anGNsXPR65c6AL4bg7VVNtpCaPSkx1UeNI-HmE7Fcp8V-DNYrxHL5TdzHz2DNLTJHCBth1-SZDPtIbkgjiz4xOzWlLXIYsdAWLeV6FRAdL_yXtRADUdEGvyPvbl_1Z5jjGrxgUnsNnAhfI54Orw-Iuki7oz1me47vg1izA1j91n69F53jzfQsphinQiiBd4_2odktpsBGOYsRgbgxBtGnMRIYs35jSMu8U5IHB7DBU-TtLE-LsItp9grnitUFiDvZIKLUND1Nl-Xj5zySbAsQx3LTo9a7MyD7iTLf6o6e0ls1TVOdkQGL0ErrR3eSs6WVOhQWCKht8H-xIvQTZlqm343yldFHXGURbB1Faddj93aO2SV66LXybAJQg50ikcFBNZSpa-1Lti53SUxECzkARKk0hM0tHJ1ZfoFtjBE2VyrVz2Oww3Bw4M7ls6UOr2CqpBtth5f1gSWlwTTiqriidAG0H0YuA6szrpsVjXwLqUrax-VyuloPqKTPxjVSjZo_iDnMDawYGV_58UtzBaypD7KZOMqwLWE8m8-Qzrd9VNufL_-FZN7x9u0bcbzDBC-m8HWD3x0PrttrexDyQ7a_Snr7S9-uk2InQacNbvVvnZVOcySvQKtEHVPM6ReChjYMzvwP8oasYzumheqE7RSmvRqEyV31XTaDE-O1wi-jVa48mSY5fZz3P1utdC-cofC_tGz_r5e5felRrqdWzdLLtTpGHXlmPMCaMUtrb8_f7HbDW4SI47_BbEw1_6XHAcmpUWyocWFTt5ILSMueYIyAQHJI9JUzSx4Y_78QIg79cRNAalMWOYUwLLmaEUkG0eOtk7ipvQwiVx92NRN6cLPxRW35OPLsmauF0xTBmghpO1NLdx_DoiHzKIWuL9KoaN8QvqH73AX6b91MzCtbaDBOwBLN_f2FPql5vfpZsUQqbHVEjwIEYC0A-0QEo4Mx0vRUzKNeClnf47U4r7aDVYWZHjjKsNv1ucOnabhd5jUq7ZSRG0OStC2sb9AmH4dDbN7h43g9qhvZIyeOE1HAH55_eR1zOglKbrKvNMSZFtrwTxkes80QrgrTUw3qF4F88Ox-M8FXwJkmkEbINf21HlyKhLBWPd2LbRDDmRrHFWZ1hEh1C8j48W2GMb2w5b1b55Q9Ye93DlzQ6elh4Sp8J-1OFBlnv7KYGg9OweeJ5TNHFQ4BQ2CyQwLzoQiAEsvN3tQEBikPMQ5_4QegLM_ST_iwzTz8ZvDy57tB1_kcusRt4VLKWdhAbyJCqKgZtE9Q1TOUImHi-03Y7x9J-OOlnQNMkw643dNmYYO5LydiPyTIaPy3KSc2R4Y9dtZnagHMLx9qsjffs7HcSwdfz5yyVpmCVFN-tVktyh0awKXI4f5PpXvzboA5Ya71wiq6Su9NThUYFa4e64mN7dlAAed0dMnmTMes1UDEXKwC4goEUX2d03ATeT4ZsFBVZeFH3S0urpLrerL6lBwJb00EvTvf-rmK27VQRb4rJuCCXSxj0omui-X5eAaHJWrirX3frHewG7evqu3ul3YxCRN3bKHbMgmlBkW6zsFQgjBkXCUWlu0CI-G54ki9muw2fMkAnjHpgwcDplVsCWs9GMjCSUWZsJ7SkKUImbG49iWjSFLtx03QCu-f_kd-xTsIxd-zIrNYcdwy_ExxVvV2HbSPeBNUOaH5bk3ANDUHi8ygIY7C2eykmrUCeSeUairmSBJnp7Bfp2LyBoUGZq3bG1qObU5DcNllfudW9SqxlM6xZHtcJwyZo7eAZ6XULFUdQLdwhfnEPaxj_tcJfbgwrYjd3LgAd9bYfIZDnxR4IET9_gW0d0dummn_F9KxUdQooY-JiiywQ06mLiS9YK3jFvIEudcTkPBAdfTPIRXH1eIFmZgZ9J6tZFfsKeM4JnLaKScDg7ao3JHycLUb-CAzLFvJYwio4eDaFG9OlacEJ5dI1jqezK8Hl7rz3G1Kswj1ng6nNrkbJLXKnuujmmddeYEJVHepdiyGlVAoaZuOq4h3Q13avsqxYrLV_rsFAdldw4pwfHcb09KnldhMLcIifwap5rrF6-xVoSoRXTh4CYuLVn9E-MAC8sWCIBIMqUjGKC6fpz-XVWgdoibPAqnVJWzMwdyUmiRdSvD6ray4WWKPrJoLdYoT2cj25asebVvRPogW6E7p3fqx9IAtYrba9cq8HgCiFXf7jAVwM-grXT5H9fMaKcr1a1Jbtw0upo9fZUhvfnRSH5temSQ5KE3KkgVG5h5UjTAIK_M1vRYvp62kKQRCq98OWfQqSxHjJpABf_C_Qz3c-KZtWHCKzJZgTZ43o82vBsI4bYJ61q0k0_YotKc9b7pBSP1QAK88mABwvoaCHD4xU64BtH375EHKZQTkDiY1S2sgCrcMSseW76v43sdd0PxScSyK4iwyuldFKShmFbUB1vkHWHa1Q85jkJP1rmVU8AhTele_?></g></svg>