<svg xmlns="http://www.w3.org/2000/svg" xmlns:xlink="http://www.w3.org/1999/xlink" version="1.1" data-diagram-type="SEQUENCE" style="width:2878px;height:1986px;background:#FFFFFF;" width="2878px" height="1986px" viewBox="0 0 2878 1986" zoomAndPan="magnify" preserveAspectRatio="none" contentStyleType="text/css"><?plantuml 1.2026.8?><defs/><g font-family="sans-serif" lengthAdjust="spacing"><g class="title" data-source-line="4"><text x="1038.833" y="27.995" fill="#000" font-size="14" textLength="798.861" font-weight="700">Import chain (gontroller): every participant is a chain step (own goroutine), every arrow is a channel</text></g><rect x="443.216" y="48.297" width="803.394" height="1923.648" fill="#E0FFFF" style="stroke:#181818;stroke-width:0.5;"/><text x="749.701" y="60.364" fill="#000" font-size="13" textLength="190.423" font-weight="700">groups (switch by source)</text><rect x="2054.167" y="48.297" width="258.287" height="1923.648" fill="#FFFFE0" style="stroke:#181818;stroke-width:0.5;"/><text x="2085.595" y="60.364" fill="#000" font-size="13" textLength="195.432" font-weight="700">transcode (switch by kind)</text><rect x="13" y="187.156" width="475.563" height="106.531" fill="none" style="stroke:#000;stroke-width:1.5;"/><rect x="456.563" y="311.688" width="857.364" height="353.07" fill="none" style="stroke:#000;stroke-width:1.5;"/><rect x="1281.927" y="727.023" width="313.466" height="117.203" fill="none" style="stroke:#000;stroke-width:1.5;"/><rect x="1927.71" y="1037.156" width="659.689" height="133.531" fill="none" style="stroke:#000;stroke-width:1.5;"/><rect x="2067.514" y="1188.688" width="416.458" height="239.539" fill="none" style="stroke:#000;stroke-width:1.5;"/><g><title>fswalker</title><rect x="205.162" y="132.023" width="8" height="1769.328" fill="#000" fill-opacity="0"/><line x1="208.662" y1="132.023" x2="208.662" y2="1901.352" style="stroke:#181818;stroke-width:0.5;stroke-dasharray:5,5;"/></g><g><title>switch</title><rect x="469.063" y="132.023" width="8" height="1769.328" fill="#000" fill-opacity="0"/><line x1="472.563" y1="132.023" x2="472.563" y2="1901.352" style="stroke:#181818;stroke-width:0.5;stroke-dasharray:5,5;"/></g><g><title>generic</title><rect x="539.909" y="132.023" width="8" height="1769.328" fill="#000" fill-opacity="0"/><line x1="543.409" y1="132.023" x2="543.409" y2="1901.352" style="stroke:#181818;stroke-width:0.5;stroke-dasharray:5,5;"/></g><g><title>Apple Photos</title><rect x="898.529" y="132.023" width="8" height="1769.328" fill="#000" fill-opacity="0"/><line x1="902.029" y1="132.023" x2="902.029" y2="1901.352" style="stroke:#181818;stroke-width:0.5;stroke-dasharray:5,5;"/></g><g><title>files gate</title><rect x="1294.427" y="132.023" width="8" height="1769.328" fill="#000" fill-opacity="0"/><line x1="1297.927" y1="132.023" x2="1297.927" y2="1901.352" style="stroke:#181818;stroke-width:0.5;stroke-dasharray:5,5;"/></g><g><title>exif</title><rect x="1383.438" y="132.023" width="8" height="1769.328" fill="#000" fill-opacity="0"/><line x1="1386.938" y1="132.023" x2="1386.938" y2="1901.352" style="stroke:#181818;stroke-width:0.5;stroke-dasharray:5,5;"/></g><g><title>mime</title><rect x="1623.782" y="132.023" width="8" height="1769.328" fill="#000" fill-opacity="0"/><line x1="1627.282" y1="132.023" x2="1627.282" y2="1901.352" style="stroke:#181818;stroke-width:0.5;stroke-dasharray:5,5;"/></g><g><title>validator</title><rect x="1940.21" y="132.023" width="8" height="1769.328" fill="#000" fill-opacity="0"/><line x1="1943.71" y1="132.023" x2="1943.71" y2="1901.352" style="stroke:#181818;stroke-width:0.5;stroke-dasharray:5,5;"/></g><g><title>switch</title><rect x="2080.014" y="132.023" width="8" height="1769.328" fill="#000" fill-opacity="0"/><line x1="2083.514" y1="132.023" x2="2083.514" y2="1901.352" style="stroke:#181818;stroke-width:0.5;stroke-dasharray:5,5;"/></g><g><title>photo</title><rect x="2138.551" y="132.023" width="8" height="1769.328" fill="#000" fill-opacity="0"/><line x1="2142.051" y1="132.023" x2="2142.051" y2="1901.352" style="stroke:#181818;stroke-width:0.5;stroke-dasharray:5,5;"/></g><g><title>video</title><rect x="2193.861" y="132.023" width="8" height="1769.328" fill="#000" fill-opacity="0"/><line x1="2197.361" y1="132.023" x2="2197.361" y2="1901.352" style="stroke:#181818;stroke-width:0.5;stroke-dasharray:5,5;"/></g><g><title>Live Photo</title><rect x="2265.468" y="132.023" width="8" height="1769.328" fill="#000" fill-opacity="0"/><line x1="2268.968" y1="132.023" x2="2268.968" y2="1901.352" style="stroke:#181818;stroke-width:0.5;stroke-dasharray:5,5;"/></g><g><title>plugins</title><rect x="2464.473" y="132.023" width="8" height="1769.328" fill="#000" fill-opacity="0"/><line x1="2467.973" y1="132.023" x2="2467.973" y2="1901.352" style="stroke:#181818;stroke-width:0.5;stroke-dasharray:5,5;"/></g><g><title>DB</title><rect x="2567.899" y="132.023" width="8" height="1769.328" fill="#000" fill-opacity="0"/><line x1="2571.399" y1="132.023" x2="2571.399" y2="1901.352" style="stroke:#181818;stroke-width:0.5;stroke-dasharray:5,5;"/></g><g><title>closer</title><rect x="2666.345" y="132.023" width="8" height="1769.328" fill="#000" fill-opacity="0"/><line x1="2669.845" y1="132.023" x2="2669.845" y2="1901.352" style="stroke:#181818;stroke-width:0.5;stroke-dasharray:5,5;"/></g><text x="176.353" y="112.425" fill="#000" font-size="14" textLength="58.618">fswalker</text><text x="161.615" y="128.722" fill="#000" font-size="14" textLength="88.095">(entry point)</text><ellipse cx="208.662" cy="83.43" rx="12" ry="12" fill="#E2E2F0" style="stroke:#181818;stroke-width:0.5;"/><polygon points="204.662,71.43,210.662,66.43,208.662,71.43,210.662,76.43,204.662,71.43" fill="#181818" style="stroke:#181818;stroke-width:1;stroke-linejoin:miter;stroke-miterlimit:10;"/><text x="447.216" y="128.722" fill="#000" font-size="14" textLength="44.693">switch</text><ellipse cx="472.563" cy="99.727" rx="12" ry="12" fill="#E2E2F0" style="stroke:#181818;stroke-width:0.5;"/><polygon points="468.563,87.727,474.563,82.727,472.563,87.727,474.563,92.727,468.563,87.727" fill="#181818" style="stroke:#181818;stroke-width:1;stroke-linejoin:miter;stroke-miterlimit:10;"/><text x="514.244" y="128.722" fill="#000" font-size="14" textLength="52.329">generic</text><ellipse cx="543.409" cy="99.727" rx="12" ry="12" fill="#E2E2F0" style="stroke:#181818;stroke-width:0.5;"/><polygon points="539.409,87.727,545.409,82.727,543.409,87.727,545.409,92.727,539.409,87.727" fill="#181818" style="stroke:#181818;stroke-width:1;stroke-linejoin:miter;stroke-miterlimit:10;"/><text x="853.263" y="128.722" fill="#000" font-size="14" textLength="91.533">Apple Photos</text><ellipse cx="902.029" cy="99.727" rx="12" ry="12" fill="#E2E2F0" style="stroke:#181818;stroke-width:0.5;"/><polygon points="898.029,87.727,904.029,82.727,902.029,87.727,904.029,92.727,898.029,87.727" fill="#181818" style="stroke:#181818;stroke-width:1;stroke-linejoin:miter;stroke-miterlimit:10;"/><text x="1262.61" y="128.722" fill="#000" font-size="14" textLength="64.634">files gate</text><ellipse cx="1297.927" cy="99.727" rx="12" ry="12" fill="#90EE90" style="stroke:#181818;stroke-width:0.5;"/><polygon points="1293.927,87.727,1299.927,82.727,1297.927,87.727,1299.927,92.727,1293.927,87.727" fill="#181818" style="stroke:#181818;stroke-width:1;stroke-linejoin:miter;stroke-miterlimit:10;"/><text x="1371.08" y="112.425" fill="#000" font-size="14" textLength="25.717">exif</text><text x="1343.244" y="128.722" fill="#000" font-size="14" textLength="81.389">(N workers)</text><ellipse cx="1386.938" cy="83.43" rx="12" ry="12" fill="#E2E2F0" style="stroke:#181818;stroke-width:0.5;"/><polygon points="1382.938,71.43,1388.938,66.43,1386.938,71.43,1388.938,76.43,1382.938,71.43" fill="#181818" style="stroke:#181818;stroke-width:1;stroke-linejoin:miter;stroke-miterlimit:10;"/><text x="1604.393" y="128.722" fill="#000" font-size="14" textLength="39.778">mime</text><ellipse cx="1627.282" cy="99.727" rx="12" ry="12" fill="#E2E2F0" style="stroke:#181818;stroke-width:0.5;"/><polygon points="1623.282,87.727,1629.282,82.727,1627.282,87.727,1629.282,92.727,1623.282,87.727" fill="#181818" style="stroke:#181818;stroke-width:1;stroke-linejoin:miter;stroke-miterlimit:10;"/><text x="1909.75" y="128.722" fill="#000" font-size="14" textLength="61.92">validator</text><ellipse cx="1943.71" cy="99.727" rx="12" ry="12" fill="#90EE90" style="stroke:#181818;stroke-width:0.5;"/><polygon points="1939.71,87.727,1945.71,82.727,1943.71,87.727,1945.71,92.727,1939.71,87.727" fill="#181818" style="stroke:#181818;stroke-width:1;stroke-linejoin:miter;stroke-miterlimit:10;"/><text x="2058.167" y="128.722" fill="#000" font-size="14" textLength="44.693">switch</text><ellipse cx="2083.514" cy="99.727" rx="12" ry="12" fill="#E2E2F0" style="stroke:#181818;stroke-width:0.5;"/><polygon points="2079.514,87.727,2085.514,82.727,2083.514,87.727,2085.514,92.727,2079.514,87.727" fill="#181818" style="stroke:#181818;stroke-width:1;stroke-linejoin:miter;stroke-miterlimit:10;"/><text x="2118.861" y="128.722" fill="#000" font-size="14" textLength="40.38">photo</text><ellipse cx="2142.051" cy="99.727" rx="12" ry="12" fill="#E2E2F0" style="stroke:#181818;stroke-width:0.5;"/><polygon points="2138.051,87.727,2144.051,82.727,2142.051,87.727,2144.051,92.727,2138.051,87.727" fill="#181818" style="stroke:#181818;stroke-width:1;stroke-linejoin:miter;stroke-miterlimit:10;"/><text x="2175.241" y="128.722" fill="#000" font-size="14" textLength="38.24">video</text><ellipse cx="2197.361" cy="99.727" rx="12" ry="12" fill="#E2E2F0" style="stroke:#181818;stroke-width:0.5;"/><polygon points="2193.361,87.727,2199.361,82.727,2197.361,87.727,2199.361,92.727,2193.361,87.727" fill="#181818" style="stroke:#181818;stroke-width:1;stroke-linejoin:miter;stroke-miterlimit:10;"/><text x="2229.481" y="128.722" fill="#000" font-size="14" textLength="72.974">Live Photo</text><ellipse cx="2268.968" cy="99.727" rx="12" ry="12" fill="#E2E2F0" style="stroke:#181818;stroke-width:0.5;"/><polygon points="2264.968,87.727,2270.968,82.727,2268.968,87.727,2270.968,92.727,2264.968,87.727" fill="#181818" style="stroke:#181818;stroke-width:1;stroke-linejoin:miter;stroke-miterlimit:10;"/><text x="2439.676" y="112.425" fill="#000" font-size="14" textLength="50.593">plugins</text><text x="2392.546" y="128.722" fill="#000" font-size="14" textLength="144.854">(core, then external)</text><ellipse cx="2467.973" cy="83.43" rx="12" ry="12" fill="#E2E2F0" style="stroke:#181818;stroke-width:0.5;"/><polygon points="2463.973,71.43,2469.973,66.43,2467.973,71.43,2469.973,76.43,2463.973,71.43" fill="#181818" style="stroke:#181818;stroke-width:1;stroke-linejoin:miter;stroke-miterlimit:10;"/><text x="2558.207" y="128.722" fill="#000" font-size="14" textLength="20.385">DB</text><path d="M2553.399,79.727 C2553.399,69.727 2571.399,69.727 2571.399,69.727 C2571.399,69.727 2589.399,69.727 2589.399,79.727 L2589.399,105.727 C2589.399,115.727 2571.399,115.727 2571.399,115.727 C2571.399,115.727 2553.399,115.727 2553.399,105.727 L2553.399,79.727" style="stroke:#181818;stroke-width:0.5;" fill="#E2E2F0"/><path d="M2553.399,79.727 C2553.399,89.727 2571.399,89.727 2571.399,89.727 C2571.399,89.727 2589.399,89.727 2589.399,79.727" style="stroke:#181818;stroke-width:0.5;" fill="none"/><text x="2645.937" y="128.722" fill="#000" font-size="14" textLength="41.815">closer</text><ellipse cx="2669.845" cy="99.727" rx="12" ry="12" fill="#E2E2F0" style="stroke:#181818;stroke-width:0.5;"/><polygon points="2665.845,87.727,2671.845,82.727,2669.845,87.727,2671.845,92.727,2665.845,87.727" fill="#181818" style="stroke:#181818;stroke-width:1;stroke-linejoin:miter;stroke-miterlimit:10;"/><text x="176.353" y="1914.347" fill="#000" font-size="14" textLength="58.618">fswalker</text><text x="161.615" y="1930.644" fill="#000" font-size="14" textLength="88.095">(entry point)</text><ellipse cx="208.662" cy="1949.945" rx="12" ry="12" fill="#E2E2F0" style="stroke:#181818;stroke-width:0.5;"/><polygon points="204.662,1937.945,210.662,1932.945,208.662,1937.945,210.662,1942.945,204.662,1937.945" fill="#181818" style="stroke:#181818;stroke-width:1;stroke-linejoin:miter;stroke-miterlimit:10;"/><text x="447.216" y="1914.347" fill="#000" font-size="14" textLength="44.693">switch</text><ellipse cx="472.563" cy="1933.648" rx="12" ry="12" fill="#E2E2F0" style="stroke:#181818;stroke-width:0.5;"/><polygon points="468.563,1921.648,474.563,1916.648,472.563,1921.648,474.563,1926.648,468.563,1921.648" fill="#181818" style="stroke:#181818;stroke-width:1;stroke-linejoin:miter;stroke-miterlimit:10;"/><text x="514.244" y="1914.347" fill="#000" font-size="14" textLength="52.329">generic</text><ellipse cx="543.409" cy="1933.648" rx="12" ry="12" fill="#E2E2F0" style="stroke:#181818;stroke-width:0.5;"/><polygon points="539.409,1921.648,545.409,1916.648,543.409,1921.648,545.409,1926.648,539.409,1921.648" fill="#181818" style="stroke:#181818;stroke-width:1;stroke-linejoin:miter;stroke-miterlimit:10;"/><text x="853.263" y="1914.347" fill="#000" font-size="14" textLength="91.533">Apple Photos</text><ellipse cx="902.029" cy="1933.648" rx="12" ry="12" fill="#E2E2F0" style="stroke:#181818;stroke-width:0.5;"/><polygon points="898.029,1921.648,904.029,1916.648,902.029,1921.648,904.029,1926.648,898.029,1921.648" fill="#181818" style="stroke:#181818;stroke-width:1;stroke-linejoin:miter;stroke-miterlimit:10;"/><text x="1262.61" y="1914.347" fill="#000" font-size="14" textLength="64.634">files gate</text><ellipse cx="1297.927" cy="1933.648" rx="12" ry="12" fill="#90EE90" style="stroke:#181818;stroke-width:0.5;"/><polygon points="1293.927,1921.648,1299.927,1916.648,1297.927,1921.648,1299.927,1926.648,1293.927,1921.648" fill="#181818" style="stroke:#181818;stroke-width:1;stroke-linejoin:miter;stroke-miterlimit:10;"/><text x="1371.08" y="1914.347" fill="#000" font-size="14" textLength="25.717">exif</text><text x="1343.244" y="1930.644" fill="#000" font-size="14" textLength="81.389">(N workers)</text><ellipse cx="1386.938" cy="1949.945" rx="12" ry="12" fill="#E2E2F0" style="stroke:#181818;stroke-width:0.5;"/><polygon points="1382.938,1937.945,1388.938,1932.945,1386.938,1937.945,1388.938,1942.945,1382.938,1937.945" fill="#181818" style="stroke:#181818;stroke-width:1;stroke-linejoin:miter;stroke-miterlimit:10;"/><text x="1604.393" y="1914.347" fill="#000" font-size="14" textLength="39.778">mime</text><ellipse cx="1627.282" cy="1933.648" rx="12" ry="12" fill="#E2E2F0" style="stroke:#181818;stroke-width:0.5;"/><polygon points="1623.282,1921.648,1629.282,1916.648,1627.282,1921.648,1629.282,1926.648,1623.282,1921.648" fill="#181818" style="stroke:#181818;stroke-width:1;stroke-linejoin:miter;stroke-miterlimit:10;"/><text x="1909.75" y="1914.347" fill="#000" font-size="14" textLength="61.92">validator</text><ellipse cx="1943.71" cy="1933.648" rx="12" ry="12" fill="#90EE90" style="stroke:#181818;stroke-width:0.5;"/><polygon points="1939.71,1921.648,1945.71,1916.648,1943.71,1921.648,1945.71,1926.648,1939.71,1921.648" fill="#181818" style="stroke:#181818;stroke-width:1;stroke-linejoin:miter;stroke-miterlimit:10;"/><text x="2058.167" y="1914.347" fill="#000" font-size="14" textLength="44.693">switch</text><ellipse cx="2083.514" cy="1933.648" rx="12" ry="12" fill="#E2E2F0" style="stroke:#181818;stroke-width:0.5;"/><polygon points="2079.514,1921.648,2085.514,1916.648,2083.514,1921.648,2085.514,1926.648,2079.514,1921.648" fill="#181818" style="stroke:#181818;stroke-width:1;stroke-linejoin:miter;stroke-miterlimit:10;"/><text x="2118.861" y="1914.347" fill="#000" font-size="14" textLength="40.38">photo</text><ellipse cx="2142.051" cy="1933.648" rx="12" ry="12" fill="#E2E2F0" style="stroke:#181818;stroke-width:0.5;"/><polygon points="2138.051,1921.648,2144.051,1916.648,2142.051,1921.648,2144.051,1926.648,2138.051,1921.648" fill="#181818" style="stroke:#181818;stroke-width:1;stroke-linejoin:miter;stroke-miterlimit:10;"/><text x="2175.241" y="1914.347" fill="#000" font-size="14" textLength="38.24">video</text><ellipse cx="2197.361" cy="1933.648" rx="12" ry="12" fill="#E2E2F0" style="stroke:#181818;stroke-width:0.5;"/><polygon points="2193.361,1921.648,2199.361,1916.648,2197.361,1921.648,2199.361,1926.648,2193.361,1921.648" fill="#181818" style="stroke:#181818;stroke-width:1;stroke-linejoin:miter;stroke-miterlimit:10;"/><text x="2229.481" y="1914.347" fill="#000" font-size="14" textLength="72.974">Live Photo</text><ellipse cx="2268.968" cy="1933.648" rx="12" ry="12" fill="#E2E2F0" style="stroke:#181818;stroke-width:0.5;"/><polygon points="2264.968,1921.648,2270.968,1916.648,2268.968,1921.648,2270.968,1926.648,2264.968,1921.648" fill="#181818" style="stroke:#181818;stroke-width:1;stroke-linejoin:miter;stroke-miterlimit:10;"/><text x="2439.676" y="1914.347" fill="#000" font-size="14" textLength="50.593">plugins</text><text x="2392.546" y="1930.644" fill="#000" font-size="14" textLength="144.854">(core, then external)</text><ellipse cx="2467.973" cy="1949.945" rx="12" ry="12" fill="#E2E2F0" style="stroke:#181818;stroke-width:0.5;"/><polygon points="2463.973,1937.945,2469.973,1932.945,2467.973,1937.945,2469.973,1942.945,2463.973,1937.945" fill="#181818" style="stroke:#181818;stroke-width:1;stroke-linejoin:miter;stroke-miterlimit:10;"/><text x="2558.207" y="1914.347" fill="#000" font-size="14" textLength="20.385">DB</text><path d="M2553.399,1927.648 C2553.399,1917.648 2571.399,1917.648 2571.399,1917.648 C2571.399,1917.648 2589.399,1917.648 2589.399,1927.648 L2589.399,1953.648 C2589.399,1963.648 2571.399,1963.648 2571.399,1963.648 C2571.399,1963.648 2553.399,1963.648 2553.399,1953.648 L2553.399,1927.648" style="stroke:#181818;stroke-width:0.5;" fill="#E2E2F0"/><path d="M2553.399,1927.648 C2553.399,1937.648 2571.399,1937.648 2571.399,1937.648 C2571.399,1937.648 2589.399,1937.648 2589.399,1927.648" style="stroke:#181818;stroke-width:0.5;" fill="none"/><text x="2645.937" y="1914.347" fill="#000" font-size="14" textLength="41.815">closer</text><ellipse cx="2669.845" cy="1933.648" rx="12" ry="12" fill="#E2E2F0" style="stroke:#181818;stroke-width:0.5;"/><polygon points="2665.845,1921.648,2671.845,1916.648,2669.845,1921.648,2671.845,1926.648,2665.845,1921.648" fill="#181818" style="stroke:#181818;stroke-width:1;stroke-linejoin:miter;stroke-miterlimit:10;"/><rect x="10" y="160.59" width="2857.528" height="3" fill="#EEE" style="stroke:#EEE;stroke-width:1;"/><line x1="10" y1="160.59" x2="2867.528" y2="160.59" style="stroke:#000;stroke-width:1;"/><line x1="10" y1="163.59" x2="2867.528" y2="163.59" style="stroke:#000;stroke-width:1;"/><rect x="1193.692" y="150.023" width="490.144" height="23.133" fill="#EEE" style="stroke:#000;stroke-width:2;"/><text x="1199.692" y="166.09" fill="#000" font-size="13" textLength="471.618" font-weight="700">files flow in; groups flow out one by one, steps run concurrently</text><path d="M13,187.156 L89.624,187.156 L89.624,194.289 L79.624,204.289 L13,204.289 L13,187.156" style="stroke:#000;stroke-width:1.5;" fill="#EEE"/><rect x="13" y="187.156" width="475.563" height="106.531" fill="none" style="stroke:#000;stroke-width:1.5;"/><text x="28" y="200.223" fill="#000" font-size="13" textLength="31.624" font-weight="700">loop</text><text x="104.624" y="199.367" fill="#000" font-size="11" textLength="162.615" font-weight="700">[every file under the root]</text><polygon points="460.563,231.422,470.563,235.422,460.563,239.422,464.563,235.422" fill="#181818" style="stroke:#181818;stroke-width:1;stroke-linejoin:miter;stroke-miterlimit:10;"/><line x1="208.662" y1="235.422" x2="466.563" y2="235.422" style="stroke:#181818;stroke-width:1;"/><text x="215.662" y="230.356" fill="#000" font-size="13" textLength="96.827">file (path, stat)</text><path d="M34,248.422 L34,288.422 L203,288.422 L203,258.422 L193,248.422 L34,248.422" style="stroke:#181818;stroke-width:0.5;" fill="#FEFFDD"/><path d="M193,248.422 L193,258.422 L203,258.422 L193,248.422" style="stroke:#181818;stroke-width:0.5;" fill="#FEFFDD"/><text x="40" y="265.489" fill="#000" font-size="13" textLength="142.099">Unreadable directory:</text><text x="40" y="280.622" fill="#000" font-size="13" textLength="148.662">skipped, recorded (V1)</text><path d="M456.563,311.688 L521.006,311.688 L521.006,318.82 L511.006,328.82 L456.563,328.82 L456.563,311.688" style="stroke:#000;stroke-width:1.5;" fill="#EEE"/><rect x="456.563" y="311.688" width="857.364" height="353.07" fill="none" style="stroke:#000;stroke-width:1.5;"/><text x="471.563" y="324.754" fill="#000" font-size="13" textLength="19.443" font-weight="700">alt</text><text x="536.006" y="323.898" fill="#000" font-size="11" textLength="81.426" font-weight="700">[plain folder]</text><polygon points="531.409,355.953,541.409,359.953,531.409,363.953,535.409,359.953" fill="#181818" style="stroke:#181818;stroke-width:1;stroke-linejoin:miter;stroke-miterlimit:10;"/><line x1="472.563" y1="359.953" x2="537.409" y2="359.953" style="stroke:#181818;stroke-width:1;"/><text x="479.563" y="354.887" fill="#000" font-size="13" textLength="19.798">file</text><line x1="543.409" y1="404.219" x2="585.409" y2="404.219" style="stroke:#181818;stroke-width:1;"/><line x1="585.409" y1="404.219" x2="585.409" y2="417.219" style="stroke:#181818;stroke-width:1;"/><line x1="544.409" y1="417.219" x2="585.409" y2="417.219" style="stroke:#181818;stroke-width:1;"/><polygon points="554.409,413.219,544.409,417.219,554.409,421.219,550.409,417.219" fill="#181818" style="stroke:#181818;stroke-width:1;stroke-linejoin:miter;stroke-miterlimit:10;"/><text x="550.409" y="384.02" fill="#000" font-size="13" textLength="243.667">sidecars by name, next to each other</text><text x="550.409" y="399.153" fill="#000" font-size="13" textLength="344.621">(buffer: one open group; a complete group goes out)</text><polygon points="1285.927,442.352,1295.927,446.352,1285.927,450.352,1289.927,446.352" fill="#181818" style="stroke:#181818;stroke-width:1;stroke-linejoin:miter;stroke-miterlimit:10;"/><line x1="543.409" y1="446.352" x2="1291.927" y2="446.352" style="stroke:#181818;stroke-width:1;"/><text x="550.409" y="441.286" fill="#000" font-size="13" textLength="38.042">group</text><line x1="456.563" y1="455.352" x2="1313.927" y2="455.352" style="stroke:#000;stroke-width:1;stroke-dasharray:2,2;"/><text x="461.563" y="467.562" fill="#000" font-size="11" textLength="144.552" font-weight="700">[inside *.photoslibrary]</text><polygon points="890.029,490.289,900.029,494.289,890.029,498.289,894.029,494.289" fill="#181818" style="stroke:#181818;stroke-width:1;stroke-linejoin:miter;stroke-miterlimit:10;"/><line x1="472.563" y1="494.289" x2="896.029" y2="494.289" style="stroke:#181818;stroke-width:1;"/><text x="479.563" y="489.223" fill="#000" font-size="13" textLength="19.798">file</text><line x1="902.029" y1="553.688" x2="944.029" y2="553.688" style="stroke:#181818;stroke-width:1;"/><line x1="944.029" y1="553.688" x2="944.029" y2="566.688" style="stroke:#181818;stroke-width:1;"/><line x1="903.029" y1="566.688" x2="944.029" y2="566.688" style="stroke:#181818;stroke-width:1;"/><polygon points="913.029,562.688,903.029,566.688,913.029,570.688,909.029,566.688" fill="#181818" style="stroke:#181818;stroke-width:1;stroke-linejoin:miter;stroke-miterlimit:10;"/><text x="909.029" y="518.356" fill="#000" font-size="13" textLength="248.485">first file: asset links from Photos.sqlite</text><text x="909.029" y="533.489" fill="#000" font-size="13" textLength="326.581">(original, render, Live Photo video); buffer of open</text><text x="909.029" y="548.622" fill="#000" font-size="13" textLength="322.975">groups, a group goes out when all its files arrived</text><polygon points="1285.927,591.82,1295.927,595.82,1285.927,599.82,1289.927,595.82" fill="#181818" style="stroke:#181818;stroke-width:1;stroke-linejoin:miter;stroke-miterlimit:10;"/><line x1="902.029" y1="595.82" x2="1291.927" y2="595.82" style="stroke:#181818;stroke-width:1;"/><text x="909.029" y="590.754" fill="#000" font-size="13" textLength="123.932">group (asset UUID)</text><line x1="456.563" y1="604.82" x2="1313.927" y2="604.82" style="stroke:#000;stroke-width:1;stroke-dasharray:2,2;"/><text x="461.563" y="617.031" fill="#000" font-size="11" textLength="180.651" font-weight="700">[other formats (Takeout, ...)]</text><line x1="472.563" y1="643.758" x2="514.563" y2="643.758" style="stroke:#181818;stroke-width:1;"/><line x1="514.563" y1="643.758" x2="514.563" y2="656.758" style="stroke:#181818;stroke-width:1;"/><line x1="485.563" y1="656.758" x2="514.563" y2="656.758" style="stroke:#181818;stroke-width:1;"/><line x1="478.563" y1="651.758" x2="488.563" y2="661.758" style="stroke:#181818;stroke-width:2;"/><line x1="478.563" y1="661.758" x2="488.563" y2="651.758" style="stroke:#181818;stroke-width:2;"/><text x="479.563" y="638.692" fill="#000" font-size="13" textLength="30.018">later</text><polygon points="2559.399,711.023,2569.399,715.023,2559.399,719.023,2563.399,715.023" fill="#181818" style="stroke:#181818;stroke-width:1;stroke-linejoin:miter;stroke-miterlimit:10;"/><line x1="1297.927" y1="715.023" x2="2565.399" y2="715.023" style="stroke:#181818;stroke-width:1;"/><text x="1304.927" y="694.825" fill="#000" font-size="13" textLength="115.426">stat vs files table,</text><text x="1304.927" y="709.958" fill="#000" font-size="13" textLength="153.658">CheckTime of every file</text><path d="M1281.927,727.023 L1346.37,727.023 L1346.37,734.156 L1336.37,744.156 L1281.927,744.156 L1281.927,727.023" style="stroke:#000;stroke-width:1.5;" fill="#EEE"/><rect x="1281.927" y="727.023" width="313.466" height="117.203" fill="none" style="stroke:#000;stroke-width:1.5;"/><text x="1296.927" y="740.09" fill="#000" font-size="13" textLength="19.443" font-weight="700">alt</text><text x="1361.37" y="739.234" fill="#000" font-size="11" textLength="218.023" font-weight="700">[unchanged and the item is Ready]</text><line x1="1297.927" y1="775.289" x2="1339.927" y2="775.289" style="stroke:#181818;stroke-width:1;"/><line x1="1339.927" y1="775.289" x2="1339.927" y2="788.289" style="stroke:#181818;stroke-width:1;"/><line x1="1310.927" y1="788.289" x2="1339.927" y2="788.289" style="stroke:#181818;stroke-width:1;"/><line x1="1303.927" y1="783.289" x2="1313.927" y2="793.289" style="stroke:#181818;stroke-width:2;"/><line x1="1303.927" y1="793.289" x2="1313.927" y2="783.289" style="stroke:#181818;stroke-width:2;"/><text x="1304.927" y="770.223" fill="#000" font-size="13" textLength="29.802">drop</text><line x1="1281.927" y1="797.289" x2="1595.393" y2="797.289" style="stroke:#000;stroke-width:1;stroke-dasharray:2,2;"/><text x="1286.927" y="809.5" fill="#000" font-size="11" textLength="174.55" font-weight="700">[new / changed / not Ready]</text><polygon points="1374.938,832.227,1384.938,836.227,1374.938,840.227,1378.938,836.227" fill="#181818" style="stroke:#181818;stroke-width:1;stroke-linejoin:miter;stroke-miterlimit:10;"/><line x1="1297.927" y1="836.227" x2="1380.938" y2="836.227" style="stroke:#181818;stroke-width:1;"/><text x="1304.927" y="831.161" fill="#000" font-size="13" textLength="38.042">group</text><polygon points="1615.282,875.359,1625.282,879.359,1615.282,883.359,1619.282,879.359" fill="#181818" style="stroke:#181818;stroke-width:1;stroke-linejoin:miter;stroke-miterlimit:10;"/><line x1="1386.938" y1="879.359" x2="1621.282" y2="879.359" style="stroke:#181818;stroke-width:1;"/><text x="1393.938" y="874.293" fill="#000" font-size="13" textLength="81.079">group + exif</text><line x1="1627.282" y1="938.758" x2="1669.282" y2="938.758" style="stroke:#181818;stroke-width:1;"/><line x1="1669.282" y1="938.758" x2="1669.282" y2="951.758" style="stroke:#181818;stroke-width:1;"/><line x1="1628.282" y1="951.758" x2="1669.282" y2="951.758" style="stroke:#181818;stroke-width:1;"/><polygon points="1638.282,947.758,1628.282,951.758,1638.282,955.758,1634.282,951.758" fill="#181818" style="stroke:#181818;stroke-width:1;stroke-linejoin:miter;stroke-miterlimit:10;"/><text x="1634.282" y="903.426" fill="#000" font-size="13" textLength="109.084">kind of every file</text><text x="1634.282" y="918.559" fill="#000" font-size="13" textLength="302.428">(exif FileType/MIMEType, own extension table,</text><text x="1634.282" y="933.692" fill="#000" font-size="13" textLength="189.021">content sniff), rank: main file</text><polygon points="1931.71,976.891,1941.71,980.891,1931.71,984.891,1935.71,980.891" fill="#181818" style="stroke:#181818;stroke-width:1;stroke-linejoin:miter;stroke-miterlimit:10;"/><line x1="1627.282" y1="980.891" x2="1937.71" y2="980.891" style="stroke:#181818;stroke-width:1;"/><text x="1634.282" y="975.825" fill="#000" font-size="13" textLength="87.502">ranked group</text><polygon points="2559.399,1021.156,2569.399,1025.156,2559.399,1029.156,2563.399,1025.156" fill="#181818" style="stroke:#181818;stroke-width:1;stroke-linejoin:miter;stroke-miterlimit:10;"/><line x1="1943.71" y1="1025.156" x2="2565.399" y2="1025.156" style="stroke:#181818;stroke-width:1;"/><text x="1950.71" y="1004.958" fill="#000" font-size="13" textLength="138.271">hash of the main file:</text><text x="1950.71" y="1020.09" fill="#000" font-size="13" textLength="234.165">same / changed / moved / duplicate</text><path d="M1927.71,1037.156 L1992.153,1037.156 L1992.153,1044.289 L1982.153,1054.289 L1927.71,1054.289 L1927.71,1037.156" style="stroke:#000;stroke-width:1.5;" fill="#EEE"/><rect x="1927.71" y="1037.156" width="659.689" height="133.531" fill="none" style="stroke:#000;stroke-width:1.5;"/><text x="1942.71" y="1050.223" fill="#000" font-size="13" textLength="19.443" font-weight="700">alt</text><text x="2007.153" y="1049.367" fill="#000" font-size="11" textLength="272.707" font-weight="700">[moved and outputs for the GUID complete]</text><polygon points="2559.399,1081.422,2569.399,1085.422,2559.399,1089.422,2563.399,1085.422" fill="#181818" style="stroke:#181818;stroke-width:1;stroke-linejoin:miter;stroke-miterlimit:10;"/><line x1="1943.71" y1="1085.422" x2="2565.399" y2="1085.422" style="stroke:#181818;stroke-width:1;"/><text x="1950.71" y="1080.356" fill="#000" font-size="13" textLength="40.942">Ready</text><line x1="1943.71" y1="1114.555" x2="1985.71" y2="1114.555" style="stroke:#181818;stroke-width:1;"/><line x1="1985.71" y1="1114.555" x2="1985.71" y2="1127.555" style="stroke:#181818;stroke-width:1;"/><line x1="1956.71" y1="1127.555" x2="1985.71" y2="1127.555" style="stroke:#181818;stroke-width:1;"/><line x1="1949.71" y1="1122.555" x2="1959.71" y2="1132.555" style="stroke:#181818;stroke-width:2;"/><line x1="1949.71" y1="1132.555" x2="1959.71" y2="1122.555" style="stroke:#181818;stroke-width:2;"/><text x="1950.71" y="1109.489" fill="#000" font-size="13" textLength="125.804">done, no transcode</text><line x1="1927.71" y1="1136.555" x2="2587.399" y2="1136.555" style="stroke:#000;stroke-width:1;stroke-dasharray:2,2;"/><polygon points="2071.514,1158.688,2081.514,1162.688,2071.514,1166.688,2075.514,1162.688" fill="#181818" style="stroke:#181818;stroke-width:1;stroke-linejoin:miter;stroke-miterlimit:10;"/><line x1="1943.71" y1="1162.688" x2="2077.514" y2="1162.688" style="stroke:#181818;stroke-width:1;"/><text x="1950.71" y="1157.622" fill="#000" font-size="13" textLength="77.08">item (GUID)</text><path d="M2067.514,1188.688 L2131.957,1188.688 L2131.957,1195.82 L2121.957,1205.82 L2067.514,1205.82 L2067.514,1188.688" style="stroke:#000;stroke-width:1.5;" fill="#EEE"/><rect x="2067.514" y="1188.688" width="416.458" height="239.539" fill="none" style="stroke:#000;stroke-width:1.5;"/><text x="2082.514" y="1201.754" fill="#000" font-size="13" textLength="19.443" font-weight="700">alt</text><text x="2146.957" y="1200.898" fill="#000" font-size="11" textLength="46.132" font-weight="700">[photo]</text><polygon points="2130.051,1232.953,2140.051,1236.953,2130.051,1240.953,2134.051,1236.953" fill="#181818" style="stroke:#181818;stroke-width:1;stroke-linejoin:miter;stroke-miterlimit:10;"/><line x1="2083.514" y1="1236.953" x2="2136.051" y2="1236.953" style="stroke:#181818;stroke-width:1;"/><text x="2090.514" y="1231.887" fill="#000" font-size="13" textLength="29.371">item</text><polygon points="2455.973,1262.086,2465.973,1266.086,2455.973,1270.086,2459.973,1266.086" fill="#181818" style="stroke:#181818;stroke-width:1;stroke-linejoin:miter;stroke-miterlimit:10;"/><line x1="2142.051" y1="1266.086" x2="2461.973" y2="1266.086" style="stroke:#181818;stroke-width:1;"/><text x="2149.051" y="1261.02" fill="#000" font-size="13" textLength="121.221">item + thumbnails</text><line x1="2067.514" y1="1275.086" x2="2483.973" y2="1275.086" style="stroke:#000;stroke-width:1;stroke-dasharray:2,2;"/><text x="2072.514" y="1287.296" fill="#000" font-size="11" textLength="43.887" font-weight="700">[video]</text><polygon points="2185.361,1310.023,2195.361,1314.023,2185.361,1318.023,2189.361,1314.023" fill="#181818" style="stroke:#181818;stroke-width:1;stroke-linejoin:miter;stroke-miterlimit:10;"/><line x1="2083.514" y1="1314.023" x2="2191.361" y2="1314.023" style="stroke:#181818;stroke-width:1;"/><text x="2090.514" y="1308.958" fill="#000" font-size="13" textLength="29.371">item</text><polygon points="2455.973,1339.156,2465.973,1343.156,2455.973,1347.156,2459.973,1343.156" fill="#181818" style="stroke:#181818;stroke-width:1;stroke-linejoin:miter;stroke-miterlimit:10;"/><line x1="2197.361" y1="1343.156" x2="2461.973" y2="1343.156" style="stroke:#181818;stroke-width:1;"/><text x="2204.361" y="1338.09" fill="#000" font-size="13" textLength="149.741">item + poster, preview</text><line x1="2067.514" y1="1352.156" x2="2483.973" y2="1352.156" style="stroke:#000;stroke-width:1;stroke-dasharray:2,2;"/><text x="2072.514" y="1364.367" fill="#000" font-size="11" textLength="75.561" font-weight="700">[Live Photo]</text><polygon points="2256.968,1387.094,2266.968,1391.094,2256.968,1395.094,2260.968,1391.094" fill="#181818" style="stroke:#181818;stroke-width:1;stroke-linejoin:miter;stroke-miterlimit:10;"/><line x1="2083.514" y1="1391.094" x2="2262.968" y2="1391.094" style="stroke:#181818;stroke-width:1;"/><text x="2090.514" y="1386.028" fill="#000" font-size="13" textLength="29.371">item</text><polygon points="2455.973,1416.227,2465.973,1420.227,2455.973,1424.227,2459.973,1420.227" fill="#181818" style="stroke:#181818;stroke-width:1;stroke-linejoin:miter;stroke-miterlimit:10;"/><line x1="2268.968" y1="1420.227" x2="2461.973" y2="1420.227" style="stroke:#181818;stroke-width:1;"/><text x="2275.968" y="1415.161" fill="#000" font-size="13" textLength="175.005">item + thumbnails, motion</text><polygon points="2657.845,1459.359,2667.845,1463.359,2657.845,1467.359,2661.845,1463.359" fill="#181818" style="stroke:#181818;stroke-width:1;stroke-linejoin:miter;stroke-miterlimit:10;"/><line x1="2467.973" y1="1463.359" x2="2663.845" y2="1463.359" style="stroke:#181818;stroke-width:1;"/><text x="2474.973" y="1458.293" fill="#000" font-size="13" textLength="111.535">item + metadata</text><polygon points="2582.399,1488.492,2572.399,1492.492,2582.399,1496.492,2578.399,1492.492" fill="#181818" style="stroke:#181818;stroke-width:1;stroke-linejoin:miter;stroke-miterlimit:10;"/><line x1="2576.399" y1="1492.492" x2="2668.845" y2="1492.492" style="stroke:#181818;stroke-width:1;"/><text x="2588.399" y="1487.426" fill="#000" font-size="13" textLength="74.445">item Ready</text><path d="M2674.845,1505.492 L2674.845,1560.492 L2861.845,1560.492 L2861.845,1515.492 L2851.845,1505.492 L2674.845,1505.492" style="stroke:#181818;stroke-width:0.5;" fill="#FEFFDD"/><path d="M2851.845,1505.492 L2851.845,1515.492 L2861.845,1515.492 L2851.845,1505.492" style="stroke:#181818;stroke-width:0.5;" fill="#FEFFDD"/><text x="2680.845" y="1522.559" fill="#000" font-size="13" textLength="155.238">The client gets the item</text><text x="2680.845" y="1537.692" fill="#000" font-size="13" textLength="166.683">with its thumbnails: later,</text><text x="2680.845" y="1552.825" fill="#000" font-size="13" textLength="141.178">but it renders at once</text><rect x="10" y="1586.457" width="2857.528" height="3" fill="#EEE" style="stroke:#EEE;stroke-width:1;"/><line x1="10" y1="1586.457" x2="2867.528" y2="1586.457" style="stroke:#000;stroke-width:1;"/><line x1="10" y1="1589.457" x2="2867.528" y2="1589.457" style="stroke:#000;stroke-width:1;"/><rect x="1387.051" y="1575.891" width="103.426" height="23.133" fill="#EEE" style="stroke:#000;stroke-width:2;"/><text x="1393.051" y="1591.958" fill="#000" font-size="13" textLength="84.9" font-weight="700">end of walk</text><polygon points="460.563,1626.156,470.563,1630.156,460.563,1634.156,464.563,1630.156" fill="#181818" style="stroke:#181818;stroke-width:1;stroke-linejoin:miter;stroke-miterlimit:10;"/><line x1="208.662" y1="1630.156" x2="466.563" y2="1630.156" style="stroke:#181818;stroke-width:1;"/><text x="215.662" y="1625.09" fill="#000" font-size="13" textLength="132.057">marker (walk result)</text><polygon points="531.409,1655.289,541.409,1659.289,531.409,1663.289,535.409,1659.289" fill="#181818" style="stroke:#181818;stroke-width:1;stroke-linejoin:miter;stroke-miterlimit:10;"/><line x1="472.563" y1="1659.289" x2="537.409" y2="1659.289" style="stroke:#181818;stroke-width:1;"/><text x="479.563" y="1654.223" fill="#000" font-size="13" textLength="46.846">marker</text><polygon points="890.029,1655.289,900.029,1659.289,890.029,1663.289,894.029,1659.289" fill="#181818" style="stroke:#181818;stroke-width:1;stroke-linejoin:miter;stroke-miterlimit:10;"/><line x1="472.563" y1="1659.289" x2="896.029" y2="1659.289" style="stroke:#181818;stroke-width:1;"/><text x="479.563" y="1654.223" fill="#000" font-size="13" textLength="46.846">marker</text><path d="M477.563,1672.289 L477.563,1697.289 L670.563,1697.289 L670.563,1682.289 L660.563,1672.289 L477.563,1672.289" style="stroke:#181818;stroke-width:0.5;" fill="#FEFFDD"/><path d="M660.563,1672.289 L660.563,1682.289 L670.563,1682.289 L660.563,1672.289" style="stroke:#181818;stroke-width:0.5;" fill="#FEFFDD"/><text x="483.563" y="1689.356" fill="#000" font-size="13" textLength="172.117">broadcast to every branch</text><polygon points="1285.927,1719.555,1295.927,1723.555,1285.927,1727.555,1289.927,1723.555" fill="#181818" style="stroke:#181818;stroke-width:1;stroke-linejoin:miter;stroke-miterlimit:10;"/><line x1="543.409" y1="1723.555" x2="1291.927" y2="1723.555" style="stroke:#181818;stroke-width:1;"/><text x="550.409" y="1718.489" fill="#000" font-size="13" textLength="127.505">last groups, marker</text><polygon points="1285.927,1748.688,1295.927,1752.688,1285.927,1756.688,1289.927,1752.688" fill="#181818" style="stroke:#181818;stroke-width:1;stroke-linejoin:miter;stroke-miterlimit:10;"/><line x1="902.029" y1="1752.688" x2="1291.927" y2="1752.688" style="stroke:#181818;stroke-width:1;"/><text x="909.029" y="1747.622" fill="#000" font-size="13" textLength="127.505">last groups, marker</text><polygon points="2559.399,1808.086,2569.399,1812.086,2559.399,1816.086,2563.399,1812.086" fill="#181818" style="stroke:#181818;stroke-width:1;stroke-linejoin:miter;stroke-miterlimit:10;"/><line x1="1297.927" y1="1812.086" x2="2565.399" y2="1812.086" style="stroke:#181818;stroke-width:1;"/><text x="1304.927" y="1776.754" fill="#000" font-size="13" textLength="236.66">after the marker from every branch:</text><text x="1304.927" y="1791.887" fill="#000" font-size="13" textLength="276.809">deletions (V2), only after a complete walk,</text><text x="1304.927" y="1807.02" fill="#000" font-size="13" textLength="214.76">not under unreadable directories</text><polygon points="219.662,1837.219,209.662,1841.219,219.662,1845.219,215.662,1841.219" fill="#181818" style="stroke:#181818;stroke-width:1;stroke-linejoin:miter;stroke-miterlimit:10;"/><line x1="213.662" y1="1841.219" x2="2668.845" y2="1841.219" style="stroke:#181818;stroke-width:1;stroke-dasharray:2,2;"/><text x="225.662" y="1836.153" fill="#000" font-size="13" textLength="383.576">the last group of the walk is done (items + errors counted)</text><line x1="208.662" y1="1870.352" x2="250.662" y2="1870.352" style="stroke:#181818;stroke-width:1;"/><line x1="250.662" y1="1870.352" x2="250.662" y2="1883.352" style="stroke:#181818;stroke-width:1;"/><line x1="209.662" y1="1883.352" x2="250.662" y2="1883.352" style="stroke:#181818;stroke-width:1;"/><polygon points="219.662,1879.352,209.662,1883.352,219.662,1887.352,215.662,1883.352" fill="#181818" style="stroke:#181818;stroke-width:1;stroke-linejoin:miter;stroke-miterlimit:10;"/><text x="215.662" y="1865.286" fill="#000" font-size="13" textLength="249.901">rescan pause (1 min), then walk again</text><?plantuml-src VLPTR-is37tth-0wO71sinPtZoawO6tlYWAtmyNGTXZG5yLc4Y6ov4boqjnVFrAKFz84wqiTaQB9myD3_z1wjMuKH7JV8VeEYoBgQ10UczRv2DL6QGlbsjdedJ7ePml07Ve3jCf7NUbMsGWwWCgk8M8BfTjRM3llkgWjpkRvYlBUxGTdQz4KHIMHuM8LzifiqR_P4kc8Nk2qZRCBK07-JfQYMBftk5XJs3P06VOwLXjO7Y2upbT8hZz-rUjDl3ieEyOLjnJc8TqSJMkqw7KbDdaUZR-tBS7mRUEY2yb37WkqDL0UqyormG1h5L4YqKFEvC4ZJbB1TxsYylw4lVDKJv3Ylj3fwDFeHi8yqSDul5D6roewdsol_Q-ZzmWyqIiRAbVZ5A6jjlM0ppzeZDkVHUYvlpnQMovRZ0c1IKwwncnvvSVHybNlCdHYvjzdW6jDjzOs42ILypY7k44B-1xHMsK4d6_YKb2rQga2miNzRJBStuvnAkC22Z9twR4eRcv0sh8oJ3bx3PaswJVn4fn5HeR-pHDf0_ZE0iMiEk-9WUO0DpT5OPnhCtqv87IsHi-PWdSk5a1_maxuvRTCi8LubgsA6uwjuYpvMKV4CBYYTwzwIlFvY_MeQhMaExNsM55V3uja2LlTjbZFWKwThx66ylMp16CqEI33MXJAH6WDpz_AcJh7bMnINa9kIKniSd9a3DJ4Ild0i5ZL42wMcW7H0IgYaQEYUJgNtMg5Vf40T2rrB25xpKFj6fePAZATa00G_WJrxEIDD24BSIhGK5Efm_Hk-FaoaIqOlVJA7puK8VCtgK4EZaq-nEIm8384Z62qtLBJlMkoqsNur-Y8L8VpcgYb3AFBJPt3I5j8t9vTWnJB3UDItwomQ4x57jS8U-QkCWPq39bw97SKiFwGwwHuA2N9bvV7-vaWaK2c9lf6KPpoMMsHei_Xyl9oTep7-y0sGn6zy21f3xta_dQHY0UxFfd8_9g_sRiDLjjdqXQkQUHrOb1dMPRNH3D5x6AE4r8D2_PVHD3S3td3UwwZzYxtqE8Uhg0FSCNaFBsMn6veFMVC1snWkUjX-GIib0KVZIQMiEESULFmxJ_e-VdGujNJuzCNVfW3xnyM4kALiqFjB1WqsH2iNgreAv7ORHVGfB5X3FeN3lAwI2vKZYHSZBgRCTweiE6a6AiXpkBD1XgV8pGQjql_wwurkY8m4k1ooc1JazkEcUD4N1w84iCy9GHFtZs2EpMzJxElaxfP1yDIIBqwZJVe_a9QNZu89GTjIShFrmRFT2tHMkw8LQQ7HrA4EyVxH4LrpT8gROBG9GtOcOXfaqmZfeDp4Lj7iarJsthSQTnBs764pyHcupHqSlxVNEVKeaWK4YIo7r-HFJFSQ30gNb65dFSjIbRfKn9_p-kN-PBNr3DrkZAQERb6wdu_SWLjv4rIaZ6LFEVpOabgesCMBL8PNcMLhDUq47ZteSmAVr6bBNQweXh5do1G9XUFeJEaqsSsXlWLFvqHucmwhgoFl_HErPKAiZ_Ip9Aeay0K9ul0i5Slh3deHxqyvpCLExMAUItdmfBaJzzBKraZJHDrauJrzLUQVsTfoSlDoV9YH4WiMBzasNUd-rbZ65fD6GYyY_J-CTDU61B49A8yZL1oVmDB77qCK_igrv4erRD9Y_fer9LAMVhGxeZOvMTej9tbZwGKKgr9SOh_0000?></g></svg>