<svg xmlns="http://www.w3.org/2000/svg" xmlns:xlink="http://www.w3.org/1999/xlink" version="1.1" data-diagram-type="SEQUENCE" style="width:1290px;height:1404px;background:#FFFFFF;" width="1290px" height="1404px" viewBox="0 0 1290 1404" zoomAndPan="magnify" preserveAspectRatio="none" contentStyleType="text/css"><?plantuml 1.2026.8?><defs/><g font-family="sans-serif" lengthAdjust="spacing"><g><title>User</title><rect x="25.455" y="86.297" width="8" height="1230.711" fill="#000" fill-opacity="0"/><line x1="28.955" y1="86.297" x2="28.955" y2="1317.008" style="stroke:#181818;stroke-width:0.5;stroke-dasharray:5,5;"/></g><g><title>Gallery .</title><rect x="258.858" y="86.297" width="8" height="1230.711" fill="#000" fill-opacity="0"/><line x1="262.358" y1="86.297" x2="262.358" y2="1317.008" style="stroke:#181818;stroke-width:0.5;stroke-dasharray:5,5;"/></g><g><title>SidePanel</title><rect x="546.378" y="86.297" width="8" height="1230.711" fill="#000" fill-opacity="0"/><line x1="549.878" y1="86.297" x2="549.878" y2="1317.008" style="stroke:#181818;stroke-width:0.5;stroke-dasharray:5,5;"/></g><g><title>wlayout</title><rect x="634.301" y="86.297" width="8" height="1230.711" fill="#000" fill-opacity="0"/><line x1="637.801" y1="86.297" x2="637.801" y2="1317.008" style="stroke:#181818;stroke-width:0.5;stroke-dasharray:5,5;"/></g><g><title>layoutDb</title><rect x="923.132" y="86.297" width="8" height="1230.711" fill="#000" fill-opacity="0"/><line x1="926.632" y1="86.297" x2="926.632" y2="1317.008" style="stroke:#181818;stroke-width:0.5;stroke-dasharray:5,5;"/></g><g><title>gontroller</title><rect x="1008.948" y="86.297" width="8" height="1230.711" fill="#000" fill-opacity="0"/><line x1="1012.448" y1="86.297" x2="1012.448" y2="1317.008" style="stroke:#181818;stroke-width:0.5;stroke-dasharray:5,5;"/></g><g><title>Perceptor</title><rect x="1189.399" y="86.297" width="8" height="1230.711" fill="#000" fill-opacity="0"/><line x1="1192.899" y1="86.297" x2="1192.899" y2="1317.008" style="stroke:#181818;stroke-width:0.5;stroke-dasharray:5,5;"/></g><g><title>DB</title><rect x="1258.309" y="86.297" width="8" height="1230.711" fill="#000" fill-opacity="0"/><line x1="1261.809" y1="86.297" x2="1261.809" y2="1317.008" style="stroke:#181818;stroke-width:0.5;stroke-dasharray:5,5;"/></g><text x="10" y="82.995" fill="#000" font-size="14" textLength="31.91">User</text><ellipse cx="28.955" cy="18.5" rx="8" ry="8" fill="#E2E2F0" style="stroke:#181818;stroke-width:0.5;"/><path d="M28.955,26.5 L28.955,53.5 M15.955,34.5 L41.955,34.5 M28.955,53.5 L15.955,68.5 M28.955,53.5 L41.955,68.5" style="stroke:#181818;stroke-width:0.5;" fill="none"/><rect x="225.844" y="38.703" width="73.028" height="46.594" fill="#E2E2F0" style="stroke:#181818;stroke-width:0.5;" rx="2.5" ry="2.5"/><text x="232.844" y="58.698" fill="#000" font-size="14" textLength="59.028">Gallery /</text><text x="238.408" y="74.995" fill="#000" font-size="14" textLength="47.899">Viewer</text><rect x="508.542" y="55" width="82.674" height="30.297" fill="#E2E2F0" style="stroke:#181818;stroke-width:0.5;" rx="2.5" ry="2.5"/><text x="515.542" y="74.995" fill="#000" font-size="14" textLength="68.674">SidePanel</text><rect x="601.215" y="38.703" width="73.172" height="46.594" fill="#E2E2F0" style="stroke:#181818;stroke-width:0.5;" rx="2.5" ry="2.5"/><text x="610.235" y="58.698" fill="#000" font-size="14" textLength="55.132">wlayout</text><text x="608.215" y="74.995" fill="#000" font-size="14" textLength="59.172">(worker)</text><text x="891.958" y="82.995" fill="#000" font-size="14" textLength="63.349">layoutDb</text><path d="M908.632,34 C908.632,24 926.632,24 926.632,24 C926.632,24 944.632,24 944.632,34 L944.632,60 C944.632,70 926.632,70 926.632,70 C926.632,70 908.632,70 908.632,60 L908.632,34" style="stroke:#181818;stroke-width:0.5;" fill="#E2E2F0"/><path d="M908.632,34 C908.632,44 926.632,44 926.632,44 C926.632,44 944.632,44 944.632,34" style="stroke:#181818;stroke-width:0.5;" fill="none"/><rect x="971.306" y="38.703" width="82.284" height="46.594" fill="#E2E2F0" style="stroke:#181818;stroke-width:0.5;" rx="2.5" ry="2.5"/><text x="978.306" y="58.698" fill="#000" font-size="14" textLength="68.284">gontroller</text><text x="1001.374" y="74.995" fill="#000" font-size="14" textLength="22.148">API</text><rect x="1151.989" y="55" width="81.819" height="30.297" fill="#E2E2F0" style="stroke:#181818;stroke-width:0.5;" rx="2.5" ry="2.5"/><text x="1158.989" y="74.995" fill="#000" font-size="14" textLength="67.819">Perceptor</text><text x="1248.616" y="82.995" fill="#000" font-size="14" textLength="20.385">DB</text><path d="M1243.809,34 C1243.809,24 1261.809,24 1261.809,24 C1261.809,24 1279.809,24 1279.809,34 L1279.809,60 C1279.809,70 1261.809,70 1261.809,70 C1261.809,70 1243.809,70 1243.809,60 L1243.809,34" style="stroke:#181818;stroke-width:0.5;" fill="#E2E2F0"/><path d="M1243.809,34 C1243.809,44 1261.809,44 1261.809,44 C1261.809,44 1279.809,44 1279.809,34" style="stroke:#181818;stroke-width:0.5;" fill="none"/><text x="10" y="1330.003" fill="#000" font-size="14" textLength="31.91">User</text><ellipse cx="28.955" cy="1341.805" rx="8" ry="8" fill="#E2E2F0" style="stroke:#181818;stroke-width:0.5;"/><path d="M28.955,1349.805 L28.955,1376.805 M15.955,1357.805 L41.955,1357.805 M28.955,1376.805 L15.955,1391.805 M28.955,1376.805 L41.955,1391.805" style="stroke:#181818;stroke-width:0.5;" fill="none"/><rect x="225.844" y="1317.008" width="73.028" height="46.594" fill="#E2E2F0" style="stroke:#181818;stroke-width:0.5;" rx="2.5" ry="2.5"/><text x="232.844" y="1337.003" fill="#000" font-size="14" textLength="59.028">Gallery /</text><text x="238.408" y="1353.3" fill="#000" font-size="14" textLength="47.899">Viewer</text><rect x="508.542" y="1317.008" width="82.674" height="30.297" fill="#E2E2F0" style="stroke:#181818;stroke-width:0.5;" rx="2.5" ry="2.5"/><text x="515.542" y="1337.003" fill="#000" font-size="14" textLength="68.674">SidePanel</text><rect x="601.215" y="1317.008" width="73.172" height="46.594" fill="#E2E2F0" style="stroke:#181818;stroke-width:0.5;" rx="2.5" ry="2.5"/><text x="610.235" y="1337.003" fill="#000" font-size="14" textLength="55.132">wlayout</text><text x="608.215" y="1353.3" fill="#000" font-size="14" textLength="59.172">(worker)</text><text x="891.958" y="1330.003" fill="#000" font-size="14" textLength="63.349">layoutDb</text><path d="M908.632,1343.305 C908.632,1333.305 926.632,1333.305 926.632,1333.305 C926.632,1333.305 944.632,1333.305 944.632,1343.305 L944.632,1369.305 C944.632,1379.305 926.632,1379.305 926.632,1379.305 C926.632,1379.305 908.632,1379.305 908.632,1369.305 L908.632,1343.305" style="stroke:#181818;stroke-width:0.5;" fill="#E2E2F0"/><path d="M908.632,1343.305 C908.632,1353.305 926.632,1353.305 926.632,1353.305 C926.632,1353.305 944.632,1353.305 944.632,1343.305" style="stroke:#181818;stroke-width:0.5;" fill="none"/><rect x="971.306" y="1317.008" width="82.284" height="46.594" fill="#E2E2F0" style="stroke:#181818;stroke-width:0.5;" rx="2.5" ry="2.5"/><text x="978.306" y="1337.003" fill="#000" font-size="14" textLength="68.284">gontroller</text><text x="1001.374" y="1353.3" fill="#000" font-size="14" textLength="22.148">API</text><rect x="1151.989" y="1317.008" width="81.819" height="30.297" fill="#E2E2F0" style="stroke:#181818;stroke-width:0.5;" rx="2.5" ry="2.5"/><text x="1158.989" y="1337.003" fill="#000" font-size="14" textLength="67.819">Perceptor</text><text x="1248.616" y="1330.003" fill="#000" font-size="14" textLength="20.385">DB</text><path d="M1243.809,1343.305 C1243.809,1333.305 1261.809,1333.305 1261.809,1333.305 C1261.809,1333.305 1279.809,1333.305 1279.809,1343.305 L1279.809,1369.305 C1279.809,1379.305 1261.809,1379.305 1261.809,1379.305 C1261.809,1379.305 1243.809,1379.305 1243.809,1369.305 L1243.809,1343.305" style="stroke:#181818;stroke-width:0.5;" fill="#E2E2F0"/><path d="M1243.809,1343.305 C1243.809,1353.305 1261.809,1353.305 1261.809,1353.305 C1261.809,1353.305 1279.809,1353.305 1279.809,1343.305" style="stroke:#181818;stroke-width:0.5;" fill="none"/><rect x="10" y="114.863" width="1269.809" height="3" fill="#EEE" style="stroke:#EEE;stroke-width:1;"/><line x1="10" y1="114.863" x2="1279.809" y2="114.863" style="stroke:#000;stroke-width:1;"/><line x1="10" y1="117.863" x2="1279.809" y2="117.863" style="stroke:#000;stroke-width:1;"/><rect x="617.154" y="104.297" width="55.501" height="23.133" fill="#EEE" style="stroke:#000;stroke-width:2;"/><text x="623.154" y="120.364" fill="#000" font-size="13" textLength="36.975" font-weight="700">Start</text><polygon points="1000.448,154.563,1010.448,158.563,1000.448,162.563,1004.448,158.563" fill="#181818" style="stroke:#181818;stroke-width:1;stroke-linejoin:miter;stroke-miterlimit:10;"/><line x1="262.358" y1="158.563" x2="1006.448" y2="158.563" style="stroke:#181818;stroke-width:1;"/><text x="269.358" y="153.497" fill="#000" font-size="13" textLength="104.901">GET /perceptors</text><polygon points="1180.899,183.695,1190.899,187.695,1180.899,191.695,1184.899,187.695" fill="#181818" style="stroke:#181818;stroke-width:1;stroke-linejoin:miter;stroke-miterlimit:10;"/><line x1="1012.448" y1="187.695" x2="1186.899" y2="187.695" style="stroke:#181818;stroke-width:1;"/><text x="1019.448" y="182.629" fill="#000" font-size="13" textLength="41.279">View()</text><polygon points="273.358,212.828,263.358,216.828,273.358,220.828,269.358,216.828" fill="#181818" style="stroke:#181818;stroke-width:1;stroke-linejoin:miter;stroke-miterlimit:10;"/><line x1="267.358" y1="216.828" x2="1011.448" y2="216.828" style="stroke:#181818;stroke-width:1;stroke-dasharray:2,2;"/><text x="279.358" y="211.762" fill="#000" font-size="13" textLength="257.905">[{slug, title, icon (SVG), help, relative}]</text><path d="M267.358,229.828 L267.358,299.828 L440.358,299.828 L440.358,239.828 L430.358,229.828 L267.358,229.828" style="stroke:#181818;stroke-width:0.5;" fill="#FEFFDD"/><path d="M430.358,229.828 L430.358,239.828 L440.358,239.828 L430.358,229.828" style="stroke:#181818;stroke-width:0.5;" fill="#FEFFDD"/><text x="273.358" y="246.895" fill="#000" font-size="13" textLength="152.953">buttons: gallery toolbar</text><text x="273.358" y="262.028" fill="#000" font-size="13" textLength="126.56">and viewer toolbar;</text><text x="273.358" y="277.161" fill="#000" font-size="13" textLength="147.812">the icon is a CSS mask</text><text x="273.358" y="292.293" fill="#000" font-size="13" textLength="99.423">(no script runs)</text><polygon points="625.801,322.492,635.801,326.492,625.801,330.492,629.801,326.492" fill="#181818" style="stroke:#181818;stroke-width:1;stroke-linejoin:miter;stroke-miterlimit:10;"/><line x1="262.358" y1="326.492" x2="631.801" y2="326.492" style="stroke:#181818;stroke-width:1;"/><text x="269.358" y="321.426" fill="#000" font-size="13" textLength="295.331">order(the URL's view: /v/&lt;slug>?at=&lt;guid>)</text><polygon points="914.632,351.625,924.632,355.625,914.632,359.625,918.632,355.625" fill="#181818" style="stroke:#181818;stroke-width:1;stroke-linejoin:miter;stroke-miterlimit:10;"/><line x1="637.801" y1="355.625" x2="920.632" y2="355.625" style="stroke:#181818;stroke-width:1;"/><text x="644.801" y="350.559" fill="#000" font-size="13" textLength="194.581">the view's kept order, at once</text><polygon points="1000.448,380.758,1010.448,384.758,1000.448,388.758,1004.448,384.758" fill="#181818" style="stroke:#181818;stroke-width:1;stroke-linejoin:miter;stroke-miterlimit:10;"/><line x1="637.801" y1="384.758" x2="1006.448" y2="384.758" style="stroke:#181818;stroke-width:1;"/><text x="644.801" y="379.692" fill="#000" font-size="13" textLength="183.644">GET /p/:view/order?anchor=</text><polygon points="1249.809,409.891,1259.809,413.891,1249.809,417.891,1253.809,413.891" fill="#181818" style="stroke:#181818;stroke-width:1;stroke-linejoin:miter;stroke-miterlimit:10;"/><line x1="1012.448" y1="413.891" x2="1255.809" y2="413.891" style="stroke:#181818;stroke-width:1;"/><text x="1019.448" y="408.825" fill="#000" font-size="13" textLength="188.348">shown items (Visible, Ready)</text><polygon points="1180.899,439.023,1190.899,443.023,1180.899,447.023,1184.899,443.023" fill="#181818" style="stroke:#181818;stroke-width:1;stroke-linejoin:miter;stroke-miterlimit:10;"/><line x1="1012.448" y1="443.023" x2="1186.899" y2="443.023" style="stroke:#181818;stroke-width:1;"/><text x="1019.448" y="437.958" fill="#000" font-size="13" textLength="136.614">Order(anchor, items)</text><polygon points="1023.448,468.156,1013.448,472.156,1023.448,476.156,1019.448,472.156" fill="#181818" style="stroke:#181818;stroke-width:1;stroke-linejoin:miter;stroke-miterlimit:10;"/><line x1="1017.448" y1="472.156" x2="1191.899" y2="472.156" style="stroke:#181818;stroke-width:1;stroke-dasharray:2,2;"/><text x="1029.448" y="467.09" fill="#000" font-size="13" textLength="156.451">entries (guid, sections?)</text><polygon points="648.801,497.289,638.801,501.289,648.801,505.289,644.801,501.289" fill="#181818" style="stroke:#181818;stroke-width:1;stroke-linejoin:miter;stroke-miterlimit:10;"/><line x1="642.801" y1="501.289" x2="1011.448" y2="501.289" style="stroke:#181818;stroke-width:1;stroke-dasharray:2,2;"/><text x="654.801" y="496.223" fill="#000" font-size="13" textLength="43.069">ndjson</text><path d="M496.295,514.289 L496.295,584.289 L779.295,584.289 L779.295,524.289 L769.295,514.289 L496.295,514.289" style="stroke:#181818;stroke-width:0.5;" fill="#FEFFDD"/><path d="M769.295,514.289 L769.295,524.289 L779.295,524.289 L769.295,514.289" style="stroke:#181818;stroke-width:0.5;" fill="#FEFFDD"/><text x="502.295" y="531.356" fill="#000" font-size="13" textLength="218.099">the items are kept between visits</text><text x="502.295" y="546.489" fill="#000" font-size="13" textLength="226.833">(/items?since=: only the changes);</text><text x="502.295" y="561.622" fill="#000" font-size="13" textLength="262.012">the server's order replaces the kept one</text><text x="502.295" y="576.754" fill="#000" font-size="13" textLength="97.925">only if it differs</text><polygon points="914.632,606.953,924.632,610.953,914.632,614.953,918.632,610.953" fill="#181818" style="stroke:#181818;stroke-width:1;stroke-linejoin:miter;stroke-miterlimit:10;"/><line x1="637.801" y1="610.953" x2="920.632" y2="610.953" style="stroke:#181818;stroke-width:1;"/><text x="644.801" y="605.887" fill="#000" font-size="13" textLength="264.831">items (x, y, order) + meta + sections (y)</text><polygon points="273.358,636.086,263.358,640.086,273.358,644.086,269.358,640.086" fill="#181818" style="stroke:#181818;stroke-width:1;stroke-linejoin:miter;stroke-miterlimit:10;"/><line x1="267.358" y1="640.086" x2="925.632" y2="640.086" style="stroke:#181818;stroke-width:1;stroke-dasharray:2,2;"/><text x="279.358" y="635.02" fill="#000" font-size="13" textLength="171.704">visible window (liveQuery)</text><polygon points="560.878,665.219,550.878,669.219,560.878,673.219,556.878,669.219" fill="#181818" style="stroke:#181818;stroke-width:1;stroke-linejoin:miter;stroke-miterlimit:10;"/><line x1="554.878" y1="669.219" x2="925.632" y2="669.219" style="stroke:#181818;stroke-width:1;stroke-dasharray:2,2;"/><text x="566.878" y="664.153" fill="#000" font-size="13" textLength="91.229">section marks</text><rect x="10" y="697.785" width="1269.809" height="3" fill="#EEE" style="stroke:#EEE;stroke-width:1;"/><line x1="10" y1="697.785" x2="1279.809" y2="697.785" style="stroke:#000;stroke-width:1;"/><line x1="10" y1="700.785" x2="1279.809" y2="700.785" style="stroke:#000;stroke-width:1;"/><rect x="560.006" y="687.219" width="169.797" height="23.133" fill="#EEE" style="stroke:#000;stroke-width:2;"/><text x="566.006" y="703.286" fill="#000" font-size="13" textLength="151.271" font-weight="700">Switch in the gallery</text><polygon points="250.358,737.484,260.358,741.484,250.358,745.484,254.358,741.484" fill="#181818" style="stroke:#181818;stroke-width:1;stroke-linejoin:miter;stroke-miterlimit:10;"/><line x1="28.955" y1="741.484" x2="256.358" y2="741.484" style="stroke:#181818;stroke-width:1;"/><text x="35.955" y="736.418" fill="#000" font-size="13" textLength="110.398">perceptor button</text><line x1="262.358" y1="785.75" x2="304.358" y2="785.75" style="stroke:#181818;stroke-width:1;"/><line x1="304.358" y1="785.75" x2="304.358" y2="798.75" style="stroke:#181818;stroke-width:1;"/><line x1="263.358" y1="798.75" x2="304.358" y2="798.75" style="stroke:#181818;stroke-width:1;"/><polygon points="273.358,794.75,263.358,798.75,273.358,802.75,269.358,798.75" fill="#181818" style="stroke:#181818;stroke-width:1;stroke-linejoin:miter;stroke-miterlimit:10;"/><text x="269.358" y="765.551" fill="#000" font-size="13" textLength="195.895">anchor = photo in the middle;</text><text x="269.358" y="780.684" fill="#000" font-size="13" textLength="200.167">go to /v/&lt;slug>?at=&lt;anchor></text><polygon points="625.801,823.883,635.801,827.883,625.801,831.883,629.801,827.883" fill="#181818" style="stroke:#181818;stroke-width:1;stroke-linejoin:miter;stroke-miterlimit:10;"/><line x1="262.358" y1="827.883" x2="631.801" y2="827.883" style="stroke:#181818;stroke-width:1;"/><text x="269.358" y="822.817" fill="#000" font-size="13" textLength="125.068">order(slug, anchor)</text><polygon points="1000.448,853.016,1010.448,857.016,1000.448,861.016,1004.448,857.016" fill="#181818" style="stroke:#181818;stroke-width:1;stroke-linejoin:miter;stroke-miterlimit:10;"/><line x1="637.801" y1="857.016" x2="1006.448" y2="857.016" style="stroke:#181818;stroke-width:1;"/><text x="644.801" y="851.95" fill="#000" font-size="13" textLength="183.644">GET /p/:view/order?anchor=</text><polygon points="648.801,882.148,638.801,886.148,648.801,890.148,644.801,886.148" fill="#181818" style="stroke:#181818;stroke-width:1;stroke-linejoin:miter;stroke-miterlimit:10;"/><line x1="642.801" y1="886.148" x2="1011.448" y2="886.148" style="stroke:#181818;stroke-width:1;stroke-dasharray:2,2;"/><text x="654.801" y="881.083" fill="#000" font-size="13" textLength="45.062">entries</text><polygon points="914.632,911.281,924.632,915.281,914.632,919.281,918.632,915.281" fill="#181818" style="stroke:#181818;stroke-width:1;stroke-linejoin:miter;stroke-miterlimit:10;"/><line x1="637.801" y1="915.281" x2="920.632" y2="915.281" style="stroke:#181818;stroke-width:1;"/><text x="644.801" y="910.215" fill="#000" font-size="13" textLength="246.568">relayout, meta.anchor = new position</text><polygon points="273.358,940.414,263.358,944.414,273.358,948.414,269.358,944.414" fill="#181818" style="stroke:#181818;stroke-width:1;stroke-linejoin:miter;stroke-miterlimit:10;"/><line x1="267.358" y1="944.414" x2="925.632" y2="944.414" style="stroke:#181818;stroke-width:1;stroke-dasharray:2,2;"/><text x="279.358" y="939.348" fill="#000" font-size="13" textLength="291.211">window + scrollTo: the anchor stays in place</text><rect x="10" y="972.98" width="1269.809" height="3" fill="#EEE" style="stroke:#EEE;stroke-width:1;"/><line x1="10" y1="972.98" x2="1279.809" y2="972.98" style="stroke:#000;stroke-width:1;"/><line x1="10" y1="975.98" x2="1279.809" y2="975.98" style="stroke:#000;stroke-width:1;"/><rect x="550.443" y="962.414" width="188.922" height="23.133" fill="#EEE" style="stroke:#000;stroke-width:2;"/><text x="556.443" y="978.481" fill="#000" font-size="13" textLength="170.396" font-weight="700">Switch from the viewer</text><polygon points="250.358,1012.68,260.358,1016.68,250.358,1020.68,254.358,1016.68" fill="#181818" style="stroke:#181818;stroke-width:1;stroke-linejoin:miter;stroke-miterlimit:10;"/><line x1="28.955" y1="1016.68" x2="256.358" y2="1016.68" style="stroke:#181818;stroke-width:1;"/><text x="35.955" y="1011.614" fill="#000" font-size="13" textLength="209.403">perceptor button (in the viewer)</text><line x1="262.358" y1="1060.945" x2="304.358" y2="1060.945" style="stroke:#181818;stroke-width:1;"/><line x1="304.358" y1="1060.945" x2="304.358" y2="1073.945" style="stroke:#181818;stroke-width:1;"/><line x1="263.358" y1="1073.945" x2="304.358" y2="1073.945" style="stroke:#181818;stroke-width:1;"/><polygon points="273.358,1069.945,263.358,1073.945,273.358,1077.945,269.358,1073.945" fill="#181818" style="stroke:#181818;stroke-width:1;stroke-linejoin:miter;stroke-miterlimit:10;"/><text x="269.358" y="1040.747" fill="#000" font-size="13" textLength="203.474">/v/&lt;view>/&lt;guid> replaced by</text><text x="269.358" y="1055.879" fill="#000" font-size="13" textLength="273.521">/v/&lt;slug>?at=&lt;guid> (the viewer closes)</text><polygon points="625.801,1099.078,635.801,1103.078,625.801,1107.078,629.801,1103.078" fill="#181818" style="stroke:#181818;stroke-width:1;stroke-linejoin:miter;stroke-miterlimit:10;"/><line x1="262.358" y1="1103.078" x2="631.801" y2="1103.078" style="stroke:#181818;stroke-width:1;"/><text x="269.358" y="1098.012" fill="#000" font-size="13" textLength="201.729">order(slug, the photo: centred)</text><polygon points="273.358,1128.211,263.358,1132.211,273.358,1136.211,269.358,1132.211" fill="#181818" style="stroke:#181818;stroke-width:1;stroke-linejoin:miter;stroke-miterlimit:10;"/><line x1="267.358" y1="1132.211" x2="925.632" y2="1132.211" style="stroke:#181818;stroke-width:1;stroke-dasharray:2,2;"/><text x="279.358" y="1127.145" fill="#000" font-size="13" textLength="183.86">the sheet around that photo</text><rect x="10" y="1160.777" width="1269.809" height="3" fill="#EEE" style="stroke:#EEE;stroke-width:1;"/><line x1="10" y1="1160.777" x2="1279.809" y2="1160.777" style="stroke:#000;stroke-width:1;"/><line x1="10" y1="1163.777" x2="1279.809" y2="1163.777" style="stroke:#000;stroke-width:1;"/><rect x="597.105" y="1150.211" width="95.599" height="23.133" fill="#EEE" style="stroke:#000;stroke-width:2;"/><text x="603.105" y="1166.278" fill="#000" font-size="13" textLength="77.073" font-weight="700">Side panel</text><polygon points="537.878,1200.477,547.878,1204.477,537.878,1208.477,541.878,1204.477" fill="#181818" style="stroke:#181818;stroke-width:1;stroke-linejoin:miter;stroke-miterlimit:10;"/><line x1="28.955" y1="1204.477" x2="543.878" y2="1204.477" style="stroke:#181818;stroke-width:1;"/><text x="35.955" y="1199.411" fill="#000" font-size="13" textLength="122.7">scroll / point / drag</text><polygon points="273.358,1229.609,263.358,1233.609,273.358,1237.609,269.358,1233.609" fill="#181818" style="stroke:#181818;stroke-width:1;stroke-linejoin:miter;stroke-miterlimit:10;"/><line x1="267.358" y1="1233.609" x2="548.878" y2="1233.609" style="stroke:#181818;stroke-width:1;"/><text x="279.358" y="1228.543" fill="#000" font-size="13" textLength="162.925">scrollTo(section position)</text><path d="M554.878,1246.609 L554.878,1301.609 L873.878,1301.609 L873.878,1256.609 L863.878,1246.609 L554.878,1246.609" style="stroke:#181818;stroke-width:0.5;" fill="#FEFFDD"/><path d="M863.878,1246.609 L863.878,1256.609 L873.878,1256.609 L863.878,1246.609" style="stroke:#181818;stroke-width:0.5;" fill="#FEFFDD"/><text x="560.878" y="1263.676" fill="#000" font-size="13" textLength="273.724">unpinned: over the photos while scrolling;</text><text x="560.878" y="1278.809" fill="#000" font-size="13" textLength="298.664">pinned: always shown, the sheet makes room</text><text x="560.878" y="1293.942" fill="#000" font-size="13" textLength="241.877">(a resize: the anchor keeps the view)</text><?plantuml-src bLLDZzis4BthLmpsiXAYhEvAx4Kt6omA1Eqstkobxe6MnX9hcHH8sgfRvB_taPJyrGP1JfBcYvmtxurkwUEUpO5wDXNtJXkIbWJj9G-ar-HQ9bPrnzQIRPbTIT9PqgPcSqSly5esA10jDazkGqhLILQEEd50xCvHwetuykyrzwW8kmgXWrIr7l2eNPlTqO8h9xMoP6JD94CCYeRoP9rXiNqNygptzq9nHtqdAhRUkgNLWKvdtIM9g7nFNt3Bf1V6oKeYnz7Da-WwttUnLA_ebSqD2KlFek7Bk0MEUVQdZ7wyNGOCyQYbIWTjDcoo4FWf69DQEB4IbkacHZskelVnuR98evKpsjzegNvw_Za4uNaPz3oDABX_4VkpyeyFmOYwoMn62uSyciqItm-zdVjQ9JrzVA7YE6URmEXzA5IIno3DeWasdrVIx__ORjVavAJhE2TPOMJfulKfowdbhi_9S2UStFFNFnAb7MDcJUiyRMB-QkSSHbbICuBjjEvM0ZqALGUAOQQZxTrI-Rc5Cm83FomMj1Ls0s2L9biPsJioEsMpOrSHv3AI8r3io-TFjpPKBgdO5-_z_UVtmitUDpjPpxCafeJanuSoKCL78sa3L6Abd0JULCLdqMS05gNFA4BelL1LgyrimjBNjAqUq8FZhQNqLLgvyk1zPb4ViWlCVmtNZXNoc90by8G9X0EX8IF1xDJVFeVKeZRkJuEQ853rdrQhE0NjzJWv0gZXBi9mR7B5Rc1MQDn2oy2t207tLgBd6U1KNHHHrGhLiCt6sKIbtuxgn_1FkXlHKxnK8LkkSIZLSht6KhW6VOJchvmEUQoLqHlQiXDuJ3rI2hGGVaR7VSHosXXf1-RzjWElpWEXpt8g0lwOZOsA6AIhsd6V7Fa8XVZDGCSZJbimSlT8jUYEiw8PzQrsUggsbJKM941gDDXynRkOCly6PwE-OapsetGxgpOIvHffhqzlo0EwTyVhAoptNcFw0EaAv17SDrvnM4WlEb9eJBNERtJq7KP_ZkpQwErHJe3qkz1IEi8N4x8hg3sAtZCledGdkjNOy4lrFzgE_vZnzAhJbh-vASQjXl0mnv8gZn_NruGBfFS_FMX7xx2oN8lD479YwwTVq4MxaOC1Foe0jCJsBgWseac2yzJb178wCNQQIlQVXHgAxbGlbUAwZ28_jc1fQ2Ma4Uj9rO2DKwJe1Z-qi9RoivwsOWFn6gstM042-5hvDrzCUyFSs-ECidy1?></g></svg>