<svg xmlns="http://www.w3.org/2000/svg" xmlns:xlink="http://www.w3.org/1999/xlink" version="1.1" data-diagram-type="SEQUENCE" style="width:1598px;height:1801px;background:#FFFFFF;" width="1598px" height="1801px" viewBox="0 0 1598 1801" zoomAndPan="magnify" preserveAspectRatio="none" contentStyleType="text/css"><?plantuml 1.2026.8?><defs/><g font-family="sans-serif" lengthAdjust="spacing"><g class="title" data-source-line="4"><text x="555.207" y="27.995" fill="#000" font-size="14" textLength="485.789" font-weight="700">Files gate and validator (details of the Import chain diagram)</text></g><rect x="578.145" y="48.297" width="736.364" height="1737.914" fill="#87CEFA" style="stroke:#181818;stroke-width:0.5;"/><text x="915.747" y="60.364" fill="#000" font-size="13" textLength="56.634" font-weight="700">identify</text><rect x="449.668" y="297.984" width="1089.233" height="302.477" fill="none" style="stroke:#000;stroke-width:1.5;"/><rect x="468.668" y="469.258" width="285.604" height="117.203" fill="none" style="stroke:#000;stroke-width:1.5;"/><rect x="763.942" y="750.125" width="814.261" height="661.602" fill="none" style="stroke:#000;stroke-width:1.5;"/><g><title>groups</title><rect x="193.26" y="148.32" width="8" height="1551" fill="#000" fill-opacity="0"/><line x1="196.76" y1="148.32" x2="196.76" y2="1699.32" style="stroke:#181818;stroke-width:0.5;stroke-dasharray:5,5;"/></g><g><title>gate</title><rect x="481.168" y="148.32" width="8" height="1551" fill="#000" fill-opacity="0"/><line x1="484.668" y1="148.32" x2="484.668" y2="1699.32" style="stroke:#181818;stroke-width:0.5;stroke-dasharray:5,5;"/></g><g><title></title><rect x="479.668" y="285.984" width="10" height="328.477" fill="#FFF" style="stroke:#181818;stroke-width:1;"/></g><g><title>read</title><rect x="648.5" y="148.32" width="8" height="1551" fill="#000" fill-opacity="0"/><line x1="652" y1="148.32" x2="652" y2="1699.32" style="stroke:#181818;stroke-width:0.5;stroke-dasharray:5,5;"/></g><g><title>validate</title><rect x="907.082" y="148.32" width="8" height="1551" fill="#000" fill-opacity="0"/><line x1="910.582" y1="148.32" x2="910.582" y2="1699.32" style="stroke:#181818;stroke-width:0.5;stroke-dasharray:5,5;"/></g><g><title></title><rect x="905.582" y="650.727" width="10" height="796.133" fill="#FFF" style="stroke:#181818;stroke-width:1;"/></g><g><title>show</title><rect x="1081.534" y="148.32" width="8" height="1551" fill="#000" fill-opacity="0"/><line x1="1085.034" y1="148.32" x2="1085.034" y2="1699.32" style="stroke:#181818;stroke-width:0.5;stroke-dasharray:5,5;"/></g><g><title>DB .gorm.</title><rect x="1519.401" y="148.32" width="8" height="1551" fill="#000" fill-opacity="0"/><line x1="1522.901" y1="148.32" x2="1522.901" y2="1699.32" style="stroke:#181818;stroke-width:0.5;stroke-dasharray:5,5;"/></g><g><title></title><rect x="1517.901" y="738.125" width="10" height="665.602" fill="#FFF" style="stroke:#181818;stroke-width:1;"/></g><text x="169.629" y="128.722" fill="#000" font-size="14" textLength="48.262">groups</text><text x="149.805" y="145.019" fill="#000" font-size="14" textLength="87.91">(any source)</text><ellipse cx="196.76" cy="99.727" rx="12" ry="12" fill="#E2E2F0" style="stroke:#181818;stroke-width:0.5;"/><polygon points="192.76,87.727,198.76,82.727,196.76,87.727,198.76,92.727,192.76,87.727" fill="#181818" style="stroke:#181818;stroke-width:1;stroke-linejoin:miter;stroke-miterlimit:10;"/><text x="465.884" y="145.019" fill="#000" font-size="14" textLength="31.568">gate</text><ellipse cx="484.668" cy="116.023" rx="12" ry="12" fill="#E2E2F0" style="stroke:#181818;stroke-width:0.5;"/><polygon points="480.668,104.023,486.668,99.023,484.668,104.023,486.668,109.023,480.668,104.023" fill="#181818" style="stroke:#181818;stroke-width:1;stroke-linejoin:miter;stroke-miterlimit:10;"/><text x="633.083" y="112.425" fill="#000" font-size="14" textLength="31.835">read</text><text x="587.552" y="128.722" fill="#000" font-size="14" textLength="122.896">(exiftool, classify,</text><text x="582.145" y="145.019" fill="#000" font-size="14" textLength="133.711">merge, fingerprint)</text><ellipse cx="652" cy="83.43" rx="12" ry="12" fill="#E2E2F0" style="stroke:#181818;stroke-width:0.5;"/><polygon points="648,71.43,654,66.43,652,71.43,654,76.43,648,71.43" fill="#181818" style="stroke:#181818;stroke-width:1;stroke-linejoin:miter;stroke-miterlimit:10;"/><text x="879.476" y="145.019" fill="#000" font-size="14" textLength="56.212">validate</text><ellipse cx="910.582" cy="116.023" rx="12" ry="12" fill="#E2E2F0" style="stroke:#181818;stroke-width:0.5;"/><polygon points="906.582,104.023,912.582,99.023,910.582,104.023,912.582,109.023,906.582,104.023" fill="#181818" style="stroke:#181818;stroke-width:1;stroke-linejoin:miter;stroke-miterlimit:10;"/><text x="1063.943" y="128.722" fill="#000" font-size="14" textLength="36.183">show</text><text x="1003.605" y="145.019" fill="#000" font-size="14" textLength="156.857">(sizes, cheap preview)</text><ellipse cx="1085.034" cy="99.727" rx="12" ry="12" fill="#E2E2F0" style="stroke:#181818;stroke-width:0.5;"/><polygon points="1081.034,87.727,1087.034,82.727,1085.034,87.727,1087.034,92.727,1081.034,87.727" fill="#181818" style="stroke:#181818;stroke-width:1;stroke-linejoin:miter;stroke-miterlimit:10;"/><text x="1483.599" y="145.019" fill="#000" font-size="14" textLength="72.604">DB (gorm)</text><path d="M1504.901,96.023 C1504.901,86.023 1522.901,86.023 1522.901,86.023 C1522.901,86.023 1540.901,86.023 1540.901,96.023 L1540.901,122.023 C1540.901,132.023 1522.901,132.023 1522.901,132.023 C1522.901,132.023 1504.901,132.023 1504.901,122.023 L1504.901,96.023" style="stroke:#181818;stroke-width:0.5;" fill="#E2E2F0"/><path d="M1504.901,96.023 C1504.901,106.023 1522.901,106.023 1522.901,106.023 C1522.901,106.023 1540.901,106.023 1540.901,96.023" style="stroke:#181818;stroke-width:0.5;" fill="none"/><text x="169.629" y="1712.315" fill="#000" font-size="14" textLength="48.262">groups</text><text x="149.805" y="1728.612" fill="#000" font-size="14" textLength="87.91">(any source)</text><ellipse cx="196.76" cy="1747.914" rx="12" ry="12" fill="#E2E2F0" style="stroke:#181818;stroke-width:0.5;"/><polygon points="192.76,1735.914,198.76,1730.914,196.76,1735.914,198.76,1740.914,192.76,1735.914" fill="#181818" style="stroke:#181818;stroke-width:1;stroke-linejoin:miter;stroke-miterlimit:10;"/><text x="465.884" y="1712.315" fill="#000" font-size="14" textLength="31.568">gate</text><ellipse cx="484.668" cy="1731.617" rx="12" ry="12" fill="#E2E2F0" style="stroke:#181818;stroke-width:0.5;"/><polygon points="480.668,1719.617,486.668,1714.617,484.668,1719.617,486.668,1724.617,480.668,1719.617" fill="#181818" style="stroke:#181818;stroke-width:1;stroke-linejoin:miter;stroke-miterlimit:10;"/><text x="633.083" y="1712.315" fill="#000" font-size="14" textLength="31.835">read</text><text x="587.552" y="1728.612" fill="#000" font-size="14" textLength="122.896">(exiftool, classify,</text><text x="582.145" y="1744.909" fill="#000" font-size="14" textLength="133.711">merge, fingerprint)</text><ellipse cx="652" cy="1764.211" rx="12" ry="12" fill="#E2E2F0" style="stroke:#181818;stroke-width:0.5;"/><polygon points="648,1752.211,654,1747.211,652,1752.211,654,1757.211,648,1752.211" fill="#181818" style="stroke:#181818;stroke-width:1;stroke-linejoin:miter;stroke-miterlimit:10;"/><text x="879.476" y="1712.315" fill="#000" font-size="14" textLength="56.212">validate</text><ellipse cx="910.582" cy="1731.617" rx="12" ry="12" fill="#E2E2F0" style="stroke:#181818;stroke-width:0.5;"/><polygon points="906.582,1719.617,912.582,1714.617,910.582,1719.617,912.582,1724.617,906.582,1719.617" fill="#181818" style="stroke:#181818;stroke-width:1;stroke-linejoin:miter;stroke-miterlimit:10;"/><text x="1063.943" y="1712.315" fill="#000" font-size="14" textLength="36.183">show</text><text x="1003.605" y="1728.612" fill="#000" font-size="14" textLength="156.857">(sizes, cheap preview)</text><ellipse cx="1085.034" cy="1747.914" rx="12" ry="12" fill="#E2E2F0" style="stroke:#181818;stroke-width:0.5;"/><polygon points="1081.034,1735.914,1087.034,1730.914,1085.034,1735.914,1087.034,1740.914,1081.034,1735.914" fill="#181818" style="stroke:#181818;stroke-width:1;stroke-linejoin:miter;stroke-miterlimit:10;"/><text x="1483.599" y="1712.315" fill="#000" font-size="14" textLength="72.604">DB (gorm)</text><path d="M1504.901,1725.617 C1504.901,1715.617 1522.901,1715.617 1522.901,1715.617 C1522.901,1715.617 1540.901,1715.617 1540.901,1725.617 L1540.901,1751.617 C1540.901,1761.617 1522.901,1761.617 1522.901,1761.617 C1522.901,1761.617 1504.901,1761.617 1504.901,1751.617 L1504.901,1725.617" style="stroke:#181818;stroke-width:0.5;" fill="#E2E2F0"/><path d="M1504.901,1725.617 C1504.901,1735.617 1522.901,1735.617 1522.901,1735.617 C1522.901,1735.617 1540.901,1735.617 1540.901,1725.617" style="stroke:#181818;stroke-width:0.5;" fill="none"/><rect x="10" y="176.887" width="1577.203" height="3" fill="#EEE" style="stroke:#EEE;stroke-width:1;"/><line x1="10" y1="176.887" x2="1587.203" y2="176.887" style="stroke:#000;stroke-width:1;"/><line x1="10" y1="179.887" x2="1587.203" y2="179.887" style="stroke:#000;stroke-width:1;"/><rect x="772.784" y="166.32" width="51.635" height="23.133" fill="#EEE" style="stroke:#000;stroke-width:2;"/><text x="778.784" y="182.387" fill="#000" font-size="13" textLength="33.109" font-weight="700">gate</text><path d="M15,204.453 L15,244.453 L378,244.453 L378,214.453 L368,204.453 L15,204.453" style="stroke:#181818;stroke-width:0.5;" fill="#FEFFDD"/><path d="M368,204.453 L368,214.453 L378,214.453 L368,204.453" style="stroke:#181818;stroke-width:0.5;" fill="#FEFFDD"/><text x="21" y="221.52" fill="#000" font-size="13" textLength="342.52">the walk wrote the rows (new? size/mtime changed?</text><text x="21" y="236.653" fill="#000" font-size="13" textLength="288.038">CheckTime = this walk) before the groupers</text><polygon points="467.668,281.984,477.668,285.984,467.668,289.984,471.668,285.984" fill="#181818" style="stroke:#181818;stroke-width:1;stroke-linejoin:miter;stroke-miterlimit:10;"/><line x1="196.76" y1="285.984" x2="473.668" y2="285.984" style="stroke:#181818;stroke-width:1;"/><text x="203.76" y="265.786" fill="#000" font-size="13" textLength="258.908">group []File (the rows: Changed / Gone)</text><text x="203.76" y="280.918" fill="#000" font-size="13" textLength="111.801">(no main file yet)</text><path d="M449.668,297.984 L514.111,297.984 L514.111,305.117 L504.111,315.117 L449.668,315.117 L449.668,297.984" style="stroke:#000;stroke-width:1.5;" fill="#EEE"/><rect x="449.668" y="297.984" width="1089.233" height="302.477" fill="none" style="stroke:#000;stroke-width:1.5;"/><text x="464.668" y="311.051" fill="#000" font-size="13" textLength="19.443" font-weight="700">alt</text><text x="529.111" y="310.195" fill="#000" font-size="11" textLength="75.646" font-weight="700">[a gone file]</text><polygon points="1510.901,342.25,1520.901,346.25,1510.901,350.25,1514.901,346.25" fill="#181818" style="stroke:#181818;stroke-width:1;stroke-linejoin:miter;stroke-miterlimit:10;"/><line x1="489.668" y1="346.25" x2="1516.901" y2="346.25" style="stroke:#181818;stroke-width:1;"/><text x="496.668" y="341.184" fill="#000" font-size="13" textLength="281.823">the model's Gone (see the end of the walk)</text><line x1="449.668" y1="355.25" x2="1538.901" y2="355.25" style="stroke:#000;stroke-width:1;stroke-dasharray:2,2;"/><text x="454.668" y="367.46" fill="#000" font-size="11" textLength="133.461" font-weight="700">[changed (stat, role)]</text><polygon points="640,390.188,650,394.188,640,398.188,644,394.188" fill="#181818" style="stroke:#181818;stroke-width:1;stroke-linejoin:miter;stroke-miterlimit:10;"/><line x1="489.668" y1="394.188" x2="646" y2="394.188" style="stroke:#181818;stroke-width:1;"/><text x="496.668" y="389.122" fill="#000" font-size="13" textLength="38.042">group</text><line x1="449.668" y1="403.188" x2="1538.901" y2="403.188" style="stroke:#000;stroke-width:1;stroke-dasharray:2,2;"/><text x="454.668" y="415.398" fill="#000" font-size="11" textLength="78.531" font-weight="700">[unchanged]</text><polygon points="1510.901,453.258,1520.901,457.258,1510.901,461.258,1514.901,457.258" fill="#181818" style="stroke:#181818;stroke-width:1;stroke-linejoin:miter;stroke-miterlimit:10;"/><line x1="489.668" y1="457.258" x2="1516.901" y2="457.258" style="stroke:#181818;stroke-width:1;"/><text x="496.668" y="437.059" fill="#000" font-size="13" textLength="157.149">item of the group done?</text><text x="496.668" y="452.192" fill="#000" font-size="13" textLength="217.001">(Visible, Waiting, Ready; Rework)</text><path d="M468.668,469.258 L533.111,469.258 L533.111,476.391 L523.111,486.391 L468.668,486.391 L468.668,469.258" style="stroke:#000;stroke-width:1.5;" fill="#EEE"/><rect x="468.668" y="469.258" width="285.604" height="117.203" fill="none" style="stroke:#000;stroke-width:1.5;"/><text x="483.668" y="482.325" fill="#000" font-size="13" textLength="19.443" font-weight="700">alt</text><text x="548.111" y="481.468" fill="#000" font-size="11" textLength="40.777" font-weight="700">[done]</text><line x1="489.668" y1="517.523" x2="531.668" y2="517.523" style="stroke:#181818;stroke-width:1;"/><line x1="531.668" y1="517.523" x2="531.668" y2="530.523" style="stroke:#181818;stroke-width:1;"/><line x1="502.668" y1="530.523" x2="531.668" y2="530.523" style="stroke:#181818;stroke-width:1;"/><line x1="495.668" y1="525.523" x2="505.668" y2="535.523" style="stroke:#181818;stroke-width:2;"/><line x1="495.668" y1="535.523" x2="505.668" y2="525.523" style="stroke:#181818;stroke-width:2;"/><text x="496.668" y="512.458" fill="#000" font-size="13" textLength="148.332">drop (no exif, no work)</text><line x1="468.668" y1="539.523" x2="754.272" y2="539.523" style="stroke:#000;stroke-width:1;stroke-dasharray:2,2;"/><text x="473.668" y="551.734" fill="#000" font-size="11" textLength="278.604" font-weight="700">[not done (New, Dirty, Rework, interrupted)]</text><polygon points="640,574.461,650,578.461,640,582.461,644,578.461" fill="#181818" style="stroke:#181818;stroke-width:1;stroke-linejoin:miter;stroke-miterlimit:10;"/><line x1="489.668" y1="578.461" x2="646" y2="578.461" style="stroke:#181818;stroke-width:1;"/><text x="496.668" y="573.395" fill="#000" font-size="13" textLength="38.042">group</text><polygon points="893.582,646.727,903.582,650.727,893.582,654.727,897.582,650.727" fill="#181818" style="stroke:#181818;stroke-width:1;stroke-linejoin:miter;stroke-miterlimit:10;"/><line x1="652" y1="650.727" x2="899.582" y2="650.727" style="stroke:#181818;stroke-width:1;"/><text x="659" y="630.528" fill="#000" font-size="13" textLength="229.582">ranked group: main file + sidecars,</text><text x="659" y="645.661" fill="#000" font-size="13" textLength="100.712">exif, fingerprint</text><rect x="10" y="679.293" width="1577.203" height="3" fill="#EEE" style="stroke:#EEE;stroke-width:1;"/><line x1="10" y1="679.293" x2="1587.203" y2="679.293" style="stroke:#000;stroke-width:1;"/><line x1="10" y1="682.293" x2="1587.203" y2="682.293" style="stroke:#000;stroke-width:1;"/><rect x="756.442" y="668.727" width="84.319" height="23.133" fill="#EEE" style="stroke:#000;stroke-width:2;"/><text x="762.442" y="684.793" fill="#000" font-size="13" textLength="65.793" font-weight="700">validator</text><polygon points="1505.901,734.125,1515.901,738.125,1505.901,742.125,1509.901,738.125" fill="#181818" style="stroke:#181818;stroke-width:1;stroke-linejoin:miter;stroke-miterlimit:10;"/><line x1="915.582" y1="738.125" x2="1511.901" y2="738.125" style="stroke:#181818;stroke-width:1;"/><text x="922.582" y="717.926" fill="#000" font-size="13" textLength="164.925">the main file's fingerprint</text><text x="922.582" y="733.059" fill="#000" font-size="13" textLength="173.97">(size + sha256 of its ends)</text><path d="M763.942,750.125 L828.385,750.125 L828.385,757.258 L818.385,767.258 L763.942,767.258 L763.942,750.125" style="stroke:#000;stroke-width:1.5;" fill="#EEE"/><rect x="763.942" y="750.125" width="814.261" height="661.602" fill="none" style="stroke:#000;stroke-width:1.5;"/><text x="778.942" y="763.192" fill="#000" font-size="13" textLength="19.443" font-weight="700">alt</text><text x="843.385" y="762.335" fill="#000" font-size="11" textLength="107.035" font-weight="700">[found the same]</text><path d="M880.378,782.258 L880.378,837.258 L1552.378,837.258 L1552.378,792.258 L1542.378,782.258 L880.378,782.258" style="stroke:#181818;stroke-width:0.5;" fill="#FEFFDD"/><path d="M1542.378,782.258 L1542.378,792.258 L1552.378,792.258 L1542.378,782.258" style="stroke:#181818;stroke-width:0.5;" fill="#FEFFDD"/><text x="1082.591" y="799.325" fill="#000" font-size="13" textLength="176.941">same path and same hash:</text><text x="1082.591" y="814.458" fill="#000" font-size="13" textLength="259.302">only reached when the item is not done</text><text x="1082.591" y="829.59" fill="#000" font-size="13" textLength="160.443">(the gate drops the rest)</text><polygon points="926.582,859.789,916.582,863.789,926.582,867.789,922.582,863.789" fill="#181818" style="stroke:#181818;stroke-width:1;stroke-linejoin:miter;stroke-miterlimit:10;"/><line x1="920.582" y1="863.789" x2="1516.901" y2="863.789" style="stroke:#181818;stroke-width:1;"/><text x="932.582" y="858.723" fill="#00F" font-size="13" textLength="95.475" font-weight="700">existing guid</text><line x1="763.942" y1="872.789" x2="1578.203" y2="872.789" style="stroke:#000;stroke-width:1;stroke-dasharray:2,2;"/><text x="768.942" y="885" fill="#000" font-size="11" textLength="91.287" font-weight="700">[found moved]</text><path d="M880.378,895.594 L880.378,965.594 L1552.378,965.594 L1552.378,905.594 L1542.378,895.594 L880.378,895.594" style="stroke:#181818;stroke-width:0.5;" fill="#FEFFDD"/><path d="M1542.378,895.594 L1542.378,905.594 L1552.378,905.594 L1542.378,895.594" style="stroke:#181818;stroke-width:0.5;" fill="#FEFFDD"/><text x="1056.619" y="912.661" fill="#000" font-size="13" textLength="172.529">same hash, different path,</text><text x="1056.619" y="927.793" fill="#000" font-size="13" textLength="53.504">old path</text><text x="1114.256" y="927.793" fill="#F00" font-size="13" textLength="72.274" font-weight="700">not exists</text><text x="1056.619" y="942.926" fill="#000" font-size="13" textLength="311.245">The item may be deleted already (deletions ran</text><text x="1056.619" y="958.059" fill="#000" font-size="13" textLength="234.736">first: the chain is async) -> restored</text><line x1="1475.901" y1="1007.391" x2="1516.901" y2="1007.391" style="stroke:#181818;stroke-width:1;"/><line x1="1475.901" y1="1007.391" x2="1475.901" y2="1020.391" style="stroke:#181818;stroke-width:1;"/><line x1="1475.901" y1="1020.391" x2="1515.901" y2="1020.391" style="stroke:#181818;stroke-width:1;"/><polygon points="1505.901,1016.391,1515.901,1020.391,1505.901,1024.391,1509.901,1020.391" fill="#181818" style="stroke:#181818;stroke-width:1;stroke-linejoin:miter;stroke-miterlimit:10;"/><text x="1337.508" y="987.192" fill="#000" font-size="13" textLength="173.393">update path, new file rows</text><text x="1337.508" y="1002.325" fill="#000" font-size="13" textLength="135.472">take the item's GUID</text><polygon points="926.582,1045.523,916.582,1049.523,926.582,1053.523,922.582,1049.523" fill="#181818" style="stroke:#181818;stroke-width:1;stroke-linejoin:miter;stroke-miterlimit:10;"/><line x1="920.582" y1="1049.523" x2="1516.901" y2="1049.523" style="stroke:#181818;stroke-width:1;"/><text x="932.582" y="1044.458" fill="#00F" font-size="13" textLength="95.475" font-weight="700">existing guid</text><path d="M784.942,1062.523 L784.942,1102.523 L1035.942,1102.523 L1035.942,1072.523 L1025.942,1062.523 L784.942,1062.523" style="stroke:#181818;stroke-width:0.5;" fill="#FEFFDD"/><path d="M1025.942,1062.523 L1025.942,1072.523 L1035.942,1072.523 L1025.942,1062.523" style="stroke:#181818;stroke-width:0.5;" fill="#FEFFDD"/><text x="790.942" y="1079.59" fill="#000" font-size="13" textLength="230.28">goes on: the cheap stage refreshes</text><text x="790.942" y="1094.723" fill="#000" font-size="13" textLength="207.499">the preview path (it moved too)</text><line x1="763.942" y1="1108.789" x2="1578.203" y2="1108.789" style="stroke:#000;stroke-width:1;stroke-dasharray:2,2;"/><text x="768.942" y="1121" fill="#000" font-size="11" textLength="81.651" font-weight="700">[don't found]</text><path d="M880.378,1131.594 L880.378,1171.594 L1552.378,1171.594 L1552.378,1141.594 L1542.378,1131.594 L880.378,1131.594" style="stroke:#181818;stroke-width:0.5;" fill="#FEFFDD"/><path d="M1542.378,1131.594 L1542.378,1141.594 L1552.378,1141.594 L1542.378,1131.594" style="stroke:#181818;stroke-width:0.5;" fill="#FEFFDD"/><text x="1132.086" y="1148.661" fill="#000" font-size="13" textLength="160.31">path and hash not found</text><text x="1132.086" y="1163.793" fill="#000" font-size="13" textLength="106.057">create new item</text><path d="M880.378,1181.859 L880.378,1236.859 L1552.378,1236.859 L1552.378,1191.859 L1542.378,1181.859 L880.378,1181.859" style="stroke:#181818;stroke-width:0.5;" fill="#FEFFDD"/><path d="M1542.378,1181.859 L1542.378,1191.859 L1552.378,1191.859 L1542.378,1181.859" style="stroke:#181818;stroke-width:0.5;" fill="#FEFFDD"/><text x="1124.577" y="1198.926" fill="#000" font-size="13" textLength="172.529">same hash, different path,</text><text x="1124.577" y="1214.059" fill="#000" font-size="13" textLength="53.504">old path</text><text x="1182.214" y="1214.059" fill="#F00" font-size="13" textLength="77.771" font-weight="700">also exists</text><text x="1124.577" y="1229.192" fill="#000" font-size="13" textLength="175.329">create new one (duplicate)</text><line x1="1475.901" y1="1263.391" x2="1516.901" y2="1263.391" style="stroke:#181818;stroke-width:1;"/><line x1="1475.901" y1="1263.391" x2="1475.901" y2="1276.391" style="stroke:#181818;stroke-width:1;"/><line x1="1475.901" y1="1276.391" x2="1515.901" y2="1276.391" style="stroke:#181818;stroke-width:1;"/><polygon points="1505.901,1272.391,1515.901,1276.391,1505.901,1280.391,1509.901,1276.391" fill="#181818" style="stroke:#181818;stroke-width:1;stroke-linejoin:miter;stroke-miterlimit:10;"/><text x="1469.349" y="1258.325" fill="#000" font-size="13" textLength="41.552">create</text><polygon points="926.582,1301.523,916.582,1305.523,926.582,1309.523,922.582,1305.523" fill="#181818" style="stroke:#181818;stroke-width:1;stroke-linejoin:miter;stroke-miterlimit:10;"/><line x1="920.582" y1="1305.523" x2="1516.901" y2="1305.523" style="stroke:#181818;stroke-width:1;"/><text x="932.582" y="1300.458" fill="#008000" font-size="13" textLength="66.93" font-weight="700">new guid</text><line x1="763.942" y1="1314.523" x2="1578.203" y2="1314.523" style="stroke:#000;stroke-width:1;stroke-dasharray:2,2;"/><text x="768.942" y="1326.734" fill="#000" font-size="11" textLength="102.577" font-weight="700">[found changed]</text><path d="M880.378,1337.328 L880.378,1377.328 L1552.378,1377.328 L1552.378,1347.328 L1542.378,1337.328 L880.378,1337.328" style="stroke:#181818;stroke-width:0.5;" fill="#FEFFDD"/><path d="M1542.378,1337.328 L1542.378,1347.328 L1552.378,1347.328 L1542.378,1337.328" style="stroke:#181818;stroke-width:0.5;" fill="#FEFFDD"/><text x="1111.745" y="1354.395" fill="#000" font-size="13" textLength="168.397">same path, different hash</text><text x="1111.745" y="1369.528" fill="#000" font-size="13" textLength="200.992" font-weight="700">have to regenerate thumbs</text><polygon points="926.582,1399.727,916.582,1403.727,926.582,1407.727,922.582,1403.727" fill="#181818" style="stroke:#181818;stroke-width:1;stroke-linejoin:miter;stroke-miterlimit:10;"/><line x1="920.582" y1="1403.727" x2="1516.901" y2="1403.727" style="stroke:#181818;stroke-width:1;"/><text x="932.582" y="1398.661" fill="#00F" font-size="13" textLength="95.475" font-weight="700">existing guid</text><text x="1028.057" y="1398.661" fill="#000" font-size="13" textLength="40.022">, Dirty</text><polygon points="1073.034,1442.859,1083.034,1446.859,1073.034,1450.859,1077.034,1446.859" fill="#181818" style="stroke:#181818;stroke-width:1;stroke-linejoin:miter;stroke-miterlimit:10;"/><line x1="915.582" y1="1446.859" x2="1079.034" y2="1446.859" style="stroke:#181818;stroke-width:1;"/><text x="922.582" y="1441.793" fill="#000" font-size="13" textLength="150.452">item (guid), group, exif</text><path d="M864.56,1459.859 L864.56,1484.859 L1304.56,1484.859 L1304.56,1469.859 L1294.56,1459.859 L864.56,1459.859" style="stroke:#181818;stroke-width:0.5;" fill="#90EE90"/><path d="M1294.56,1459.859 L1294.56,1469.859 L1304.56,1469.859 L1294.56,1459.859" style="stroke:#181818;stroke-width:0.5;" fill="#90EE90"/><text x="870.56" y="1476.926" fill="#000" font-size="13" textLength="288.165">then the exif step (perceptors); commit sets</text><text x="1162.857" y="1476.926" fill="#000" font-size="13" textLength="49.29" font-weight="700">Visible</text><text x="1216.279" y="1476.926" fill="#000" font-size="13" textLength="13.298">or</text><text x="1233.709" y="1476.926" fill="#000" font-size="13" textLength="56.799" font-weight="700">Waiting</text><rect x="10" y="1510.559" width="1577.203" height="3" fill="#EEE" style="stroke:#EEE;stroke-width:1;"/><line x1="10" y1="1510.559" x2="1587.203" y2="1510.559" style="stroke:#000;stroke-width:1;"/><line x1="10" y1="1513.559" x2="1587.203" y2="1513.559" style="stroke:#000;stroke-width:1;"/><rect x="691.642" y="1499.992" width="213.919" height="23.133" fill="#EEE" style="stroke:#000;stroke-width:2;"/><text x="697.642" y="1516.059" fill="#000" font-size="13" textLength="195.394" font-weight="700">end of walk: the gone files</text><path d="M158.631,1538.125 L158.631,1684.125 L1560.631,1684.125 L1560.631,1548.125 L1550.631,1538.125 L158.631,1538.125" style="stroke:#181818;stroke-width:0.5;" fill="#90EE90"/><path d="M1550.631,1538.125 L1550.631,1548.125 L1560.631,1548.125 L1550.631,1538.125" style="stroke:#181818;stroke-width:0.5;" fill="#90EE90"/><text x="608.153" y="1555.192" fill="#000" font-size="13" textLength="246.34">The walk sends gone files only after a</text><text x="858.625" y="1555.192" fill="#000" font-size="13" textLength="67.793" font-weight="700">complete</text><text x="930.55" y="1555.192" fill="#000" font-size="13" textLength="133.548">walk with files found</text><text x="608.153" y="1570.325" fill="#000" font-size="13" textLength="409.018">(not on cancel, missing root, empty root), after the files it saw.</text><text x="608.153" y="1585.458" fill="#000" font-size="13" textLength="376.632">Files with CheckTime older than this walk, under the root,</text><text x="608.153" y="1600.59" fill="#000" font-size="13" textLength="494.355">not under an unreadable directory, are gone (their provider sees them first;</text><text x="608.153" y="1615.723" fill="#000" font-size="13" textLength="476.538">Apple also sends the files of assets trashed or hidden in Photos as gone).</text><text x="608.153" y="1630.856" fill="#000" font-size="13" textLength="211.942">The gate has the model apply it:</text><text x="608.153" y="1645.989" fill="#000" font-size="13" textLength="155.029">- main file gone -> item</text><text x="767.314" y="1645.989" fill="#000" font-size="13" textLength="57.218" font-weight="700">Deleted</text><text x="828.664" y="1645.989" fill="#000" font-size="13" textLength="211.815">(soft delete, hidden from /items)</text><text x="608.153" y="1661.122" fill="#000" font-size="13" textLength="145.71">- sidecar gone -> item</text><text x="757.995" y="1661.122" fill="#000" font-size="13" textLength="36.347" font-weight="700">Dirty</text><text x="798.474" y="1661.122" fill="#000" font-size="13" textLength="215.547">(its group passes the gate again)</text><text x="608.153" y="1676.254" fill="#000" font-size="13" textLength="116.797">- file rows deleted</text><?plantuml-src jLTDRnn54BtFhoZ28JjY74j8SDZOZd0C4H9224muO0wzCpKxBSzqZxfxlTdyUbvLp-wCSI0HWbookzrT7wzUlIf_DWQp7GmbzkyfXHqNHRAfP_hEzXnfQnAJSGqzcDus9lb0guQJiNqatrBgcBuVHXyIrPsnZXfhji4CPL7KtgNWUtgs3NutnZktCkv0qUz2pUKpCf7UwC7Y8dpb0tmeDluTsOPTiks1Fl_1Rhlqo_tXkaU4fnU1JGF3_CwsoVk-ehetCU91TUS63bkkgBLkos4CrgNizLjSdYrCQMM_RuyvpkUnytjuYFOzHvZls8mq1dwmlC_cReDniVOD5moK47G12sPZ8jEpcsjQRNqOyisRwwAulCo8NbuMXVFuu1yuJ42i5SszwUzf7-HClWQ_ZxHol7z54iFvaEp0WZMoQbxTkTSTr_UtyjibxjkexqlQSEj3jg3mSuX5za9dLuhlEX_Gxtz8eMbrTBQcrzaudTCRxxX4zixJ8CLjvUQ1KrcOEja7IKHBPVf4XhQuhLSAmZyv45ytrpcl0H3rpwFQf5Na79nWDj580o-uZwVqS2sPL26idij7HgM6KmBvnSvDRvxujec7eukSSOC8WDpghOrsquCYlncRm9AAVWQT3Y_ntzw7--nHKfC7-cLX-zq4OXFyI0AGSB0YV9ZVQcIeiXgWrO-yh-Z6XdIe9XSLWPKSmcvCt9H_TV4eIxNd6Y5PqV1Z-0kvA0zE_5qJM7aF1FNnUb6zBq2ZXciJ8beanxpeaBckSoi8P-Vc5-AUpXxLz-W2DLvOd7f7_7Rcow--bbBO52MNkA2Hz8P0tVeT627seXaow7ERdFnMSb_Ev1AD9dKgKVgjCx5Rww5t_O6W46ZQXlOTExMhV42V7EkYLvNzsfXIpvWxZsCgZxXh5Fe5FVqOwOiMMa6rxtsut42ThYusLm0s2gLekxDDaIcQKnkGIVDfUKac5GIrRJb01ZNFAcVMDpbhk5gw3znSILxgFkhLssFAWpb05GXDo20RU2tQUH0nnm_MkoYKqIUj3J7becPD1rec7bnTIkO22wIb-I0o5sVAXzqeafe39cXNffweovrBvfvFXH0z-FNxctyBxD_0Y9xn65tU7PCGqOQKRAMeBHBeM0B1qQJa6SoLJRayX5bIJbK3HPvFjFnerKv4bCefmUPtDU36Im534d-Atlz41zD7l-J38WuLfMOtzhR6J-K_5JI_-dYPje7PIPt4_XFkBoNwaxfwcQwahwUmtfa7SCYZcbjs78pEojsmYVz5krwS0yLpkNKroRKQMeWkmXGPVgo3fprW6ZahiLLMMO4h7GzBuPxrTKRYP69QTzu8cihXB5rY0pnc31mCz9f7F8_bIoGp3E1kPEWgifdcckH1Y0s_J0DEVb4vdwQkJDpS8gVH7J-ucKXbbZ4LjyT59OgEBv-hw9eMKmqR0LmZjb4KHwF9kuq5K_Fbt1uhwHJlg3QkPknmWyKAXs84xp7yUHZJGJy3p6nO8iu696kpVr7aNLKjpmiHsa8l6pTlHXKsXMOoeVObr-attDivKKK3zC2ym3K0nh0sOK98neGDK0t_OEK5jXYT5KFMp9V5DoEI9UsvZCmSAl36QYebIW5KXigWDfrjiE5Y2w2VEf-ywAnwAbyen3gHGFnvWI833mValIxE5bDTemC9bNb0_IQhl8A-YhvDa-vNHuzjy0ETotLCuRFZJl3KZj0_Mv6XdVUdKVB8CUM_3hQ8GwoSLFuuPOfJA_u9?></g></svg>