<svg xmlns="http://www.w3.org/2000/svg" xmlns:xlink="http://www.w3.org/1999/xlink" version="1.1" data-diagram-type="SEQUENCE" style="width:1634px;height:1842px;background:#FFFFFF;" width="1634px" height="1842px" viewBox="0 0 1634 1842" zoomAndPan="magnify" preserveAspectRatio="none" contentStyleType="text/css"><?plantuml 1.2026.8?><defs/><g font-family="sans-serif" lengthAdjust="spacing"><g class="title" data-source-line="4"><text x="573.128" y="27.995" fill="#000" font-size="14" textLength="485.789" font-weight="700">Files gate and validator (details of the Import chain diagram)</text></g><rect x="613.987" y="48.297" width="736.364" height="1779.375" fill="#87CEFA" style="stroke:#181818;stroke-width:0.5;"/><text x="951.589" y="60.364" fill="#000" font-size="13" textLength="56.634" font-weight="700">identify</text><rect x="504.51" y="297.984" width="1070.233" height="56.266" fill="none" style="stroke:#000;stroke-width:1.5;"/><rect x="485.51" y="372.25" width="1089.233" height="254.539" fill="none" style="stroke:#000;stroke-width:1.5;"/><rect x="504.51" y="495.586" width="285.604" height="117.203" fill="none" style="stroke:#000;stroke-width:1.5;"/><rect x="799.784" y="776.453" width="814.261" height="661.602" fill="none" style="stroke:#000;stroke-width:1.5;"/><g><title>groups</title><rect x="195.796" y="148.32" width="8" height="1592.461" fill="#000" fill-opacity="0"/><line x1="199.296" y1="148.32" x2="199.296" y2="1740.781" style="stroke:#181818;stroke-width:0.5;stroke-dasharray:5,5;"/></g><g><title>gate</title><rect x="517.01" y="148.32" width="8" height="1592.461" fill="#000" fill-opacity="0"/><line x1="520.51" y1="148.32" x2="520.51" y2="1740.781" style="stroke:#181818;stroke-width:0.5;stroke-dasharray:5,5;"/></g><g><title></title><rect x="515.51" y="285.984" width="10" height="354.805" fill="#FFF" style="stroke:#181818;stroke-width:1;"/></g><g><title>read</title><rect x="684.342" y="148.32" width="8" height="1592.461" fill="#000" fill-opacity="0"/><line x1="687.842" y1="148.32" x2="687.842" y2="1740.781" style="stroke:#181818;stroke-width:0.5;stroke-dasharray:5,5;"/></g><g><title>validate</title><rect x="942.924" y="148.32" width="8" height="1592.461" fill="#000" fill-opacity="0"/><line x1="946.424" y1="148.32" x2="946.424" y2="1740.781" style="stroke:#181818;stroke-width:0.5;stroke-dasharray:5,5;"/></g><g><title></title><rect x="941.424" y="677.055" width="10" height="796.133" fill="#FFF" style="stroke:#181818;stroke-width:1;"/></g><g><title>show</title><rect x="1117.376" y="148.32" width="8" height="1592.461" fill="#000" fill-opacity="0"/><line x1="1120.876" y1="148.32" x2="1120.876" y2="1740.781" style="stroke:#181818;stroke-width:0.5;stroke-dasharray:5,5;"/></g><g><title>DB .gorm.</title><rect x="1555.243" y="148.32" width="8" height="1592.461" fill="#000" fill-opacity="0"/><line x1="1558.743" y1="148.32" x2="1558.743" y2="1740.781" style="stroke:#181818;stroke-width:0.5;stroke-dasharray:5,5;"/></g><g><title></title><rect x="1553.743" y="764.453" width="10" height="665.602" fill="#FFF" style="stroke:#181818;stroke-width:1;"/></g><text x="172.165" y="128.722" fill="#000" font-size="14" textLength="48.262">groups</text><text x="152.341" y="145.019" fill="#000" font-size="14" textLength="87.91">(any source)</text><ellipse cx="199.296" cy="99.727" rx="12" ry="12" fill="#E2E2F0" style="stroke:#181818;stroke-width:0.5;"/><polygon points="195.296,87.727,201.296,82.727,199.296,87.727,201.296,92.727,195.296,87.727" fill="#181818" style="stroke:#181818;stroke-width:1;stroke-linejoin:miter;stroke-miterlimit:10;"/><text x="501.726" y="145.019" fill="#000" font-size="14" textLength="31.568">gate</text><ellipse cx="520.51" cy="116.023" rx="12" ry="12" fill="#E2E2F0" style="stroke:#181818;stroke-width:0.5;"/><polygon points="516.51,104.023,522.51,99.023,520.51,104.023,522.51,109.023,516.51,104.023" fill="#181818" style="stroke:#181818;stroke-width:1;stroke-linejoin:miter;stroke-miterlimit:10;"/><text x="668.925" y="112.425" fill="#000" font-size="14" textLength="31.835">read</text><text x="623.394" y="128.722" fill="#000" font-size="14" textLength="122.896">(exiftool, classify,</text><text x="617.987" y="145.019" fill="#000" font-size="14" textLength="133.711">merge, fingerprint)</text><ellipse cx="687.842" cy="83.43" rx="12" ry="12" fill="#E2E2F0" style="stroke:#181818;stroke-width:0.5;"/><polygon points="683.842,71.43,689.842,66.43,687.842,71.43,689.842,76.43,683.842,71.43" fill="#181818" style="stroke:#181818;stroke-width:1;stroke-linejoin:miter;stroke-miterlimit:10;"/><text x="915.318" y="145.019" fill="#000" font-size="14" textLength="56.212">validate</text><ellipse cx="946.424" cy="116.023" rx="12" ry="12" fill="#E2E2F0" style="stroke:#181818;stroke-width:0.5;"/><polygon points="942.424,104.023,948.424,99.023,946.424,104.023,948.424,109.023,942.424,104.023" fill="#181818" style="stroke:#181818;stroke-width:1;stroke-linejoin:miter;stroke-miterlimit:10;"/><text x="1099.785" y="128.722" fill="#000" font-size="14" textLength="36.183">show</text><text x="1039.448" y="145.019" fill="#000" font-size="14" textLength="156.857">(sizes, cheap preview)</text><ellipse cx="1120.876" cy="99.727" rx="12" ry="12" fill="#E2E2F0" style="stroke:#181818;stroke-width:0.5;"/><polygon points="1116.876,87.727,1122.876,82.727,1120.876,87.727,1122.876,92.727,1116.876,87.727" fill="#181818" style="stroke:#181818;stroke-width:1;stroke-linejoin:miter;stroke-miterlimit:10;"/><text x="1519.441" y="145.019" fill="#000" font-size="14" textLength="72.604">DB (gorm)</text><path d="M1540.743,96.023 C1540.743,86.023 1558.743,86.023 1558.743,86.023 C1558.743,86.023 1576.743,86.023 1576.743,96.023 L1576.743,122.023 C1576.743,132.023 1558.743,132.023 1558.743,132.023 C1558.743,132.023 1540.743,132.023 1540.743,122.023 L1540.743,96.023" style="stroke:#181818;stroke-width:0.5;" fill="#E2E2F0"/><path d="M1540.743,96.023 C1540.743,106.023 1558.743,106.023 1558.743,106.023 C1558.743,106.023 1576.743,106.023 1576.743,96.023" style="stroke:#181818;stroke-width:0.5;" fill="none"/><text x="172.165" y="1753.776" fill="#000" font-size="14" textLength="48.262">groups</text><text x="152.341" y="1770.073" fill="#000" font-size="14" textLength="87.91">(any source)</text><ellipse cx="199.296" cy="1789.375" rx="12" ry="12" fill="#E2E2F0" style="stroke:#181818;stroke-width:0.5;"/><polygon points="195.296,1777.375,201.296,1772.375,199.296,1777.375,201.296,1782.375,195.296,1777.375" fill="#181818" style="stroke:#181818;stroke-width:1;stroke-linejoin:miter;stroke-miterlimit:10;"/><text x="501.726" y="1753.776" fill="#000" font-size="14" textLength="31.568">gate</text><ellipse cx="520.51" cy="1773.078" rx="12" ry="12" fill="#E2E2F0" style="stroke:#181818;stroke-width:0.5;"/><polygon points="516.51,1761.078,522.51,1756.078,520.51,1761.078,522.51,1766.078,516.51,1761.078" fill="#181818" style="stroke:#181818;stroke-width:1;stroke-linejoin:miter;stroke-miterlimit:10;"/><text x="668.925" y="1753.776" fill="#000" font-size="14" textLength="31.835">read</text><text x="623.394" y="1770.073" fill="#000" font-size="14" textLength="122.896">(exiftool, classify,</text><text x="617.987" y="1786.37" fill="#000" font-size="14" textLength="133.711">merge, fingerprint)</text><ellipse cx="687.842" cy="1805.672" rx="12" ry="12" fill="#E2E2F0" style="stroke:#181818;stroke-width:0.5;"/><polygon points="683.842,1793.672,689.842,1788.672,687.842,1793.672,689.842,1798.672,683.842,1793.672" fill="#181818" style="stroke:#181818;stroke-width:1;stroke-linejoin:miter;stroke-miterlimit:10;"/><text x="915.318" y="1753.776" fill="#000" font-size="14" textLength="56.212">validate</text><ellipse cx="946.424" cy="1773.078" rx="12" ry="12" fill="#E2E2F0" style="stroke:#181818;stroke-width:0.5;"/><polygon points="942.424,1761.078,948.424,1756.078,946.424,1761.078,948.424,1766.078,942.424,1761.078" fill="#181818" style="stroke:#181818;stroke-width:1;stroke-linejoin:miter;stroke-miterlimit:10;"/><text x="1099.785" y="1753.776" fill="#000" font-size="14" textLength="36.183">show</text><text x="1039.448" y="1770.073" fill="#000" font-size="14" textLength="156.857">(sizes, cheap preview)</text><ellipse cx="1120.876" cy="1789.375" rx="12" ry="12" fill="#E2E2F0" style="stroke:#181818;stroke-width:0.5;"/><polygon points="1116.876,1777.375,1122.876,1772.375,1120.876,1777.375,1122.876,1782.375,1116.876,1777.375" fill="#181818" style="stroke:#181818;stroke-width:1;stroke-linejoin:miter;stroke-miterlimit:10;"/><text x="1519.441" y="1753.776" fill="#000" font-size="14" textLength="72.604">DB (gorm)</text><path d="M1540.743,1767.078 C1540.743,1757.078 1558.743,1757.078 1558.743,1757.078 C1558.743,1757.078 1576.743,1757.078 1576.743,1767.078 L1576.743,1793.078 C1576.743,1803.078 1558.743,1803.078 1558.743,1803.078 C1558.743,1803.078 1540.743,1803.078 1540.743,1793.078 L1540.743,1767.078" style="stroke:#181818;stroke-width:0.5;" fill="#E2E2F0"/><path d="M1540.743,1767.078 C1540.743,1777.078 1558.743,1777.078 1558.743,1777.078 C1558.743,1777.078 1576.743,1777.078 1576.743,1767.078" style="stroke:#181818;stroke-width:0.5;" fill="none"/><rect x="10" y="176.887" width="1613.045" height="3" fill="#EEE" style="stroke:#EEE;stroke-width:1;"/><line x1="10" y1="176.887" x2="1623.045" y2="176.887" style="stroke:#000;stroke-width:1;"/><line x1="10" y1="179.887" x2="1623.045" y2="179.887" style="stroke:#000;stroke-width:1;"/><rect x="790.705" y="166.32" width="51.635" height="23.133" fill="#EEE" style="stroke:#000;stroke-width:2;"/><text x="796.705" y="182.387" fill="#000" font-size="13" textLength="33.109" font-weight="700">gate</text><path d="M15,204.453 L15,244.453 L383,244.453 L383,214.453 L373,204.453 L15,204.453" style="stroke:#181818;stroke-width:0.5;" fill="#FEFFDD"/><path d="M373,204.453 L373,214.453 L383,214.453 L373,204.453" style="stroke:#181818;stroke-width:0.5;" fill="#FEFFDD"/><text x="21" y="221.52" fill="#000" font-size="13" textLength="347.591">the walk wrote the rows (new? size/mtime changed?)</text><text x="21" y="236.653" fill="#000" font-size="13" textLength="346.817">before the groupers; unchanged rows are not written</text><polygon points="503.51,281.984,513.51,285.984,503.51,289.984,507.51,285.984" fill="#181818" style="stroke:#181818;stroke-width:1;stroke-linejoin:miter;stroke-miterlimit:10;"/><line x1="199.296" y1="285.984" x2="509.51" y2="285.984" style="stroke:#181818;stroke-width:1;"/><text x="206.296" y="265.786" fill="#000" font-size="13" textLength="249.831">a whole asset: its files (changed?) and</text><text x="206.296" y="280.918" fill="#000" font-size="13" textLength="292.214">the files gone for the library; no main file yet</text><path d="M504.51,297.984 L573.961,297.984 L573.961,305.117 L563.961,315.117 L504.51,315.117 L504.51,297.984" style="stroke:#000;stroke-width:1.5;" fill="#EEE"/><rect x="504.51" y="297.984" width="1070.233" height="56.266" fill="none" style="stroke:#000;stroke-width:1.5;"/><text x="519.51" y="311.051" fill="#000" font-size="13" textLength="24.451" font-weight="700">opt</text><text x="588.961" y="310.195" fill="#000" font-size="11" textLength="57.342" font-weight="700">[Missing]</text><polygon points="1546.743,342.25,1556.743,346.25,1546.743,350.25,1550.743,346.25" fill="#181818" style="stroke:#181818;stroke-width:1;stroke-linejoin:miter;stroke-miterlimit:10;"/><line x1="525.51" y1="346.25" x2="1552.743" y2="346.25" style="stroke:#181818;stroke-width:1;"/><text x="532.51" y="341.184" fill="#000" font-size="13" textLength="281.823">the model's Gone (see the end of the walk)</text><path d="M485.51,372.25 L549.953,372.25 L549.953,379.383 L539.953,389.383 L485.51,389.383 L485.51,372.25" style="stroke:#000;stroke-width:1.5;" fill="#EEE"/><rect x="485.51" y="372.25" width="1089.233" height="254.539" fill="none" style="stroke:#000;stroke-width:1.5;"/><text x="500.51" y="385.317" fill="#000" font-size="13" textLength="19.443" font-weight="700">alt</text><text x="564.953" y="384.46" fill="#000" font-size="11" textLength="133.461" font-weight="700">[changed (stat, role)]</text><polygon points="675.842,416.516,685.842,420.516,675.842,424.516,679.842,420.516" fill="#181818" style="stroke:#181818;stroke-width:1;stroke-linejoin:miter;stroke-miterlimit:10;"/><line x1="525.51" y1="420.516" x2="681.842" y2="420.516" style="stroke:#181818;stroke-width:1;"/><text x="532.51" y="415.45" fill="#000" font-size="13" textLength="38.042">group</text><line x1="485.51" y1="429.516" x2="1574.743" y2="429.516" style="stroke:#000;stroke-width:1;stroke-dasharray:2,2;"/><text x="490.51" y="441.726" fill="#000" font-size="11" textLength="78.531" font-weight="700">[unchanged]</text><polygon points="1546.743,479.586,1556.743,483.586,1546.743,487.586,1550.743,483.586" fill="#181818" style="stroke:#181818;stroke-width:1;stroke-linejoin:miter;stroke-miterlimit:10;"/><line x1="525.51" y1="483.586" x2="1552.743" y2="483.586" style="stroke:#181818;stroke-width:1;"/><text x="532.51" y="463.387" fill="#000" font-size="13" textLength="157.149">item of the group done?</text><text x="532.51" y="478.52" fill="#000" font-size="13" textLength="217.001">(Visible, Waiting, Ready; Rework)</text><path d="M504.51,495.586 L568.953,495.586 L568.953,502.719 L558.953,512.719 L504.51,512.719 L504.51,495.586" style="stroke:#000;stroke-width:1.5;" fill="#EEE"/><rect x="504.51" y="495.586" width="285.604" height="117.203" fill="none" style="stroke:#000;stroke-width:1.5;"/><text x="519.51" y="508.653" fill="#000" font-size="13" textLength="19.443" font-weight="700">alt</text><text x="583.953" y="507.796" fill="#000" font-size="11" textLength="40.777" font-weight="700">[done]</text><line x1="525.51" y1="543.852" x2="567.51" y2="543.852" style="stroke:#181818;stroke-width:1;"/><line x1="567.51" y1="543.852" x2="567.51" y2="556.852" style="stroke:#181818;stroke-width:1;"/><line x1="538.51" y1="556.852" x2="567.51" y2="556.852" style="stroke:#181818;stroke-width:1;"/><line x1="531.51" y1="551.852" x2="541.51" y2="561.852" style="stroke:#181818;stroke-width:2;"/><line x1="531.51" y1="561.852" x2="541.51" y2="551.852" style="stroke:#181818;stroke-width:2;"/><text x="532.51" y="538.786" fill="#000" font-size="13" textLength="148.332">drop (no exif, no work)</text><line x1="504.51" y1="565.852" x2="790.114" y2="565.852" style="stroke:#000;stroke-width:1;stroke-dasharray:2,2;"/><text x="509.51" y="578.062" fill="#000" font-size="11" textLength="278.604" font-weight="700">[not done (New, Dirty, Rework, interrupted)]</text><polygon points="675.842,600.789,685.842,604.789,675.842,608.789,679.842,604.789" fill="#181818" style="stroke:#181818;stroke-width:1;stroke-linejoin:miter;stroke-miterlimit:10;"/><line x1="525.51" y1="604.789" x2="681.842" y2="604.789" style="stroke:#181818;stroke-width:1;"/><text x="532.51" y="599.723" fill="#000" font-size="13" textLength="38.042">group</text><polygon points="929.424,673.055,939.424,677.055,929.424,681.055,933.424,677.055" fill="#181818" style="stroke:#181818;stroke-width:1;stroke-linejoin:miter;stroke-miterlimit:10;"/><line x1="687.842" y1="677.055" x2="935.424" y2="677.055" style="stroke:#181818;stroke-width:1;"/><text x="694.842" y="656.856" fill="#000" font-size="13" textLength="229.582">ranked group: main file + sidecars,</text><text x="694.842" y="671.989" fill="#000" font-size="13" textLength="100.712">exif, fingerprint</text><rect x="10" y="705.621" width="1613.045" height="3" fill="#EEE" style="stroke:#EEE;stroke-width:1;"/><line x1="10" y1="705.621" x2="1623.045" y2="705.621" style="stroke:#000;stroke-width:1;"/><line x1="10" y1="708.621" x2="1623.045" y2="708.621" style="stroke:#000;stroke-width:1;"/><rect x="774.363" y="695.055" width="84.319" height="23.133" fill="#EEE" style="stroke:#000;stroke-width:2;"/><text x="780.363" y="711.122" fill="#000" font-size="13" textLength="65.793" font-weight="700">validator</text><polygon points="1541.743,760.453,1551.743,764.453,1541.743,768.453,1545.743,764.453" fill="#181818" style="stroke:#181818;stroke-width:1;stroke-linejoin:miter;stroke-miterlimit:10;"/><line x1="951.424" y1="764.453" x2="1547.743" y2="764.453" style="stroke:#181818;stroke-width:1;"/><text x="958.424" y="744.254" fill="#000" font-size="13" textLength="164.925">the main file's fingerprint</text><text x="958.424" y="759.387" fill="#000" font-size="13" textLength="173.97">(size + sha256 of its ends)</text><path d="M799.784,776.453 L864.227,776.453 L864.227,783.586 L854.227,793.586 L799.784,793.586 L799.784,776.453" style="stroke:#000;stroke-width:1.5;" fill="#EEE"/><rect x="799.784" y="776.453" width="814.261" height="661.602" fill="none" style="stroke:#000;stroke-width:1.5;"/><text x="814.784" y="789.52" fill="#000" font-size="13" textLength="19.443" font-weight="700">alt</text><text x="879.227" y="788.664" fill="#000" font-size="11" textLength="107.035" font-weight="700">[found the same]</text><path d="M916.22,808.586 L916.22,863.586 L1588.22,863.586 L1588.22,818.586 L1578.22,808.586 L916.22,808.586" style="stroke:#181818;stroke-width:0.5;" fill="#FEFFDD"/><path d="M1578.22,808.586 L1578.22,818.586 L1588.22,818.586 L1578.22,808.586" style="stroke:#181818;stroke-width:0.5;" fill="#FEFFDD"/><text x="1118.433" y="825.653" fill="#000" font-size="13" textLength="176.941">same path and same hash:</text><text x="1118.433" y="840.786" fill="#000" font-size="13" textLength="259.302">only reached when the item is not done</text><text x="1118.433" y="855.918" fill="#000" font-size="13" textLength="160.443">(the gate drops the rest)</text><polygon points="962.424,886.117,952.424,890.117,962.424,894.117,958.424,890.117" fill="#181818" style="stroke:#181818;stroke-width:1;stroke-linejoin:miter;stroke-miterlimit:10;"/><line x1="956.424" y1="890.117" x2="1552.743" y2="890.117" style="stroke:#181818;stroke-width:1;"/><text x="968.424" y="885.051" fill="#00F" font-size="13" textLength="95.475" font-weight="700">existing guid</text><line x1="799.784" y1="899.117" x2="1614.045" y2="899.117" style="stroke:#000;stroke-width:1;stroke-dasharray:2,2;"/><text x="804.784" y="911.328" fill="#000" font-size="11" textLength="91.287" font-weight="700">[found moved]</text><path d="M916.22,921.922 L916.22,991.922 L1588.22,991.922 L1588.22,931.922 L1578.22,921.922 L916.22,921.922" style="stroke:#181818;stroke-width:0.5;" fill="#FEFFDD"/><path d="M1578.22,921.922 L1578.22,931.922 L1588.22,931.922 L1578.22,921.922" style="stroke:#181818;stroke-width:0.5;" fill="#FEFFDD"/><text x="1092.461" y="938.989" fill="#000" font-size="13" textLength="172.529">same hash, different path,</text><text x="1092.461" y="954.122" fill="#000" font-size="13" textLength="53.504">old path</text><text x="1150.098" y="954.122" fill="#F00" font-size="13" textLength="72.274" font-weight="700">not exists</text><text x="1092.461" y="969.254" fill="#000" font-size="13" textLength="311.245">The item may be deleted already (deletions ran</text><text x="1092.461" y="984.387" fill="#000" font-size="13" textLength="234.736">first: the chain is async) -> restored</text><line x1="1511.743" y1="1033.719" x2="1552.743" y2="1033.719" style="stroke:#181818;stroke-width:1;"/><line x1="1511.743" y1="1033.719" x2="1511.743" y2="1046.719" style="stroke:#181818;stroke-width:1;"/><line x1="1511.743" y1="1046.719" x2="1551.743" y2="1046.719" style="stroke:#181818;stroke-width:1;"/><polygon points="1541.743,1042.719,1551.743,1046.719,1541.743,1050.719,1545.743,1046.719" fill="#181818" style="stroke:#181818;stroke-width:1;stroke-linejoin:miter;stroke-miterlimit:10;"/><text x="1373.35" y="1013.52" fill="#000" font-size="13" textLength="173.393">update path, new file rows</text><text x="1373.35" y="1028.653" fill="#000" font-size="13" textLength="135.472">take the item's GUID</text><polygon points="962.424,1071.852,952.424,1075.852,962.424,1079.852,958.424,1075.852" fill="#181818" style="stroke:#181818;stroke-width:1;stroke-linejoin:miter;stroke-miterlimit:10;"/><line x1="956.424" y1="1075.852" x2="1552.743" y2="1075.852" style="stroke:#181818;stroke-width:1;"/><text x="968.424" y="1070.786" fill="#00F" font-size="13" textLength="95.475" font-weight="700">existing guid</text><path d="M820.784,1088.852 L820.784,1128.852 L1071.784,1128.852 L1071.784,1098.852 L1061.784,1088.852 L820.784,1088.852" style="stroke:#181818;stroke-width:0.5;" fill="#FEFFDD"/><path d="M1061.784,1088.852 L1061.784,1098.852 L1071.784,1098.852 L1061.784,1088.852" style="stroke:#181818;stroke-width:0.5;" fill="#FEFFDD"/><text x="826.784" y="1105.918" fill="#000" font-size="13" textLength="230.28">goes on: the cheap stage refreshes</text><text x="826.784" y="1121.051" fill="#000" font-size="13" textLength="207.499">the preview path (it moved too)</text><line x1="799.784" y1="1135.117" x2="1614.045" y2="1135.117" style="stroke:#000;stroke-width:1;stroke-dasharray:2,2;"/><text x="804.784" y="1147.328" fill="#000" font-size="11" textLength="81.651" font-weight="700">[don't found]</text><path d="M916.22,1157.922 L916.22,1197.922 L1588.22,1197.922 L1588.22,1167.922 L1578.22,1157.922 L916.22,1157.922" style="stroke:#181818;stroke-width:0.5;" fill="#FEFFDD"/><path d="M1578.22,1157.922 L1578.22,1167.922 L1588.22,1167.922 L1578.22,1157.922" style="stroke:#181818;stroke-width:0.5;" fill="#FEFFDD"/><text x="1167.928" y="1174.989" fill="#000" font-size="13" textLength="160.31">path and hash not found</text><text x="1167.928" y="1190.122" fill="#000" font-size="13" textLength="106.057">create new item</text><path d="M916.22,1208.188 L916.22,1263.188 L1588.22,1263.188 L1588.22,1218.188 L1578.22,1208.188 L916.22,1208.188" style="stroke:#181818;stroke-width:0.5;" fill="#FEFFDD"/><path d="M1578.22,1208.188 L1578.22,1218.188 L1588.22,1218.188 L1578.22,1208.188" style="stroke:#181818;stroke-width:0.5;" fill="#FEFFDD"/><text x="1160.419" y="1225.254" fill="#000" font-size="13" textLength="172.529">same hash, different path,</text><text x="1160.419" y="1240.387" fill="#000" font-size="13" textLength="53.504">old path</text><text x="1218.056" y="1240.387" fill="#F00" font-size="13" textLength="77.771" font-weight="700">also exists</text><text x="1160.419" y="1255.52" fill="#000" font-size="13" textLength="175.329">create new one (duplicate)</text><line x1="1511.743" y1="1289.719" x2="1552.743" y2="1289.719" style="stroke:#181818;stroke-width:1;"/><line x1="1511.743" y1="1289.719" x2="1511.743" y2="1302.719" style="stroke:#181818;stroke-width:1;"/><line x1="1511.743" y1="1302.719" x2="1551.743" y2="1302.719" style="stroke:#181818;stroke-width:1;"/><polygon points="1541.743,1298.719,1551.743,1302.719,1541.743,1306.719,1545.743,1302.719" fill="#181818" style="stroke:#181818;stroke-width:1;stroke-linejoin:miter;stroke-miterlimit:10;"/><text x="1505.191" y="1284.653" fill="#000" font-size="13" textLength="41.552">create</text><polygon points="962.424,1327.852,952.424,1331.852,962.424,1335.852,958.424,1331.852" fill="#181818" style="stroke:#181818;stroke-width:1;stroke-linejoin:miter;stroke-miterlimit:10;"/><line x1="956.424" y1="1331.852" x2="1552.743" y2="1331.852" style="stroke:#181818;stroke-width:1;"/><text x="968.424" y="1326.786" fill="#008000" font-size="13" textLength="66.93" font-weight="700">new guid</text><line x1="799.784" y1="1340.852" x2="1614.045" y2="1340.852" style="stroke:#000;stroke-width:1;stroke-dasharray:2,2;"/><text x="804.784" y="1353.062" fill="#000" font-size="11" textLength="102.577" font-weight="700">[found changed]</text><path d="M916.22,1363.656 L916.22,1403.656 L1588.22,1403.656 L1588.22,1373.656 L1578.22,1363.656 L916.22,1363.656" style="stroke:#181818;stroke-width:0.5;" fill="#FEFFDD"/><path d="M1578.22,1363.656 L1578.22,1373.656 L1588.22,1373.656 L1578.22,1363.656" style="stroke:#181818;stroke-width:0.5;" fill="#FEFFDD"/><text x="1147.587" y="1380.723" fill="#000" font-size="13" textLength="168.397">same path, different hash</text><text x="1147.587" y="1395.856" fill="#000" font-size="13" textLength="200.992" font-weight="700">have to regenerate thumbs</text><polygon points="962.424,1426.055,952.424,1430.055,962.424,1434.055,958.424,1430.055" fill="#181818" style="stroke:#181818;stroke-width:1;stroke-linejoin:miter;stroke-miterlimit:10;"/><line x1="956.424" y1="1430.055" x2="1552.743" y2="1430.055" style="stroke:#181818;stroke-width:1;"/><text x="968.424" y="1424.989" fill="#00F" font-size="13" textLength="95.475" font-weight="700">existing guid</text><text x="1063.899" y="1424.989" fill="#000" font-size="13" textLength="40.022">, Dirty</text><polygon points="1108.876,1469.188,1118.876,1473.188,1108.876,1477.188,1112.876,1473.188" fill="#181818" style="stroke:#181818;stroke-width:1;stroke-linejoin:miter;stroke-miterlimit:10;"/><line x1="951.424" y1="1473.188" x2="1114.876" y2="1473.188" style="stroke:#181818;stroke-width:1;"/><text x="958.424" y="1468.122" fill="#000" font-size="13" textLength="150.452">item (guid), group, exif</text><path d="M900.402,1486.188 L900.402,1511.188 L1340.402,1511.188 L1340.402,1496.188 L1330.402,1486.188 L900.402,1486.188" style="stroke:#181818;stroke-width:0.5;" fill="#90EE90"/><path d="M1330.402,1486.188 L1330.402,1496.188 L1340.402,1496.188 L1330.402,1486.188" style="stroke:#181818;stroke-width:0.5;" fill="#90EE90"/><text x="906.402" y="1503.254" fill="#000" font-size="13" textLength="288.165">then the exif step (perceptors); commit sets</text><text x="1198.699" y="1503.254" fill="#000" font-size="13" textLength="49.29" font-weight="700">Visible</text><text x="1252.121" y="1503.254" fill="#000" font-size="13" textLength="13.298">or</text><text x="1269.552" y="1503.254" fill="#000" font-size="13" textLength="56.799" font-weight="700">Waiting</text><rect x="10" y="1536.887" width="1613.045" height="3" fill="#EEE" style="stroke:#EEE;stroke-width:1;"/><line x1="10" y1="1536.887" x2="1623.045" y2="1536.887" style="stroke:#000;stroke-width:1;"/><line x1="10" y1="1539.887" x2="1623.045" y2="1539.887" style="stroke:#000;stroke-width:1;"/><rect x="699.47" y="1526.32" width="234.105" height="23.133" fill="#EEE" style="stroke:#000;stroke-width:2;"/><text x="705.47" y="1542.387" fill="#000" font-size="13" textLength="215.579" font-weight="700">end of walk: the missing files</text><path d="M161.167,1564.453 L161.167,1725.453 L1596.167,1725.453 L1596.167,1574.453 L1586.167,1564.453 L161.167,1564.453" style="stroke:#181818;stroke-width:0.5;" fill="#90EE90"/><path d="M1586.167,1564.453 L1586.167,1574.453 L1596.167,1574.453 L1586.167,1564.453" style="stroke:#181818;stroke-width:0.5;" fill="#90EE90"/><text x="619.432" y="1581.52" fill="#000" font-size="13" textLength="263.821">The walk sends missing files only after a</text><text x="887.386" y="1581.52" fill="#000" font-size="13" textLength="67.793" font-weight="700">complete</text><text x="959.311" y="1581.52" fill="#000" font-size="13" textLength="133.548">walk with files found</text><text x="619.432" y="1596.653" fill="#000" font-size="13" textLength="409.018">(not on cancel, missing root, empty root), after the files it saw.</text><text x="619.432" y="1611.786" fill="#000" font-size="13" textLength="391.777">Rows the walk did not see (read at its start), under the root,</text><text x="619.432" y="1626.918" fill="#000" font-size="13" textLength="510.174">not under an unreadable directory, are missing; their provider decides what is</text><text x="619.432" y="1642.051" fill="#000" font-size="13" textLength="368.45">gone for the library (Apple also counts the files of assets</text><text x="619.432" y="1657.184" fill="#000" font-size="13" textLength="189.001">trashed or hidden in Photos).</text><text x="619.432" y="1672.317" fill="#000" font-size="13" textLength="211.942">The gate has the model apply it:</text><text x="619.432" y="1687.45" fill="#000" font-size="13" textLength="155.029">- main file gone -> item</text><text x="778.594" y="1687.45" fill="#000" font-size="13" textLength="57.218" font-weight="700">Deleted</text><text x="839.944" y="1687.45" fill="#000" font-size="13" textLength="211.815">(soft delete, hidden from /items)</text><text x="619.432" y="1702.583" fill="#000" font-size="13" textLength="145.71">- sidecar gone -> item</text><text x="769.275" y="1702.583" fill="#000" font-size="13" textLength="36.347" font-weight="700">Dirty</text><text x="809.754" y="1702.583" fill="#000" font-size="13" textLength="215.547">(its group passes the gate again)</text><text x="619.432" y="1717.715" fill="#000" font-size="13" textLength="116.797">- file rows deleted</text><?plantuml-src jLTDRzms4BthLqpJGoHKZe42xM7z4THm6mHeYy9DquilN6aa4PP8WUHwi_drVKDg9MtiDa7H1WYYbSZvUFFcpUIhqQbsK1JOVgJWTfnbGOUUwIVTiwTM1IPbQdfKlQvLi8xoceFIlIVRKEYOtWwZTO6gJcb3jLQjKqEHPPKrmTcUNhJExaP_Rt9b3kJjpbLSl23bwKtyi3e8N-a37hAj_K2wPXDqSw2lVzPj5tv_EDpqY72-uLZLCCmVT1EixKkgUkKzBfJtPc3NSacDDYsxqMaJajSVSNYnCAML_Bu_vhXyzvtTmuFN7zd3VCTgfD7ne-PzClVEAUChMtF6G0b1Px2WjieplRYzeRorRaWdRs-oxEeg8NfrbMN6ui4-ifk0s4Gqzwf_eBsJR_BJsRsdtF3-DKaCvqFG0mlMoAf-NToRBJVMfRCHQ7R-WdPcEf7kAno0DvZL8R39aZywkuv8RqZHlhCeER3Zi24TF62JwkUp8-70lH4lwKjh3Hx11ddLwwrJxd019pG82-GC7JXagWhwKHAE9RLZe5yq2cJQZF17NaeKjpSfzm4mzYzHVp6UUqvf2QuJrGISGe3EL1-EAE1aKA54gZqN9tQbr9i4IyOzAZBZyiIz3ZmSlSGBL2E8roZzU-trjWUJ_bGw8FAIxi0w97l7U-iUaaS9Hox47olR7oQ4QsT7bD6IKBKKd9QxCJ8fJntJ_fNt9Trg5mxbvA8aa9UTsus1w-9J5oTPHdk0H_xMV8f-9WVbmapp3O6y3q0mNjwiQlSDs5PpfPn79wMOLusqb7Nf6A7seX72x_dRIOcFBbxwjSMfnSHlfxxzxdifXT0GUVXYSISj950tTWTIY3slXWJwqasptrBEopSvHACANLIo-AjJljl4ZzRq1uAGeBThz06RQ3VoGVkvBl5e7jaXWKWzVMfGzg4uuXwZY3_G-gT8NpQG5AfiRztL5Y9sVRcz1h1UA4NjJjTPecXARK0czPVb9PcKqDscOGUrZ7cMARE-Jbd3rTgzu_fQyehkVJpwxfZoe0wqHNxSCyW6Nel47aJpyK9RuuKoyKgZdG-fg4dwWPRo1rCLahd00bsgdqNcyYpoOJUAygQ02HANg2UA1QLH3pmNGYJXZxUt_nROlu4HFMEXPDOSan1jXvIqKjG62NJia-HDWf_0p7L8vI6Cd6Ag6YZoSgBbPwis4r4g5mcstAi0DsuA69BuK_J-9pgetjir7rPnH56gTsElAxmg_gcWwTRdozGwPYDr4ljFkB-Mw2_gwdMwadxy2kkTUWI7BAhPic6duaZT3Ll_NxJhvJbGF9TJrvDSHqChqKMO8iEdEZYl2zF8oSLMKIO5BkDuM0ltegyB4hE9QIjw8sX63YVf4XlWCMFWO1keUCHrNrmWcM40Tp7YlQ0ppJN9Wn0Rtam3Jjv4EPy6hmpTIRpJx9vMWETs62dEEgpitN6byIBbdrY8qgiQp3Qi80W04OwYEp6cj0Xfy3KTJasIIxzOGvKo5MFXEnfqrc85u64CX_WCI9FXPMMHtDN-LNOdAz6yQjKwqe1asyX5x4Y5E7gW14xCmEja9lgGbATtok11hYZW24EEAq2DiItxrXJOXTpK3X9Y7xLSmbJ5lnwJHlpuxBb5Yl8Vnb7sCUdA2da7lye39OcBci-20ziXHBZTwHgxCXO5-gspmVhYLOG-3YlqnB9UaOBf0pBSP6UhWH_303yZAL6AspG0OYLoRvimZOJowAbnTg1pEOu1VNPS5vxQaSv8LWJKj5gD4d-AAVt_eaKSOcKU0CS1bCrT-XS0?></g></svg>