<svg xmlns="http://www.w3.org/2000/svg" xmlns:xlink="http://www.w3.org/1999/xlink" version="1.1" data-diagram-type="SEQUENCE" style="width:1410px;height:1409px;background:#FFFFFF;" width="1410px" height="1409px" viewBox="0 0 1410 1409" zoomAndPan="magnify" preserveAspectRatio="none" contentStyleType="text/css"><?plantuml 1.2026.8?><defs/><g font-family="sans-serif" lengthAdjust="spacing"><rect x="460.541" y="11" width="504.563" height="1383.648" fill="#87CEFA" style="stroke:#181818;stroke-width:0.5;"/><text x="667.202" y="23.067" fill="#000" font-size="13" textLength="86.715" font-weight="700">GateKeeper</text><rect x="517.046" y="457.688" width="361.149" height="596.203" fill="none" style="stroke:#000;stroke-width:1.5;"/><g><title>fp.Walk</title><rect x="143.629" y="78.43" width="8" height="1261.922" fill="#000" fill-opacity="0"/><line x1="147.129" y1="78.43" x2="147.129" y2="1340.352" style="stroke:#181818;stroke-width:0.5;stroke-dasharray:5,5;"/></g><g><title></title><rect x="142.129" y="86.43" width="10" height="116.797" fill="#FFF" style="stroke:#181818;stroke-width:1;"/></g><g><title>fileCh</title><rect x="241.672" y="78.43" width="8" height="1261.922" fill="#000" fill-opacity="0"/><line x1="245.172" y1="78.43" x2="245.172" y2="1340.352" style="stroke:#181818;stroke-width:0.5;stroke-dasharray:5,5;"/></g><g><title></title><rect x="240.172" y="203.227" width="10" height="29.133" fill="#FFF" style="stroke:#181818;stroke-width:1;"/></g><g><title>exifreader</title><rect x="339.716" y="78.43" width="8" height="1261.922" fill="#000" fill-opacity="0"/><line x1="343.216" y1="78.43" x2="343.216" y2="1340.352" style="stroke:#181818;stroke-width:0.5;stroke-dasharray:5,5;"/></g><g><title></title><rect x="338.216" y="232.359" width="10" height="29.133" fill="#F08080" style="stroke:#181818;stroke-width:1;"/></g><g><title>exifCh</title><rect x="419.859" y="78.43" width="8" height="1261.922" fill="#000" fill-opacity="0"/><line x1="423.359" y1="78.43" x2="423.359" y2="1340.352" style="stroke:#181818;stroke-width:0.5;stroke-dasharray:5,5;"/></g><g><title></title><rect x="418.359" y="261.492" width="10" height="124.797" fill="#F08080" style="stroke:#181818;stroke-width:1;"/></g><g><title>validator</title><rect x="597.925" y="78.43" width="8" height="1261.922" fill="#000" fill-opacity="0"/><line x1="601.425" y1="78.43" x2="601.425" y2="1340.352" style="stroke:#181818;stroke-width:0.5;stroke-dasharray:5,5;"/></g><g><title></title><rect x="596.425" y="386.289" width="10" height="59.398" fill="#FFF" style="stroke:#181818;stroke-width:1;"/></g><g><title></title><rect x="596.425" y="947.688" width="10" height="141.336" fill="#FFF" style="stroke:#181818;stroke-width:1;"/></g><g><title>gorm</title><rect x="790.317" y="78.43" width="8" height="1261.922" fill="#000" fill-opacity="0"/><line x1="793.817" y1="78.43" x2="793.817" y2="1340.352" style="stroke:#181818;stroke-width:0.5;stroke-dasharray:5,5;"/></g><g><title></title><rect x="788.817" y="445.688" width="10" height="600.203" fill="#FFF" style="stroke:#181818;stroke-width:1;"/></g><g><title>decorator</title><rect x="920.65" y="78.43" width="8" height="1261.922" fill="#000" fill-opacity="0"/><line x1="924.15" y1="78.43" x2="924.15" y2="1340.352" style="stroke:#181818;stroke-width:0.5;stroke-dasharray:5,5;"/></g><g><title></title><rect x="919.15" y="1089.023" width="10" height="29.133" fill="#FFF" style="stroke:#181818;stroke-width:1;"/></g><g><title>itemCh</title><rect x="1186.952" y="78.43" width="8" height="1261.922" fill="#000" fill-opacity="0"/><line x1="1190.452" y1="78.43" x2="1190.452" y2="1340.352" style="stroke:#181818;stroke-width:0.5;stroke-dasharray:5,5;"/></g><text x="117.786" y="75.128" fill="#000" font-size="14" textLength="52.685">fp.Walk</text><ellipse cx="147.129" cy="46.133" rx="12" ry="12" fill="#E2E2F0" style="stroke:#181818;stroke-width:0.5;"/><polygon points="143.129,34.133,149.129,29.133,147.129,34.133,149.129,39.133,143.129,34.133" fill="#181818" style="stroke:#181818;stroke-width:1;stroke-linejoin:miter;stroke-miterlimit:10;"/><rect x="220.187" y="43.133" width="53.97" height="30.297" fill="#E2E2F0" style="stroke:#181818;stroke-width:0.5;"/><rect x="216.187" y="47.133" width="53.97" height="30.297" fill="#E2E2F0" style="stroke:#181818;stroke-width:0.5;"/><text x="223.187" y="67.128" fill="#000" font-size="14" textLength="39.97">fileCh</text><text x="304.255" y="75.128" fill="#000" font-size="14" textLength="71.921">exifreader</text><ellipse cx="343.216" cy="46.133" rx="12" ry="12" fill="#F08080" style="stroke:#181818;stroke-width:0.5;"/><polygon points="339.216,34.133,345.216,29.133,343.216,34.133,345.216,39.133,339.216,34.133" fill="#181818" style="stroke:#181818;stroke-width:1;stroke-linejoin:miter;stroke-miterlimit:10;"/><rect x="396.176" y="43.133" width="58.365" height="30.297" fill="#F08080" style="stroke:#181818;stroke-width:0.5;"/><rect x="392.176" y="47.133" width="58.365" height="30.297" fill="#F08080" style="stroke:#181818;stroke-width:0.5;"/><text x="399.176" y="67.128" fill="#000" font-size="14" textLength="44.365">exifCh</text><text x="567.465" y="75.128" fill="#000" font-size="14" textLength="61.92">validator</text><ellipse cx="601.425" cy="46.133" rx="12" ry="12" fill="#E2E2F0" style="stroke:#181818;stroke-width:0.5;"/><polygon points="597.425,34.133,603.425,29.133,601.425,34.133,603.425,39.133,597.425,34.133" fill="#181818" style="stroke:#181818;stroke-width:1;stroke-linejoin:miter;stroke-miterlimit:10;"/><text x="772.394" y="75.128" fill="#000" font-size="14" textLength="36.846">gorm</text><ellipse cx="793.817" cy="46.133" rx="12" ry="12" fill="#E2E2F0" style="stroke:#181818;stroke-width:0.5;"/><polygon points="789.817,34.133,795.817,29.133,793.817,34.133,795.817,39.133,789.817,34.133" fill="#181818" style="stroke:#181818;stroke-width:1;stroke-linejoin:miter;stroke-miterlimit:10;"/><text x="887.196" y="75.128" fill="#000" font-size="14" textLength="67.908">decorator</text><ellipse cx="924.15" cy="46.133" rx="12" ry="12" fill="#E2E2F0" style="stroke:#181818;stroke-width:0.5;"/><polygon points="920.15,34.133,926.15,29.133,924.15,34.133,926.15,39.133,920.15,34.133" fill="#181818" style="stroke:#181818;stroke-width:1;stroke-linejoin:miter;stroke-miterlimit:10;"/><rect x="1160.313" y="43.133" width="64.278" height="30.297" fill="#E2E2F0" style="stroke:#181818;stroke-width:0.5;"/><rect x="1156.313" y="47.133" width="64.278" height="30.297" fill="#E2E2F0" style="stroke:#181818;stroke-width:0.5;"/><text x="1163.313" y="67.128" fill="#000" font-size="14" textLength="50.278">itemCh</text><text x="117.786" y="1353.347" fill="#000" font-size="14" textLength="52.685">fp.Walk</text><ellipse cx="147.129" cy="1372.648" rx="12" ry="12" fill="#E2E2F0" style="stroke:#181818;stroke-width:0.5;"/><polygon points="143.129,1360.648,149.129,1355.648,147.129,1360.648,149.129,1365.648,143.129,1360.648" fill="#181818" style="stroke:#181818;stroke-width:1;stroke-linejoin:miter;stroke-miterlimit:10;"/><rect x="220.187" y="1340.352" width="53.97" height="30.297" fill="#E2E2F0" style="stroke:#181818;stroke-width:0.5;"/><rect x="216.187" y="1344.352" width="53.97" height="30.297" fill="#E2E2F0" style="stroke:#181818;stroke-width:0.5;"/><text x="223.187" y="1364.347" fill="#000" font-size="14" textLength="39.97">fileCh</text><text x="304.255" y="1353.347" fill="#000" font-size="14" textLength="71.921">exifreader</text><ellipse cx="343.216" cy="1372.648" rx="12" ry="12" fill="#F08080" style="stroke:#181818;stroke-width:0.5;"/><polygon points="339.216,1360.648,345.216,1355.648,343.216,1360.648,345.216,1365.648,339.216,1360.648" fill="#181818" style="stroke:#181818;stroke-width:1;stroke-linejoin:miter;stroke-miterlimit:10;"/><rect x="396.176" y="1340.352" width="58.365" height="30.297" fill="#F08080" style="stroke:#181818;stroke-width:0.5;"/><rect x="392.176" y="1344.352" width="58.365" height="30.297" fill="#F08080" style="stroke:#181818;stroke-width:0.5;"/><text x="399.176" y="1364.347" fill="#000" font-size="14" textLength="44.365">exifCh</text><text x="567.465" y="1353.347" fill="#000" font-size="14" textLength="61.92">validator</text><ellipse cx="601.425" cy="1372.648" rx="12" ry="12" fill="#E2E2F0" style="stroke:#181818;stroke-width:0.5;"/><polygon points="597.425,1360.648,603.425,1355.648,601.425,1360.648,603.425,1365.648,597.425,1360.648" fill="#181818" style="stroke:#181818;stroke-width:1;stroke-linejoin:miter;stroke-miterlimit:10;"/><text x="772.394" y="1353.347" fill="#000" font-size="14" textLength="36.846">gorm</text><ellipse cx="793.817" cy="1372.648" rx="12" ry="12" fill="#E2E2F0" style="stroke:#181818;stroke-width:0.5;"/><polygon points="789.817,1360.648,795.817,1355.648,793.817,1360.648,795.817,1365.648,789.817,1360.648" fill="#181818" style="stroke:#181818;stroke-width:1;stroke-linejoin:miter;stroke-miterlimit:10;"/><text x="887.196" y="1353.347" fill="#000" font-size="14" textLength="67.908">decorator</text><ellipse cx="924.15" cy="1372.648" rx="12" ry="12" fill="#E2E2F0" style="stroke:#181818;stroke-width:0.5;"/><polygon points="920.15,1360.648,926.15,1355.648,924.15,1360.648,926.15,1365.648,920.15,1360.648" fill="#181818" style="stroke:#181818;stroke-width:1;stroke-linejoin:miter;stroke-miterlimit:10;"/><rect x="1160.313" y="1340.352" width="64.278" height="30.297" fill="#E2E2F0" style="stroke:#181818;stroke-width:0.5;"/><rect x="1156.313" y="1344.352" width="64.278" height="30.297" fill="#E2E2F0" style="stroke:#181818;stroke-width:0.5;"/><text x="1163.313" y="1364.347" fill="#000" font-size="14" textLength="50.278">itemCh</text><path d="M15,91.43 L15,176.43 L377,176.43 L377,101.43 L367,91.43 L15,91.43" style="stroke:#181818;stroke-width:0.5;" fill="#90EE90"/><path d="M367,91.43 L367,101.43 L377,101.43 L367,91.43" style="stroke:#181818;stroke-width:0.5;" fill="#90EE90"/><text x="21" y="108.497" fill="#000" font-size="13" textLength="185.326">Make group of files by name</text><text x="210.458" y="108.497" fill="#000" font-size="13" textLength="82.666" font-weight="700">[]FileEntry,</text><text x="21" y="123.629" fill="#000" font-size="13" textLength="268.772">First element is main file, others sidecars</text><text x="21" y="138.762" fill="#000" font-size="13" textLength="303.202">Sends new/changed groups and groups whose</text><text x="21" y="153.895" fill="#000" font-size="13" textLength="277.291">item is not Ready (new, Dirty, interrupted)</text><text x="21" y="169.028" fill="#000" font-size="13" textLength="341.301">An unreadable subdirectory is skipped and recorded</text><polygon points="228.172,199.227,238.172,203.227,228.172,207.227,232.172,203.227" fill="#181818" style="stroke:#181818;stroke-width:1;stroke-linejoin:miter;stroke-miterlimit:10;"/><line x1="152.129" y1="203.227" x2="234.172" y2="203.227" style="stroke:#181818;stroke-width:1;"/><text x="159.129" y="198.161" fill="#000" font-size="13" textLength="69.043">new group</text><polygon points="326.216,228.359,336.216,232.359,326.216,236.359,330.216,232.359" fill="#181818" style="stroke:#181818;stroke-width:1;stroke-linejoin:miter;stroke-miterlimit:10;"/><line x1="250.172" y1="232.359" x2="332.216" y2="232.359" style="stroke:#181818;stroke-width:1;"/><text x="257.172" y="227.293" fill="#000" font-size="13" textLength="69.043">new group</text><polygon points="406.359,257.492,416.359,261.492,406.359,265.492,410.359,261.492" fill="#181818" style="stroke:#181818;stroke-width:1;stroke-linejoin:miter;stroke-miterlimit:10;"/><line x1="348.216" y1="261.492" x2="412.359" y2="261.492" style="stroke:#181818;stroke-width:1;"/><text x="355.216" y="256.426" fill="#000" font-size="13" textLength="36.277">exif...</text><path d="M178.782,274.492 L178.782,359.492 L488.782,359.492 L488.782,284.492 L478.782,274.492 L178.782,274.492" style="stroke:#181818;stroke-width:0.5;" fill="#F08080"/><path d="M478.782,274.492 L478.782,284.492 L488.782,284.492 L478.782,274.492" style="stroke:#181818;stroke-width:0.5;" fill="#F08080"/><text x="184.782" y="291.559" fill="#000" font-size="13" textLength="192.518">As soon as it takes list of files</text><text x="184.782" y="306.692" fill="#000" font-size="13" textLength="268.284">Better to merge exifreader with validator</text><text x="184.782" y="321.825" fill="#000" font-size="13" textLength="268.5">To be able to check whole group in a row</text><text x="184.782" y="336.958" fill="#000" font-size="13" textLength="41.793" font-weight="700">Code:</text><text x="230.707" y="336.958" fill="#000" font-size="13" textLength="244.042">the validator runs inside the exif step</text><text x="184.782" y="352.09" fill="#000" font-size="13" textLength="180.534">(exifExtractor.processMeta)</text><polygon points="584.425,382.289,594.425,386.289,584.425,390.289,588.425,386.289" fill="#181818" style="stroke:#181818;stroke-width:1;stroke-linejoin:miter;stroke-miterlimit:10;"/><line x1="428.359" y1="386.289" x2="590.425" y2="386.289" style="stroke:#181818;stroke-width:1;"/><text x="435.359" y="381.223" fill="#000" font-size="13" textLength="36.277">exif...</text><polygon points="776.817,441.688,786.817,445.688,776.817,449.688,780.817,445.688" fill="#181818" style="stroke:#181818;stroke-width:1;stroke-linejoin:miter;stroke-miterlimit:10;"/><line x1="606.425" y1="445.688" x2="782.817" y2="445.688" style="stroke:#181818;stroke-width:1;"/><text x="613.425" y="410.356" fill="#000" font-size="13" textLength="69.977">hash(path,</text><text x="613.425" y="425.489" fill="#000" font-size="13" textLength="36.277">exif...</text><text x="613.425" y="440.622" fill="#000" font-size="13" textLength="59.319">bytesize)</text><path d="M517.046,457.688 L581.489,457.688 L581.489,464.82 L571.489,474.82 L517.046,474.82 L517.046,457.688" style="stroke:#000;stroke-width:1.5;" fill="#EEE"/><rect x="517.046" y="457.688" width="361.149" height="596.203" fill="none" style="stroke:#000;stroke-width:1.5;"/><text x="532.046" y="470.754" fill="#000" font-size="13" textLength="19.443" font-weight="700">alt</text><text x="596.489" y="469.898" fill="#000" font-size="11" textLength="107.035" font-weight="700">[found the same]</text><path d="M578.733,489.82 L578.733,529.82 L815.733,529.82 L815.733,499.82 L805.733,489.82 L578.733,489.82" style="stroke:#181818;stroke-width:0.5;" fill="#FEFFDD"/><path d="M805.733,489.82 L805.733,499.82 L815.733,499.82 L805.733,489.82" style="stroke:#181818;stroke-width:0.5;" fill="#FEFFDD"/><text x="606.84" y="506.887" fill="#000" font-size="13" textLength="172.561">same path and same hash</text><text x="606.84" y="522.02" fill="#000" font-size="13" textLength="69.97">do nothing</text><line x1="608.425" y1="551.219" x2="618.425" y2="561.219" style="stroke:#181818;stroke-width:2;"/><line x1="608.425" y1="561.219" x2="618.425" y2="551.219" style="stroke:#181818;stroke-width:2;"/><line x1="613.425" y1="556.219" x2="787.817" y2="556.219" style="stroke:#181818;stroke-width:1;"/><text x="618.425" y="551.153" fill="#F00" font-size="13" textLength="18.167" font-weight="700">nil</text><line x1="517.046" y1="565.219" x2="878.196" y2="565.219" style="stroke:#000;stroke-width:1;stroke-dasharray:2,2;"/><text x="522.046" y="577.429" fill="#000" font-size="11" textLength="91.287" font-weight="700">[found moved]</text><path d="M538.046,588.023 L538.046,658.023 L857.046,658.023 L857.046,598.023 L847.046,588.023 L538.046,588.023" style="stroke:#181818;stroke-width:0.5;" fill="#FEFFDD"/><path d="M847.046,588.023 L847.046,598.023 L857.046,598.023 L847.046,588.023" style="stroke:#181818;stroke-width:0.5;" fill="#FEFFDD"/><text x="544.046" y="605.09" fill="#000" font-size="13" textLength="172.529">same hash, different path,</text><text x="544.046" y="620.223" fill="#000" font-size="13" textLength="53.504">old path</text><text x="601.683" y="620.223" fill="#F00" font-size="13" textLength="72.274" font-weight="700">not exists</text><text x="544.046" y="635.356" fill="#000" font-size="13" textLength="298.149">The item may be deleted already (finalize ran</text><text x="544.046" y="650.489" fill="#000" font-size="13" textLength="289.498">first: the chain is async) -> restored as Dirty</text><line x1="746.817" y1="699.82" x2="787.817" y2="699.82" style="stroke:#181818;stroke-width:1;"/><line x1="746.817" y1="699.82" x2="746.817" y2="712.82" style="stroke:#181818;stroke-width:1;"/><line x1="746.817" y1="712.82" x2="786.817" y2="712.82" style="stroke:#181818;stroke-width:1;"/><polygon points="776.817,708.82,786.817,712.82,776.817,716.82,780.817,712.82" fill="#181818" style="stroke:#181818;stroke-width:1;stroke-linejoin:miter;stroke-miterlimit:10;"/><text x="608.425" y="679.622" fill="#000" font-size="13" textLength="173.393">update path, new file rows</text><text x="608.425" y="694.754" fill="#000" font-size="13" textLength="135.472">take the item's GUID</text><polygon points="612.425,737.953,602.425,741.953,612.425,745.953,608.425,741.953" fill="#181818" style="stroke:#181818;stroke-width:1;stroke-linejoin:miter;stroke-miterlimit:10;"/><line x1="606.425" y1="741.953" x2="787.817" y2="741.953" style="stroke:#181818;stroke-width:1;"/><text x="618.425" y="736.887" fill="#00F" font-size="13" textLength="95.475" font-weight="700">existing guid</text><line x1="517.046" y1="750.953" x2="878.196" y2="750.953" style="stroke:#000;stroke-width:1;stroke-dasharray:2,2;"/><text x="522.046" y="763.164" fill="#000" font-size="11" textLength="81.651" font-weight="700">[don't found]</text><path d="M578.733,773.758 L578.733,813.758 L815.733,813.758 L815.733,783.758 L805.733,773.758 L578.733,773.758" style="stroke:#181818;stroke-width:0.5;" fill="#FEFFDD"/><path d="M805.733,773.758 L805.733,783.758 L815.733,783.758 L805.733,773.758" style="stroke:#181818;stroke-width:0.5;" fill="#FEFFDD"/><text x="612.966" y="790.825" fill="#000" font-size="13" textLength="160.31">path and hash not found</text><text x="612.966" y="805.958" fill="#000" font-size="13" textLength="106.057">create new item</text><path d="M578.733,824.023 L578.733,879.023 L815.733,879.023 L815.733,834.023 L805.733,824.023 L578.733,824.023" style="stroke:#181818;stroke-width:0.5;" fill="#FEFFDD"/><path d="M805.733,824.023 L805.733,834.023 L815.733,834.023 L805.733,824.023" style="stroke:#181818;stroke-width:0.5;" fill="#FEFFDD"/><text x="605.457" y="841.09" fill="#000" font-size="13" textLength="172.529">same hash, different path,</text><text x="605.457" y="856.223" fill="#000" font-size="13" textLength="53.504">old path</text><text x="663.093" y="856.223" fill="#F00" font-size="13" textLength="77.771" font-weight="700">also exists</text><text x="605.457" y="871.356" fill="#000" font-size="13" textLength="175.329">create new one (duplicate)</text><line x1="746.817" y1="905.555" x2="787.817" y2="905.555" style="stroke:#181818;stroke-width:1;"/><line x1="746.817" y1="905.555" x2="746.817" y2="918.555" style="stroke:#181818;stroke-width:1;"/><line x1="746.817" y1="918.555" x2="786.817" y2="918.555" style="stroke:#181818;stroke-width:1;"/><polygon points="776.817,914.555,786.817,918.555,776.817,922.555,780.817,918.555" fill="#181818" style="stroke:#181818;stroke-width:1;stroke-linejoin:miter;stroke-miterlimit:10;"/><text x="740.265" y="900.489" fill="#000" font-size="13" textLength="41.552">create</text><polygon points="617.425,943.688,607.425,947.688,617.425,951.688,613.425,947.688" fill="#181818" style="stroke:#181818;stroke-width:1;stroke-linejoin:miter;stroke-miterlimit:10;"/><line x1="611.425" y1="947.688" x2="787.817" y2="947.688" style="stroke:#181818;stroke-width:1;"/><text x="623.425" y="942.622" fill="#008000" font-size="13" textLength="66.93" font-weight="700">new guid</text><line x1="517.046" y1="956.688" x2="878.196" y2="956.688" style="stroke:#000;stroke-width:1;stroke-dasharray:2,2;"/><text x="522.046" y="968.898" fill="#000" font-size="11" textLength="102.577" font-weight="700">[found changed]</text><path d="M578.733,979.492 L578.733,1019.492 L815.733,1019.492 L815.733,989.492 L805.733,979.492 L578.733,979.492" style="stroke:#181818;stroke-width:0.5;" fill="#FEFFDD"/><path d="M805.733,979.492 L805.733,989.492 L815.733,989.492 L805.733,979.492" style="stroke:#181818;stroke-width:0.5;" fill="#FEFFDD"/><text x="592.625" y="996.559" fill="#000" font-size="13" textLength="168.397">same path, different hash</text><text x="592.625" y="1011.692" fill="#000" font-size="13" textLength="200.992" font-weight="700">have to regenerate thumbs</text><polygon points="617.425,1041.891,607.425,1045.891,617.425,1049.891,613.425,1045.891" fill="#181818" style="stroke:#181818;stroke-width:1;stroke-linejoin:miter;stroke-miterlimit:10;"/><line x1="611.425" y1="1045.891" x2="787.817" y2="1045.891" style="stroke:#181818;stroke-width:1;"/><text x="623.425" y="1040.825" fill="#00F" font-size="13" textLength="95.475" font-weight="700">existing guid</text><polygon points="907.15,1085.023,917.15,1089.023,907.15,1093.023,911.15,1089.023" fill="#181818" style="stroke:#181818;stroke-width:1;stroke-linejoin:miter;stroke-miterlimit:10;"/><line x1="606.425" y1="1089.023" x2="913.15" y2="1089.023" style="stroke:#181818;stroke-width:1;"/><text x="613.425" y="1083.958" fill="#000" font-size="13" textLength="72.896">guid, exif...</text><polygon points="1178.452,1114.156,1188.452,1118.156,1178.452,1122.156,1182.452,1118.156" fill="#181818" style="stroke:#181818;stroke-width:1;stroke-linejoin:miter;stroke-miterlimit:10;"/><line x1="929.15" y1="1118.156" x2="1184.452" y2="1118.156" style="stroke:#181818;stroke-width:1;"/><text x="936.15" y="1113.09" fill="#000" font-size="13" textLength="40.422">exif{}</text><path d="M986.104,1131.156 L986.104,1156.156 L1394.104,1156.156 L1394.104,1141.156 L1384.104,1131.156 L986.104,1131.156" style="stroke:#181818;stroke-width:0.5;" fill="#90EE90"/><path d="M1384.104,1131.156 L1384.104,1141.156 L1394.104,1141.156 L1384.104,1131.156" style="stroke:#181818;stroke-width:0.5;" fill="#90EE90"/><text x="992.104" y="1148.223" fill="#000" font-size="13" textLength="76.711">closer: item</text><text x="1072.948" y="1148.223" fill="#000" font-size="13" textLength="45.379" font-weight="700">Ready</text><text x="1122.459" y="1148.223" fill="#000" font-size="13" textLength="257.34">(Processing once the transcoder exists)</text><rect x="10" y="1181.855" width="1389.8" height="3" fill="#EEE" style="stroke:#EEE;stroke-width:1;"/><line x1="10" y1="1181.855" x2="1399.8" y2="1181.855" style="stroke:#000;stroke-width:1;"/><line x1="10" y1="1184.855" x2="1399.8" y2="1184.855" style="stroke:#000;stroke-width:1;"/><rect x="538.589" y="1171.289" width="332.621" height="23.133" fill="#EEE" style="stroke:#000;stroke-width:2;"/><text x="544.589" y="1187.356" fill="#000" font-size="13" textLength="314.095" font-weight="700">end of walk (after the last group is stored)</text><path d="M126.746,1209.422 L126.746,1324.422 L813.746,1324.422 L813.746,1219.422 L803.746,1209.422 L126.746,1209.422" style="stroke:#181818;stroke-width:0.5;" fill="#90EE90"/><path d="M803.746,1209.422 L803.746,1219.422 L813.746,1219.422 L803.746,1209.422" style="stroke:#181818;stroke-width:0.5;" fill="#90EE90"/><text x="249.81" y="1226.489" fill="#000" font-size="13" textLength="76.991">Only after a</text><text x="330.933" y="1226.489" fill="#000" font-size="13" textLength="67.793" font-weight="700">complete</text><text x="402.858" y="1226.489" fill="#000" font-size="13" textLength="133.548">walk with files found</text><text x="249.81" y="1241.622" fill="#000" font-size="13" textLength="267.122">(not on cancel, missing root, empty root)</text><text x="249.81" y="1256.754" fill="#000" font-size="13" textLength="368.716">Files with CheckTime older than this run, under the root,</text><text x="249.81" y="1271.887" fill="#000" font-size="13" textLength="294.938">not under an unreadable directory, are gone:</text><text x="249.81" y="1287.02" fill="#000" font-size="13" textLength="155.029">- main file gone -> item</text><text x="408.971" y="1287.02" fill="#000" font-size="13" textLength="57.218" font-weight="700">Deleted</text><text x="470.321" y="1287.02" fill="#000" font-size="13" textLength="211.815">(soft delete, hidden from /items)</text><text x="249.81" y="1302.153" fill="#000" font-size="13" textLength="145.71">- sidecar gone -> item</text><text x="399.653" y="1302.153" fill="#000" font-size="13" textLength="36.347" font-weight="700">Dirty</text><text x="440.132" y="1302.153" fill="#000" font-size="13" textLength="191.471">(re-emitted by the next walk)</text><text x="249.81" y="1317.286" fill="#000" font-size="13" textLength="116.797">- file rows deleted</text><?plantuml-src jLPBR-Gs3BxhLn3eOMS09xaFaW2xoIOesaMBReeUcXuq5ZqM8ak692UPBVhVIrAExScZJG_DOMBB8ldnuxCEFiVWeEcFVzFkJjN1EQop3Jv1OnrUj8hEoXryj4r4RJ32Tp_QNPilGjJkG8IlNBG7dzKsFCArplW3OZ-9VhtRVt83JhhljRD6vn2dars8tVHYi2Pb_1cz0T9uODLcx1YeqdHmJwOcTtoWbt1FPiUJQlHgX74T4RtwekyGTZ4CFOH6BYJOxi7h3k5qU_xx7rTqz9cGx2jrPMFAW0uxz1biWavRBp8LXDnYJ90imTKngQy4De77XvEwrNw7fXX9eFtq-D26X8ezO6M45tuXYlUm8h4ABctC-mgipnZZq6SqQ_NHm-0v3dhh4DAmDJOI4o7kMKEwitrFbjX4PDOC6Y6DgL0Z2t1qFlAmONW5YpBuWh_veEJ2I1w9pydmbeeYCRs_aJsBur4hW-B_nyV7o_Y9kkgr3Fj8NeVWGNCcGAPW9d2MelGKJFK9Cn48EK27SNU0vS7cTf5zDm6s2C8itQvRhEyuHEufFoZM6c9uK9GN5y7WvlHaUmuKzra7n85pqdCQo1Us1YbZhrRy-FanHytnEkvZg36bBvZrUexHWiCPvo6FpmWOZuY_2SHCuJDrov3CRgiPFMdXqjj0grExwdLkgri_Ahlrstt6PB_XUgbtrZCTIVKgxJ8qOI3Fc8T4zQI0_kQeJfBLQ9Jl01kL19Otnd7hJM2nrlgTgE3R1FLnwV5fGzq2g364U1RHd5E8lAK6X2xX2ACZg-QVCSZNoN05nZODHYvsuK8-1sSAI3Bnt2gNCD6LSfAhD-IuL7UdzvnQXbf7vlfqiTHvOpq1-8OGjHU9XZlCHXYZja49HrMjqzxNQuvDn4HGMK4gtK5afkIPk3az6XaTUiC14V1IgLmIdCBfrdEjY256-271zQ_VNoxfVOlTBRLkfbVyf930Rh1c9De4_s6C-Zk8daBDP4lxcoLhOeXa6JFZU-de_nP3xL9O1d6197Y4bHbwPsiwMlyR-qNoFPpkU1H9pd8tPJvPwBLQNUJpE5VUoqP9WfaDPaU-ajbMtqlFYxX3Zv5jvdRejkaD5_zhTh3WecUK1a5gd_MUQT9lHAnwhO-zqc_c1M5wOcrbCoZDyC-_OAbabfY9AzUNkm55qD609ZHInEILZ6Vf-gkVI_zc5uElIoLHR_Uf3ZnQIWAjbJex4_ve73tmy5tfHgOHtNQQnjGuMMYAIMMluUnClRQv2EtBlUKdx_PGb6c6LeUkv-uYwCIKJBUoq9IwMd69qQoiDG5s5NIsu8yXPEAww_DUdjVgIgH4mGMFmHjB2KH58yYrfnz2JAEkect4ZEw85eO-dkc3LMNQKohGaJF0uqOTpGkKd3n5ZVsvBBsoa9r2ayVkMK5hZK6IYg634xvED1yzBLulzN2VB5eY7c5dCtTWsl0OCyssB6InXgatFlNfUIp_3G00?></g></svg>